NotoSansSignWriting.glyphspackage
{
glyphname = F2;
layers = (
{
layerId = "B5BBCF37-8EA3-4A7F-B967-74D10E0B056C";
paths = (
{
closed = 1;
nodes = (
"-422 722 LINE",
"-316 722 LINE",
"-316 764 LINE",
"-464 764 LINE",
"-464 616 LINE",
"-422 616 LINE"
);
},
{
closed = 1;
nodes = (
"-125 764 LINE",
"-257 764 LINE",
"-257 722 LINE",
"-125 722 LINE"
);
},
{
closed = 1;
nodes = (
"67 764 LINE",
"-66 764 LINE",
"-66 722 LINE",
"67 722 LINE"
);
},
{
closed = 1;
nodes = (
"258 764 LINE",
"125 764 LINE",
"125 722 LINE",
"258 722 LINE"
);
},
{
closed = 1;
nodes = (
"423 616 LINE",
"464 616 LINE",
"464 764 LINE",
"316 764 LINE",
"316 722 LINE",
"423 722 LINE"
);
},
{
closed = 1;
nodes = (
"-464 557 LINE",
"-464 425 LINE",
"-422 425 LINE",
"-422 557 LINE"
);
},
{
closed = 1;
nodes = (
"423 557 LINE",
"423 425 LINE",
"464 425 LINE",
"464 557 LINE"
);
},
{
closed = 1;
nodes = (
"108 202 LINE",
"108 205 LINE",
"166 270 LINE SMOOTH",
"221 327 OFFCURVE",
"245 365 OFFCURVE",
"245 418 CURVE SMOOTH",
"245 474 OFFCURVE",
"203 512 OFFCURVE",
"138 512 CURVE SMOOTH",
"92 512 OFFCURVE",
"61 497 OFFCURVE",
"29 468 CURVE",
"63 429 LINE",
"87 451 OFFCURVE",
"107 461 OFFCURVE",
"132 461 CURVE SMOOTH",
"162 461 OFFCURVE",
"179 443 OFFCURVE",
"179 414 CURVE SMOOTH",
"179 376 OFFCURVE",
"163 350 OFFCURVE",
"112 290 CURVE SMOOTH",
"29 194 LINE",
"29 150 LINE",
"254 150 LINE",
"254 202 LINE"
);
},
{
closed = 1;
nodes = (
"-32 296 LINE",
"-32 348 LINE",
"-143 348 LINE",
"-143 456 LINE",
"-24 456 LINE",
"-24 507 LINE",
"-209 507 LINE",
"-209 150 LINE",
"-143 150 LINE",
"-143 296 LINE"
);
},
{
closed = 1;
nodes = (
"-464 366 LINE",
"-464 233 LINE",
"-422 233 LINE",
"-422 366 LINE"
);
},
{
closed = 1;
nodes = (
"423 366 LINE",
"423 233 LINE",
"464 233 LINE",
"464 366 LINE"
);
},
{
closed = 1;
nodes = (
"-464 174 LINE",
"-464 42 LINE",
"-422 42 LINE",
"-422 174 LINE"
);
},
{
closed = 1;
nodes = (
"423 174 LINE",
"423 42 LINE",
"464 42 LINE",
"464 174 LINE"
);
},
{
closed = 1;
nodes = (
"-316 -123 LINE",
"-422 -123 LINE",
"-422 -16 LINE",
"-464 -16 LINE",
"-464 -164 LINE",
"-316 -164 LINE"
);
},
{
closed = 1;
nodes = (
"464 -16 LINE",
"423 -16 LINE",
"423 -123 LINE",
"316 -123 LINE",
"316 -164 LINE",
"464 -164 LINE"
);
},
{
closed = 1;
nodes = (
"-125 -123 LINE",
"-257 -123 LINE",
"-257 -164 LINE",
"-125 -164 LINE"
);
},
{
closed = 1;
nodes = (
"67 -123 LINE",
"-66 -123 LINE",
"-66 -164 LINE",
"67 -164 LINE"
);
},
{
closed = 1;
nodes = (
"258 -123 LINE",
"125 -123 LINE",
"125 -164 LINE",
"258 -164 LINE"
);
}
);
width = 0;
}
);
unicode = 1DA9B;
category = Mark;
subCategory = Nonspacing;
}
{
glyphname = F3;
layers = (
{
layerId = "B5BBCF37-8EA3-4A7F-B967-74D10E0B056C";
paths = (
{
closed = 1;
nodes = (
"-422 722 LINE",
"-316 722 LINE",
"-316 764 LINE",
"-464 764 LINE",
"-464 616 LINE",
"-422 616 LINE"
);
},
{
closed = 1;
nodes = (
"-125 764 LINE",
"-257 764 LINE",
"-257 722 LINE",
"-125 722 LINE"
);
},
{
closed = 1;
nodes = (
"67 764 LINE",
"-66 764 LINE",
"-66 722 LINE",
"67 722 LINE"
);
},
{
closed = 1;
nodes = (
"258 764 LINE",
"125 764 LINE",
"125 722 LINE",
"258 722 LINE"
);
},
{
closed = 1;
nodes = (
"423 616 LINE",
"464 616 LINE",
"464 764 LINE",
"316 764 LINE",
"316 722 LINE",
"423 722 LINE"
);
},
{
closed = 1;
nodes = (
"-464 557 LINE",
"-464 425 LINE",
"-422 425 LINE",
"-422 557 LINE"
);
},
{
closed = 1;
nodes = (
"423 557 LINE",
"423 425 LINE",
"464 425 LINE",
"464 557 LINE"
);
},
{
closed = 1;
nodes = (
"235 479 OFFCURVE",
"195 512 OFFCURVE",
"128 512 CURVE SMOOTH",
"84 512 OFFCURVE",
"51 501 OFFCURVE",
"20 478 CURVE",
"48 436 LINE",
"70 452 OFFCURVE",
"91 462 OFFCURVE",
"119 462 CURVE SMOOTH",
"153 462 OFFCURVE",
"171 445 OFFCURVE",
"171 416 CURVE SMOOTH",
"171 381 OFFCURVE",
"146 359 OFFCURVE",
"94 359 CURVE SMOOTH",
"69 359 LINE",
"69 309 LINE",
"92 309 LINE SMOOTH",
"151 309 OFFCURVE",
"175 291 OFFCURVE",
"175 254 CURVE SMOOTH",
"175 218 OFFCURVE",
"155 196 OFFCURVE",
"107 196 CURVE SMOOTH",
"79 196 OFFCURVE",
"48 203 OFFCURVE",
"20 217 CURVE",
"20 162 LINE",
"50 150 OFFCURVE",
"78 145 OFFCURVE",
"114 145 CURVE SMOOTH",
"199 145 OFFCURVE",
"244 188 OFFCURVE",
"244 251 CURVE SMOOTH",
"244 298 OFFCURVE",
"217 328 OFFCURVE",
"164 336 CURVE",
"164 338 LINE",
"209 351 OFFCURVE",
"235 381 OFFCURVE",
"235 424 CURVE SMOOTH"
);
},
{
closed = 1;
nodes = (
"-32 296 LINE",
"-32 348 LINE",
"-143 348 LINE",
"-143 456 LINE",
"-24 456 LINE",
"-24 507 LINE",
"-209 507 LINE",
"-209 150 LINE",
"-143 150 LINE",
"-143 296 LINE"
);
},
{
closed = 1;
nodes = (
"-464 366 LINE",
"-464 233 LINE",
"-422 233 LINE",
"-422 366 LINE"
);
},
{
closed = 1;
nodes = (
"423 366 LINE",
"423 233 LINE",
"464 233 LINE",
"464 366 LINE"
);
},
{
closed = 1;
nodes = (
"-464 174 LINE",
"-464 42 LINE",
"-422 42 LINE",
"-422 174 LINE"
);
},
{
closed = 1;
nodes = (
"423 174 LINE",
"423 42 LINE",
"464 42 LINE",
"464 174 LINE"
);
},
{
closed = 1;
nodes = (
"-316 -123 LINE",
"-422 -123 LINE",
"-422 -16 LINE",
"-464 -16 LINE",
"-464 -164 LINE",
"-316 -164 LINE"
);
},
{
closed = 1;
nodes = (
"464 -16 LINE",
"423 -16 LINE",
"423 -123 LINE",
"316 -123 LINE",
"316 -164 LINE",
"464 -164 LINE"
);
},
{
closed = 1;
nodes = (
"-125 -123 LINE",
"-257 -123 LINE",
"-257 -164 LINE",
"-125 -164 LINE"
);
},
{
closed = 1;
nodes = (
"67 -123 LINE",
"-66 -123 LINE",
"-66 -164 LINE",
"67 -164 LINE"
);
},
{
closed = 1;
nodes = (
"258 -123 LINE",
"125 -123 LINE",
"125 -164 LINE",
"258 -164 LINE"
);
}
);
width = 0;
}
);
unicode = 1DA9C;
category = Mark;
subCategory = Nonspacing;
}
{
glyphname = F4;
layers = (
{
layerId = "B5BBCF37-8EA3-4A7F-B967-74D10E0B056C";
paths = (
{
closed = 1;
nodes = (
"-422 722 LINE",
"-316 722 LINE",
"-316 764 LINE",
"-464 764 LINE",
"-464 616 LINE",
"-422 616 LINE"
);
},
{
closed = 1;
nodes = (
"-125 764 LINE",
"-257 764 LINE",
"-257 722 LINE",
"-125 722 LINE"
);
},
{
closed = 1;
nodes = (
"67 764 LINE",
"-66 764 LINE",
"-66 722 LINE",
"67 722 LINE"
);
},
{
closed = 1;
nodes = (
"258 764 LINE",
"125 764 LINE",
"125 722 LINE",
"258 722 LINE"
);
},
{
closed = 1;
nodes = (
"423 616 LINE",
"464 616 LINE",
"464 764 LINE",
"316 764 LINE",
"316 722 LINE",
"423 722 LINE"
);
},
{
closed = 1;
nodes = (
"-464 557 LINE",
"-464 425 LINE",
"-422 425 LINE",
"-422 557 LINE"
);
},
{
closed = 1;
nodes = (
"423 557 LINE",
"423 425 LINE",
"464 425 LINE",
"464 557 LINE"
);
},
{
closed = 1;
nodes = (
"218 274 LINE",
"218 509 LINE",
"153 509 LINE",
"9 272 LINE",
"9 225 LINE",
"154 225 LINE",
"154 150 LINE",
"218 150 LINE",
"218 225 LINE",
"261 225 LINE",
"261 274 LINE"
);
},
{
closed = 1;
nodes = (
"-32 296 LINE",
"-32 348 LINE",
"-143 348 LINE",
"-143 456 LINE",
"-24 456 LINE",
"-24 507 LINE",
"-209 507 LINE",
"-209 150 LINE",
"-143 150 LINE",
"-143 296 LINE"
);
},
{
closed = 1;
nodes = (
"134 392 LINE SMOOTH",
"141 404 OFFCURVE",
"148 418 OFFCURVE",
"154 432 CURVE",
"156 432 LINE",
"155 421 OFFCURVE",
"153 387 OFFCURVE",
"153 370 CURVE SMOOTH",
"153 274 LINE",
"65 274 LINE"
);
},
{
closed = 1;
nodes = (
"-464 366 LINE",
"-464 233 LINE",
"-422 233 LINE",
"-422 366 LINE"
);
},
{
closed = 1;
nodes = (
"423 366 LINE",
"423 233 LINE",
"464 233 LINE",
"464 366 LINE"
);
},
{
closed = 1;
nodes = (
"-464 174 LINE",
"-464 42 LINE",
"-422 42 LINE",
"-422 174 LINE"
);
},
{
closed = 1;
nodes = (
"423 174 LINE",
"423 42 LINE",
"464 42 LINE",
"464 174 LINE"
);
},
{
closed = 1;
nodes = (
"-316 -123 LINE",
"-422 -123 LINE",
"-422 -16 LINE",
"-464 -16 LINE",
"-464 -164 LINE",
"-316 -164 LINE"
);
},
{
closed = 1;
nodes = (
"464 -16 LINE",
"423 -16 LINE",
"423 -123 LINE",
"316 -123 LINE",
"316 -164 LINE",
"464 -164 LINE"
);
},
{
closed = 1;
nodes = (
"-125 -123 LINE",
"-257 -123 LINE",
"-257 -164 LINE",
"-125 -164 LINE"
);
},
{
closed = 1;
nodes = (
"67 -123 LINE",
"-66 -123 LINE",
"-66 -164 LINE",
"67 -164 LINE"
);
},
{
closed = 1;
nodes = (
"258 -123 LINE",
"125 -123 LINE",
"125 -164 LINE",
"258 -164 LINE"
);
}
);
width = 0;
}
);
unicode = 1DA9D;
category = Mark;
subCategory = Nonspacing;
}
{
glyphname = F5;
layers = (
{
layerId = "B5BBCF37-8EA3-4A7F-B967-74D10E0B056C";
paths = (
{
closed = 1;
nodes = (
"-422 722 LINE",
"-316 722 LINE",
"-316 764 LINE",
"-464 764 LINE",
"-464 616 LINE",
"-422 616 LINE"
);
},
{
closed = 1;
nodes = (
"-125 764 LINE",
"-257 764 LINE",
"-257 722 LINE",
"-125 722 LINE"
);
},
{
closed = 1;
nodes = (
"67 764 LINE",
"-66 764 LINE",
"-66 722 LINE",
"67 722 LINE"
);
},
{
closed = 1;
nodes = (
"258 764 LINE",
"125 764 LINE",
"125 722 LINE",
"258 722 LINE"
);
},
{
closed = 1;
nodes = (
"423 616 LINE",
"464 616 LINE",
"464 764 LINE",
"316 764 LINE",
"316 722 LINE",
"423 722 LINE"
);
},
{
closed = 1;
nodes = (
"-464 557 LINE",
"-464 425 LINE",
"-422 425 LINE",
"-422 557 LINE"
);
},
{
closed = 1;
nodes = (
"423 557 LINE",
"423 425 LINE",
"464 425 LINE",
"464 557 LINE"
);
},
{
closed = 1;
nodes = (
"-22 296 LINE",
"-22 348 LINE",
"-133 348 LINE",
"-133 456 LINE",
"-14 456 LINE",
"-14 507 LINE",
"-199 507 LINE",
"-199 150 LINE",
"-133 150 LINE",
"-133 296 LINE"
);
},
{
closed = 1;
nodes = (
"123 375 OFFCURVE",
"109 373 OFFCURVE",
"94 371 CURVE",
"101 455 LINE",
"221 455 LINE",
"221 507 LINE",
"46 507 LINE",
"33 333 LINE",
"58 317 LINE",
"74 322 OFFCURVE",
"93 325 OFFCURVE",
"110 325 CURVE SMOOTH",
"155 325 OFFCURVE",
"178 304 OFFCURVE",
"178 264 CURVE SMOOTH",
"178 223 OFFCURVE",
"154 196 OFFCURVE",
"110 196 CURVE SMOOTH",
"83 196 OFFCURVE",
"52 205 OFFCURVE",
"28 218 CURVE",
"28 162 LINE",
"50 151 OFFCURVE",
"79 145 OFFCURVE",
"113 145 CURVE SMOOTH",
"199 145 OFFCURVE",
"244 192 OFFCURVE",
"244 267 CURVE SMOOTH",
"244 333 OFFCURVE",
"202 375 OFFCURVE",
"139 375 CURVE SMOOTH"
);
},
{
closed = 1;
nodes = (
"-464 366 LINE",
"-464 233 LINE",
"-422 233 LINE",
"-422 366 LINE"
);
},
{
closed = 1;
nodes = (
"423 366 LINE",
"423 233 LINE",
"464 233 LINE",
"464 366 LINE"
);
},
{
closed = 1;
nodes = (
"-464 174 LINE",
"-464 42 LINE",
"-422 42 LINE",
"-422 174 LINE"
);
},
{
closed = 1;
nodes = (
"423 174 LINE",
"423 42 LINE",
"464 42 LINE",
"464 174 LINE"
);
},
{
closed = 1;
nodes = (
"-316 -123 LINE",
"-422 -123 LINE",
"-422 -16 LINE",
"-464 -16 LINE",
"-464 -164 LINE",
"-316 -164 LINE"
);
},
{
closed = 1;
nodes = (
"464 -16 LINE",
"423 -16 LINE",
"423 -123 LINE",
"316 -123 LINE",
"316 -164 LINE",
"464 -164 LINE"
);
},
{
closed = 1;
nodes = (
"-125 -123 LINE",
"-257 -123 LINE",
"-257 -164 LINE",
"-125 -164 LINE"
);
},
{
closed = 1;
nodes = (
"67 -123 LINE",
"-66 -123 LINE",
"-66 -164 LINE",
"67 -164 LINE"
);
},
{
closed = 1;
nodes = (
"258 -123 LINE",
"125 -123 LINE",
"125 -164 LINE",
"258 -164 LINE"
);
}
);
width = 0;
}
);
unicode = 1DA9E;
category = Mark;
subCategory = Nonspacing;
}
{
glyphname = F6;
layers = (
{
layerId = "B5BBCF37-8EA3-4A7F-B967-74D10E0B056C";
paths = (
{
closed = 1;
nodes = (
"-422 722 LINE",
"-316 722 LINE",
"-316 764 LINE",
"-464 764 LINE",
"-464 616 LINE",
"-422 616 LINE"
);
},
{
closed = 1;
nodes = (
"-125 764 LINE",
"-257 764 LINE",
"-257 722 LINE",
"-125 722 LINE"
);
},
{
closed = 1;
nodes = (
"67 764 LINE",
"-66 764 LINE",
"-66 722 LINE",
"67 722 LINE"
);
},
{
closed = 1;
nodes = (
"258 764 LINE",
"125 764 LINE",
"125 722 LINE",
"258 722 LINE"
);
},
{
closed = 1;
nodes = (
"423 616 LINE",
"464 616 LINE",
"464 764 LINE",
"316 764 LINE",
"316 722 LINE",
"423 722 LINE"
);
},
{
closed = 1;
nodes = (
"-464 557 LINE",
"-464 425 LINE",
"-422 425 LINE",
"-422 557 LINE"
);
},
{
closed = 1;
nodes = (
"423 557 LINE",
"423 425 LINE",
"464 425 LINE",
"464 557 LINE"
);
},
{
closed = 1;
nodes = (
"23 200 OFFCURVE",
"68 145 OFFCURVE",
"139 145 CURVE SMOOTH",
"209 145 OFFCURVE",
"249 194 OFFCURVE",
"249 267 CURVE SMOOTH",
"249 335 OFFCURVE",
"215 380 OFFCURVE",
"156 380 CURVE SMOOTH",
"123 380 OFFCURVE",
"100 365 OFFCURVE",
"86 339 CURVE",
"84 339 LINE",
"87 418 OFFCURVE",
"114 462 OFFCURVE",
"183 462 CURVE SMOOTH",
"198 462 OFFCURVE",
"213 460 OFFCURVE",
"227 457 CURVE",
"227 508 LINE",
"212 511 OFFCURVE",
"195 512 OFFCURVE",
"178 512 CURVE SMOOTH",
"56 512 OFFCURVE",
"23 419 OFFCURVE",
"23 302 CURVE SMOOTH"
);
},
{
closed = 1;
nodes = (
"-22 296 LINE",
"-22 348 LINE",
"-133 348 LINE",
"-133 456 LINE",
"-14 456 LINE",
"-14 507 LINE",
"-199 507 LINE",
"-199 150 LINE",
"-133 150 LINE",
"-133 296 LINE"
);
},
{
closed = 1;
nodes = (
"-464 366 LINE",
"-464 233 LINE",
"-422 233 LINE",
"-422 366 LINE"
);
},
{
closed = 1;
nodes = (
"423 366 LINE",
"423 233 LINE",
"464 233 LINE",
"464 366 LINE"
);
},
{
closed = 1;
nodes = (
"104 196 OFFCURVE",
"88 238 OFFCURVE",
"88 276 CURVE SMOOTH",
"88 305 OFFCURVE",
"107 331 OFFCURVE",
"139 331 CURVE SMOOTH",
"169 331 OFFCURVE",
"184 308 OFFCURVE",
"184 266 CURVE SMOOTH",
"184 219 OFFCURVE",
"166 196 OFFCURVE",
"138 196 CURVE SMOOTH"
);
},
{
closed = 1;
nodes = (
"-464 174 LINE",
"-464 42 LINE",
"-422 42 LINE",
"-422 174 LINE"
);
},
{
closed = 1;
nodes = (
"423 174 LINE",
"423 42 LINE",
"464 42 LINE",
"464 174 LINE"
);
},
{
closed = 1;
nodes = (
"-316 -123 LINE",
"-422 -123 LINE",
"-422 -16 LINE",
"-464 -16 LINE",
"-464 -164 LINE",
"-316 -164 LINE"
);
},
{
closed = 1;
nodes = (
"464 -16 LINE",
"423 -16 LINE",
"423 -123 LINE",
"316 -123 LINE",
"316 -164 LINE",
"464 -164 LINE"
);
},
{
closed = 1;
nodes = (
"-125 -123 LINE",
"-257 -123 LINE",
"-257 -164 LINE",
"-125 -164 LINE"
);
},
{
closed = 1;
nodes = (
"67 -123 LINE",
"-66 -123 LINE",
"-66 -164 LINE",
"67 -164 LINE"
);
},
{
closed = 1;
nodes = (
"258 -123 LINE",
"125 -123 LINE",
"125 -164 LINE",
"258 -164 LINE"
);
}
);
width = 0;
}
);
unicode = 1DA9F;
category = Mark;
subCategory = Nonspacing;
}
{
glyphname = R10;
layers = (
{
layerId = "B5BBCF37-8EA3-4A7F-B967-74D10E0B056C";
paths = (
{
closed = 1;
nodes = (
"-422 722 LINE",
"-316 722 LINE",
"-316 764 LINE",
"-464 764 LINE",
"-464 616 LINE",
"-422 616 LINE"
);
},
{
closed = 1;
nodes = (
"-125 764 LINE",
"-257 764 LINE",
"-257 722 LINE",
"-125 722 LINE"
);
},
{
closed = 1;
nodes = (
"67 764 LINE",
"-66 764 LINE",
"-66 722 LINE",
"67 722 LINE"
);
},
{
closed = 1;
nodes = (
"258 764 LINE",
"125 764 LINE",
"125 722 LINE",
"258 722 LINE"
);
},
{
closed = 1;
nodes = (
"423 616 LINE",
"464 616 LINE",
"464 764 LINE",
"316 764 LINE",
"316 722 LINE",
"423 722 LINE"
);
},
{
closed = 1;
nodes = (
"-464 557 LINE",
"-464 425 LINE",
"-422 425 LINE",
"-422 557 LINE"
);
},
{
closed = 1;
nodes = (
"423 557 LINE",
"423 425 LINE",
"464 425 LINE",
"464 557 LINE"
);
},
{
closed = 1;
nodes = (
"367 449 OFFCURVE",
"330 512 OFFCURVE",
"254 512 CURVE SMOOTH",
"176 512 OFFCURVE",
"141 451 OFFCURVE",
"141 329 CURVE SMOOTH",
"141 200 OFFCURVE",
"180 145 OFFCURVE",
"254 145 CURVE SMOOTH",
"338 145 OFFCURVE",
"367 217 OFFCURVE",
"367 329 CURVE SMOOTH"
);
},
{
closed = 1;
nodes = (
"-339 150 LINE",
"-273 150 LINE",
"-273 293 LINE",
"-235 293 LINE",
"-161 150 LINE",
"-87 150 LINE",
"-177 308 LINE",
"-137 326 OFFCURVE",
"-114 357 OFFCURVE",
"-114 404 CURVE SMOOTH",
"-114 473 OFFCURVE",
"-157 507 OFFCURVE",
"-247 507 CURVE SMOOTH",
"-339 507 LINE"
);
},
{
closed = 1;
nodes = (
"17 507 LINE",
"-88 417 LINE",
"-52 382 LINE",
"-15 413 LINE SMOOTH",
"-4 423 OFFCURVE",
"5 431 OFFCURVE",
"10 437 CURVE",
"9 416 OFFCURVE",
"8 393 OFFCURVE",
"8 371 CURVE SMOOTH",
"8 150 LINE",
"73 150 LINE",
"73 507 LINE"
);
},
{
closed = 1;
nodes = (
"207 417 OFFCURVE",
"219 461 OFFCURVE",
"254 461 CURVE SMOOTH",
"289 461 OFFCURVE",
"302 417 OFFCURVE",
"302 329 CURVE SMOOTH",
"302 240 OFFCURVE",
"289 197 OFFCURVE",
"254 197 CURVE SMOOTH",
"219 197 OFFCURVE",
"207 240 OFFCURVE",
"207 329 CURVE SMOOTH"
);
},
{
closed = 1;
nodes = (
"-203 456 OFFCURVE",
"-181 440 OFFCURVE",
"-181 401 CURVE SMOOTH",
"-181 362 OFFCURVE",
"-203 342 OFFCURVE",
"-246 342 CURVE SMOOTH",
"-273 342 LINE",
"-273 456 LINE",
"-249 456 LINE SMOOTH"
);
},
{
closed = 1;
nodes = (
"-464 366 LINE",
"-464 233 LINE",
"-422 233 LINE",
"-422 366 LINE"
);
},
{
closed = 1;
nodes = (
"423 366 LINE",
"423 233 LINE",
"464 233 LINE",
"464 366 LINE"
);
},
{
closed = 1;
nodes = (
"-464 174 LINE",
"-464 42 LINE",
"-422 42 LINE",
"-422 174 LINE"
);
},
{
closed = 1;
nodes = (
"423 174 LINE",
"423 42 LINE",
"464 42 LINE",
"464 174 LINE"
);
},
{
closed = 1;
nodes = (
"-316 -123 LINE",
"-422 -123 LINE",
"-422 -16 LINE",
"-464 -16 LINE",
"-464 -164 LINE",
"-316 -164 LINE"
);
},
{
closed = 1;
nodes = (
"464 -16 LINE",
"423 -16 LINE",
"423 -123 LINE",
"316 -123 LINE",
"316 -164 LINE",
"464 -164 LINE"
);
},
{
closed = 1;
nodes = (
"-125 -123 LINE",
"-257 -123 LINE",
"-257 -164 LINE",
"-125 -164 LINE"
);
},
{
closed = 1;
nodes = (
"67 -123 LINE",
"-66 -123 LINE",
"-66 -164 LINE",
"67 -164 LINE"
);
},
{
closed = 1;
nodes = (
"258 -123 LINE",
"125 -123 LINE",
"125 -164 LINE",
"258 -164 LINE"
);
}
);
width = 0;
}
);
unicode = 1DAA9;
category = Mark;
subCategory = Nonspacing;
}
{
glyphname = R11;
layers = (
{
layerId = "B5BBCF37-8EA3-4A7F-B967-74D10E0B056C";
paths = (
{
closed = 1;
nodes = (
"-422 722 LINE",
"-316 722 LINE",
"-316 764 LINE",
"-464 764 LINE",
"-464 616 LINE",
"-422 616 LINE"
);
},
{
closed = 1;
nodes = (
"-125 764 LINE",
"-257 764 LINE",
"-257 722 LINE",
"-125 722 LINE"
);
},
{
closed = 1;
nodes = (
"67 764 LINE",
"-66 764 LINE",
"-66 722 LINE",
"67 722 LINE"
);
},
{
closed = 1;
nodes = (
"258 764 LINE",
"125 764 LINE",
"125 722 LINE",
"258 722 LINE"
);
},
{
closed = 1;
nodes = (
"423 616 LINE",
"464 616 LINE",
"464 764 LINE",
"316 764 LINE",
"316 722 LINE",
"423 722 LINE"
);
},
{
closed = 1;
nodes = (
"-464 557 LINE",
"-464 425 LINE",
"-422 425 LINE",
"-422 557 LINE"
);
},
{
closed = 1;
nodes = (
"423 557 LINE",
"423 425 LINE",
"464 425 LINE",
"464 557 LINE"
);
},
{
closed = 1;
nodes = (
"-299 150 LINE",
"-233 150 LINE",
"-233 293 LINE",
"-195 293 LINE",
"-121 150 LINE",
"-47 150 LINE",
"-137 308 LINE",
"-97 326 OFFCURVE",
"-74 357 OFFCURVE",
"-74 404 CURVE SMOOTH",
"-74 473 OFFCURVE",
"-117 507 OFFCURVE",
"-207 507 CURVE SMOOTH",
"-299 507 LINE"
);
},
{
closed = 1;
nodes = (
"57 507 LINE",
"-48 417 LINE",
"-12 382 LINE",
"25 413 LINE SMOOTH",
"36 423 OFFCURVE",
"45 431 OFFCURVE",
"50 437 CURVE",
"49 416 OFFCURVE",
"48 393 OFFCURVE",
"48 371 CURVE SMOOTH",
"48 150 LINE",
"113 150 LINE",
"113 507 LINE"
);
},
{
closed = 1;
nodes = (
"247 507 LINE",
"142 417 LINE",
"178 382 LINE",
"215 413 LINE SMOOTH",
"226 423 OFFCURVE",
"235 431 OFFCURVE",
"240 437 CURVE",
"239 416 OFFCURVE",
"238 393 OFFCURVE",
"238 371 CURVE SMOOTH",
"238 150 LINE",
"303 150 LINE",
"303 507 LINE"
);
},
{
closed = 1;
nodes = (
"-163 456 OFFCURVE",
"-141 440 OFFCURVE",
"-141 401 CURVE SMOOTH",
"-141 362 OFFCURVE",
"-163 342 OFFCURVE",
"-206 342 CURVE SMOOTH",
"-233 342 LINE",
"-233 456 LINE",
"-209 456 LINE SMOOTH"
);
},
{
closed = 1;
nodes = (
"-464 366 LINE",
"-464 233 LINE",
"-422 233 LINE",
"-422 366 LINE"
);
},
{
closed = 1;
nodes = (
"423 366 LINE",
"423 233 LINE",
"464 233 LINE",
"464 366 LINE"
);
},
{
closed = 1;
nodes = (
"-464 174 LINE",
"-464 42 LINE",
"-422 42 LINE",
"-422 174 LINE"
);
},
{
closed = 1;
nodes = (
"423 174 LINE",
"423 42 LINE",
"464 42 LINE",
"464 174 LINE"
);
},
{
closed = 1;
nodes = (
"-316 -123 LINE",
"-422 -123 LINE",
"-422 -16 LINE",
"-464 -16 LINE",
"-464 -164 LINE",
"-316 -164 LINE"
);
},
{
closed = 1;
nodes = (
"464 -16 LINE",
"423 -16 LINE",
"423 -123 LINE",
"316 -123 LINE",
"316 -164 LINE",
"464 -164 LINE"
);
},
{
closed = 1;
nodes = (
"-125 -123 LINE",
"-257 -123 LINE",
"-257 -164 LINE",
"-125 -164 LINE"
);
},
{
closed = 1;
nodes = (
"67 -123 LINE",
"-66 -123 LINE",
"-66 -164 LINE",
"67 -164 LINE"
);
},
{
closed = 1;
nodes = (
"258 -123 LINE",
"125 -123 LINE",
"125 -164 LINE",
"258 -164 LINE"
);
}
);
width = 0;
}
);
unicode = 1DAAA;
category = Mark;
subCategory = Nonspacing;
}
{
glyphname = R12;
layers = (
{
layerId = "B5BBCF37-8EA3-4A7F-B967-74D10E0B056C";
paths = (
{
closed = 1;
nodes = (
"-422 722 LINE",
"-316 722 LINE",
"-316 764 LINE",
"-464 764 LINE",
"-464 616 LINE",
"-422 616 LINE"
);
},
{
closed = 1;
nodes = (
"-125 764 LINE",
"-257 764 LINE",
"-257 722 LINE",
"-125 722 LINE"
);
},
{
closed = 1;
nodes = (
"67 764 LINE",
"-66 764 LINE",
"-66 722 LINE",
"67 722 LINE"
);
},
{
closed = 1;
nodes = (
"258 764 LINE",
"125 764 LINE",
"125 722 LINE",
"258 722 LINE"
);
},
{
closed = 1;
nodes = (
"423 616 LINE",
"464 616 LINE",
"464 764 LINE",
"316 764 LINE",
"316 722 LINE",
"423 722 LINE"
);
},
{
closed = 1;
nodes = (
"-464 557 LINE",
"-464 425 LINE",
"-422 425 LINE",
"-422 557 LINE"
);
},
{
closed = 1;
nodes = (
"423 557 LINE",
"423 425 LINE",
"464 425 LINE",
"464 557 LINE"
);
},
{
closed = 1;
nodes = (
"218 202 LINE",
"218 205 LINE",
"276 270 LINE SMOOTH",
"331 327 OFFCURVE",
"355 365 OFFCURVE",
"355 418 CURVE SMOOTH",
"355 474 OFFCURVE",
"313 512 OFFCURVE",
"248 512 CURVE SMOOTH",
"202 512 OFFCURVE",
"171 497 OFFCURVE",
"139 468 CURVE",
"173 429 LINE",
"197 451 OFFCURVE",
"217 461 OFFCURVE",
"242 461 CURVE SMOOTH",
"272 461 OFFCURVE",
"289 443 OFFCURVE",
"289 414 CURVE SMOOTH",
"289 376 OFFCURVE",
"273 350 OFFCURVE",
"222 290 CURVE SMOOTH",
"139 194 LINE",
"139 150 LINE",
"364 150 LINE",
"364 202 LINE"
);
},
{
closed = 1;
nodes = (
"-339 150 LINE",
"-273 150 LINE",
"-273 293 LINE",
"-235 293 LINE",
"-161 150 LINE",
"-87 150 LINE",
"-177 308 LINE",
"-137 326 OFFCURVE",
"-114 357 OFFCURVE",
"-114 404 CURVE SMOOTH",
"-114 473 OFFCURVE",
"-157 507 OFFCURVE",
"-247 507 CURVE SMOOTH",
"-339 507 LINE"
);
},
{
closed = 1;
nodes = (
"17 507 LINE",
"-88 417 LINE",
"-52 382 LINE",
"-15 413 LINE SMOOTH",
"-4 423 OFFCURVE",
"5 431 OFFCURVE",
"10 437 CURVE",
"9 416 OFFCURVE",
"8 393 OFFCURVE",
"8 371 CURVE SMOOTH",
"8 150 LINE",
"73 150 LINE",
"73 507 LINE"
);
},
{
closed = 1;
nodes = (
"-203 456 OFFCURVE",
"-181 440 OFFCURVE",
"-181 401 CURVE SMOOTH",
"-181 362 OFFCURVE",
"-203 342 OFFCURVE",
"-246 342 CURVE SMOOTH",
"-273 342 LINE",
"-273 456 LINE",
"-249 456 LINE SMOOTH"
);
},
{
closed = 1;
nodes = (
"-464 366 LINE",
"-464 233 LINE",
"-422 233 LINE",
"-422 366 LINE"
);
},
{
closed = 1;
nodes = (
"423 366 LINE",
"423 233 LINE",
"464 233 LINE",
"464 366 LINE"
);
},
{
closed = 1;
nodes = (
"-464 174 LINE",
"-464 42 LINE",
"-422 42 LINE",
"-422 174 LINE"
);
},
{
closed = 1;
nodes = (
"423 174 LINE",
"423 42 LINE",
"464 42 LINE",
"464 174 LINE"
);
},
{
closed = 1;
nodes = (
"-316 -123 LINE",
"-422 -123 LINE",
"-422 -16 LINE",
"-464 -16 LINE",
"-464 -164 LINE",
"-316 -164 LINE"
);
},
{
closed = 1;
nodes = (
"464 -16 LINE",
"423 -16 LINE",
"423 -123 LINE",
"316 -123 LINE",
"316 -164 LINE",
"464 -164 LINE"
);
},
{
closed = 1;
nodes = (
"-125 -123 LINE",
"-257 -123 LINE",
"-257 -164 LINE",
"-125 -164 LINE"
);
},
{
closed = 1;
nodes = (
"67 -123 LINE",
"-66 -123 LINE",
"-66 -164 LINE",
"67 -164 LINE"
);
},
{
closed = 1;
nodes = (
"258 -123 LINE",
"125 -123 LINE",
"125 -164 LINE",
"258 -164 LINE"
);
}
);
width = 0;
}
);
unicode = 1DAAB;
category = Mark;
subCategory = Nonspacing;
}
{
glyphname = R13;
layers = (
{
layerId = "B5BBCF37-8EA3-4A7F-B967-74D10E0B056C";
paths = (
{
closed = 1;
nodes = (
"-422 722 LINE",
"-316 722 LINE",
"-316 764 LINE",
"-464 764 LINE",
"-464 616 LINE",
"-422 616 LINE"
);
},
{
closed = 1;
nodes = (
"-125 764 LINE",
"-257 764 LINE",
"-257 722 LINE",
"-125 722 LINE"
);
},
{
closed = 1;
nodes = (
"67 764 LINE",
"-66 764 LINE",
"-66 722 LINE",
"67 722 LINE"
);
},
{
closed = 1;
nodes = (
"258 764 LINE",
"125 764 LINE",
"125 722 LINE",
"258 722 LINE"
);
},
{
closed = 1;
nodes = (
"423 616 LINE",
"464 616 LINE",
"464 764 LINE",
"316 764 LINE",
"316 722 LINE",
"423 722 LINE"
);
},
{
closed = 1;
nodes = (
"-464 557 LINE",
"-464 425 LINE",
"-422 425 LINE",
"-422 557 LINE"
);
},
{
closed = 1;
nodes = (
"423 557 LINE",
"423 425 LINE",
"464 425 LINE",
"464 557 LINE"
);
},
{
closed = 1;
nodes = (
"355 479 OFFCURVE",
"315 512 OFFCURVE",
"248 512 CURVE SMOOTH",
"204 512 OFFCURVE",
"171 501 OFFCURVE",
"140 478 CURVE",
"168 436 LINE",
"190 452 OFFCURVE",
"211 462 OFFCURVE",
"239 462 CURVE SMOOTH",
"273 462 OFFCURVE",
"291 445 OFFCURVE",
"291 416 CURVE SMOOTH",
"291 381 OFFCURVE",
"266 359 OFFCURVE",
"214 359 CURVE SMOOTH",
"189 359 LINE",
"189 309 LINE",
"212 309 LINE SMOOTH",
"271 309 OFFCURVE",
"295 291 OFFCURVE",
"295 254 CURVE SMOOTH",
"295 218 OFFCURVE",
"275 196 OFFCURVE",
"227 196 CURVE SMOOTH",
"199 196 OFFCURVE",
"168 203 OFFCURVE",
"140 217 CURVE",
"140 162 LINE",
"170 150 OFFCURVE",
"198 145 OFFCURVE",
"234 145 CURVE SMOOTH",
"319 145 OFFCURVE",
"364 188 OFFCURVE",
"364 251 CURVE SMOOTH",
"364 298 OFFCURVE",
"337 328 OFFCURVE",
"284 336 CURVE",
"284 338 LINE",
"329 351 OFFCURVE",
"355 381 OFFCURVE",
"355 424 CURVE SMOOTH"
);
},
{
closed = 1;
nodes = (
"-339 150 LINE",
"-273 150 LINE",
"-273 293 LINE",
"-235 293 LINE",
"-161 150 LINE",
"-87 150 LINE",
"-177 308 LINE",
"-137 326 OFFCURVE",
"-114 357 OFFCURVE",
"-114 404 CURVE SMOOTH",
"-114 473 OFFCURVE",
"-157 507 OFFCURVE",
"-247 507 CURVE SMOOTH",
"-339 507 LINE"
);
},
{
closed = 1;
nodes = (
"17 507 LINE",
"-88 417 LINE",
"-52 382 LINE",
"-15 413 LINE SMOOTH",
"-4 423 OFFCURVE",
"5 431 OFFCURVE",
"10 437 CURVE",
"9 416 OFFCURVE",
"8 393 OFFCURVE",
"8 371 CURVE SMOOTH",
"8 150 LINE",
"73 150 LINE",
"73 507 LINE"
);
},
{
closed = 1;
nodes = (
"-203 456 OFFCURVE",
"-181 440 OFFCURVE",
"-181 401 CURVE SMOOTH",
"-181 362 OFFCURVE",
"-203 342 OFFCURVE",
"-246 342 CURVE SMOOTH",
"-273 342 LINE",
"-273 456 LINE",
"-249 456 LINE SMOOTH"
);
},
{
closed = 1;
nodes = (
"-464 366 LINE",
"-464 233 LINE",
"-422 233 LINE",
"-422 366 LINE"
);
},
{
closed = 1;
nodes = (
"423 366 LINE",
"423 233 LINE",
"464 233 LINE",
"464 366 LINE"
);
},
{
closed = 1;
nodes = (
"-464 174 LINE",
"-464 42 LINE",
"-422 42 LINE",
"-422 174 LINE"
);
},
{
closed = 1;
nodes = (
"423 174 LINE",
"423 42 LINE",
"464 42 LINE",
"464 174 LINE"
);
},
{
closed = 1;
nodes = (
"-316 -123 LINE",
"-422 -123 LINE",
"-422 -16 LINE",
"-464 -16 LINE",
"-464 -164 LINE",
"-316 -164 LINE"
);
},
{
closed = 1;
nodes = (
"464 -16 LINE",
"423 -16 LINE",
"423 -123 LINE",
"316 -123 LINE",
"316 -164 LINE",
"464 -164 LINE"
);
},
{
closed = 1;
nodes = (
"-125 -123 LINE",
"-257 -123 LINE",
"-257 -164 LINE",
"-125 -164 LINE"
);
},
{
closed = 1;
nodes = (
"67 -123 LINE",
"-66 -123 LINE",
"-66 -164 LINE",
"67 -164 LINE"
);
},
{
closed = 1;
nodes = (
"258 -123 LINE",
"125 -123 LINE",
"125 -164 LINE",
"258 -164 LINE"
);
}
);
width = 0;
}
);
unicode = 1DAAC;
category = Mark;
subCategory = Nonspacing;
}
{
glyphname = R14;
layers = (
{
layerId = "B5BBCF37-8EA3-4A7F-B967-74D10E0B056C";
paths = (
{
closed = 1;
nodes = (
"-422 722 LINE",
"-316 722 LINE",
"-316 764 LINE",
"-464 764 LINE",
"-464 616 LINE",
"-422 616 LINE"
);
},
{
closed = 1;
nodes = (
"-125 764 LINE",
"-257 764 LINE",
"-257 722 LINE",
"-125 722 LINE"
);
},
{
closed = 1;
nodes = (
"67 764 LINE",
"-66 764 LINE",
"-66 722 LINE",
"67 722 LINE"
);
},
{
closed = 1;
nodes = (
"258 764 LINE",
"125 764 LINE",
"125 722 LINE",
"258 722 LINE"
);
},
{
closed = 1;
nodes = (
"423 616 LINE",
"464 616 LINE",
"464 764 LINE",
"316 764 LINE",
"316 722 LINE",
"423 722 LINE"
);
},
{
closed = 1;
nodes = (
"-464 557 LINE",
"-464 425 LINE",
"-422 425 LINE",
"-422 557 LINE"
);
},
{
closed = 1;
nodes = (
"423 557 LINE",
"423 425 LINE",
"464 425 LINE",
"464 557 LINE"
);
},
{
closed = 1;
nodes = (
"338 274 LINE",
"338 509 LINE",
"273 509 LINE",
"129 272 LINE",
"129 225 LINE",
"274 225 LINE",
"274 150 LINE",
"338 150 LINE",
"338 225 LINE",
"381 225 LINE",
"381 274 LINE"
);
},
{
closed = 1;
nodes = (
"-339 150 LINE",
"-273 150 LINE",
"-273 293 LINE",
"-235 293 LINE",
"-161 150 LINE",
"-87 150 LINE",
"-177 308 LINE",
"-137 326 OFFCURVE",
"-114 357 OFFCURVE",
"-114 404 CURVE SMOOTH",
"-114 473 OFFCURVE",
"-157 507 OFFCURVE",
"-247 507 CURVE SMOOTH",
"-339 507 LINE"
);
},
{
closed = 1;
nodes = (
"17 507 LINE",
"-88 417 LINE",
"-52 382 LINE",
"-15 413 LINE SMOOTH",
"-4 423 OFFCURVE",
"5 431 OFFCURVE",
"10 437 CURVE",
"9 416 OFFCURVE",
"8 393 OFFCURVE",
"8 371 CURVE SMOOTH",
"8 150 LINE",
"73 150 LINE",
"73 507 LINE"
);
},
{
closed = 1;
nodes = (
"-203 456 OFFCURVE",
"-181 440 OFFCURVE",
"-181 401 CURVE SMOOTH",
"-181 362 OFFCURVE",
"-203 342 OFFCURVE",
"-246 342 CURVE SMOOTH",
"-273 342 LINE",
"-273 456 LINE",
"-249 456 LINE SMOOTH"
);
},
{
closed = 1;
nodes = (
"254 392 LINE SMOOTH",
"261 404 OFFCURVE",
"268 418 OFFCURVE",
"274 432 CURVE",
"276 432 LINE",
"275 421 OFFCURVE",
"273 387 OFFCURVE",
"273 370 CURVE SMOOTH",
"273 274 LINE",
"185 274 LINE"
);
},
{
closed = 1;
nodes = (
"-464 366 LINE",
"-464 233 LINE",
"-422 233 LINE",
"-422 366 LINE"
);
},
{
closed = 1;
nodes = (
"423 366 LINE",
"423 233 LINE",
"464 233 LINE",
"464 366 LINE"
);
},
{
closed = 1;
nodes = (
"-464 174 LINE",
"-464 42 LINE",
"-422 42 LINE",
"-422 174 LINE"
);
},
{
closed = 1;
nodes = (
"423 174 LINE",
"423 42 LINE",
"464 42 LINE",
"464 174 LINE"
);
},
{
closed = 1;
nodes = (
"-316 -123 LINE",
"-422 -123 LINE",
"-422 -16 LINE",
"-464 -16 LINE",
"-464 -164 LINE",
"-316 -164 LINE"
);
},
{
closed = 1;
nodes = (
"464 -16 LINE",
"423 -16 LINE",
"423 -123 LINE",
"316 -123 LINE",
"316 -164 LINE",
"464 -164 LINE"
);
},
{
closed = 1;
nodes = (
"-125 -123 LINE",
"-257 -123 LINE",
"-257 -164 LINE",
"-125 -164 LINE"
);
},
{
closed = 1;
nodes = (
"67 -123 LINE",
"-66 -123 LINE",
"-66 -164 LINE",
"67 -164 LINE"
);
},
{
closed = 1;
nodes = (
"258 -123 LINE",
"125 -123 LINE",
"125 -164 LINE",
"258 -164 LINE"
);
}
);
width = 0;
}
);
unicode = 1DAAD;
category = Mark;
subCategory = Nonspacing;
}
{
glyphname = R15;
layers = (
{
layerId = "B5BBCF37-8EA3-4A7F-B967-74D10E0B056C";
paths = (
{
closed = 1;
nodes = (
"-422 722 LINE",
"-316 722 LINE",
"-316 764 LINE",
"-464 764 LINE",
"-464 616 LINE",
"-422 616 LINE"
);
},
{
closed = 1;
nodes = (
"-125 764 LINE",
"-257 764 LINE",
"-257 722 LINE",
"-125 722 LINE"
);
},
{
closed = 1;
nodes = (
"67 764 LINE",
"-66 764 LINE",
"-66 722 LINE",
"67 722 LINE"
);
},
{
closed = 1;
nodes = (
"258 764 LINE",
"125 764 LINE",
"125 722 LINE",
"258 722 LINE"
);
},
{
closed = 1;
nodes = (
"423 616 LINE",
"464 616 LINE",
"464 764 LINE",
"316 764 LINE",
"316 722 LINE",
"423 722 LINE"
);
},
{
closed = 1;
nodes = (
"-464 557 LINE",
"-464 425 LINE",
"-422 425 LINE",
"-422 557 LINE"
);
},
{
closed = 1;
nodes = (
"423 557 LINE",
"423 425 LINE",
"464 425 LINE",
"464 557 LINE"
);
},
{
closed = 1;
nodes = (
"-339 150 LINE",
"-273 150 LINE",
"-273 293 LINE",
"-235 293 LINE",
"-161 150 LINE",
"-87 150 LINE",
"-177 308 LINE",
"-137 326 OFFCURVE",
"-114 357 OFFCURVE",
"-114 404 CURVE SMOOTH",
"-114 473 OFFCURVE",
"-157 507 OFFCURVE",
"-247 507 CURVE SMOOTH",
"-339 507 LINE"
);
},
{
closed = 1;
nodes = (
"17 507 LINE",
"-88 417 LINE",
"-52 382 LINE",
"-15 413 LINE SMOOTH",
"-4 423 OFFCURVE",
"5 431 OFFCURVE",
"10 437 CURVE",
"9 416 OFFCURVE",
"8 393 OFFCURVE",
"8 371 CURVE SMOOTH",
"8 150 LINE",
"73 150 LINE",
"73 507 LINE"
);
},
{
closed = 1;
nodes = (
"233 375 OFFCURVE",
"219 373 OFFCURVE",
"204 371 CURVE",
"211 455 LINE",
"331 455 LINE",
"331 507 LINE",
"156 507 LINE",
"143 333 LINE",
"168 317 LINE",
"184 322 OFFCURVE",
"203 325 OFFCURVE",
"220 325 CURVE SMOOTH",
"265 325 OFFCURVE",
"288 304 OFFCURVE",
"288 264 CURVE SMOOTH",
"288 223 OFFCURVE",
"264 196 OFFCURVE",
"220 196 CURVE SMOOTH",
"193 196 OFFCURVE",
"162 205 OFFCURVE",
"138 218 CURVE",
"138 162 LINE",
"160 151 OFFCURVE",
"189 145 OFFCURVE",
"223 145 CURVE SMOOTH",
"309 145 OFFCURVE",
"354 192 OFFCURVE",
"354 267 CURVE SMOOTH",
"354 333 OFFCURVE",
"312 375 OFFCURVE",
"249 375 CURVE SMOOTH"
);
},
{
closed = 1;
nodes = (
"-203 456 OFFCURVE",
"-181 440 OFFCURVE",
"-181 401 CURVE SMOOTH",
"-181 362 OFFCURVE",
"-203 342 OFFCURVE",
"-246 342 CURVE SMOOTH",
"-273 342 LINE",
"-273 456 LINE",
"-249 456 LINE SMOOTH"
);
},
{
closed = 1;
nodes = (
"-464 366 LINE",
"-464 233 LINE",
"-422 233 LINE",
"-422 366 LINE"
);
},
{
closed = 1;
nodes = (
"423 366 LINE",
"423 233 LINE",
"464 233 LINE",
"464 366 LINE"
);
},
{
closed = 1;
nodes = (
"-464 174 LINE",
"-464 42 LINE",
"-422 42 LINE",
"-422 174 LINE"
);
},
{
closed = 1;
nodes = (
"423 174 LINE",
"423 42 LINE",
"464 42 LINE",
"464 174 LINE"
);
},
{
closed = 1;
nodes = (
"-316 -123 LINE",
"-422 -123 LINE",
"-422 -16 LINE",
"-464 -16 LINE",
"-464 -164 LINE",
"-316 -164 LINE"
);
},
{
closed = 1;
nodes = (
"464 -16 LINE",
"423 -16 LINE",
"423 -123 LINE",
"316 -123 LINE",
"316 -164 LINE",
"464 -164 LINE"
);
},
{
closed = 1;
nodes = (
"-125 -123 LINE",
"-257 -123 LINE",
"-257 -164 LINE",
"-125 -164 LINE"
);
},
{
closed = 1;
nodes = (
"67 -123 LINE",
"-66 -123 LINE",
"-66 -164 LINE",
"67 -164 LINE"
);
},
{
closed = 1;
nodes = (
"258 -123 LINE",
"125 -123 LINE",
"125 -164 LINE",
"258 -164 LINE"
);
}
);
width = 0;
}
);
unicode = 1DAAE;
category = Mark;
subCategory = Nonspacing;
}
{
glyphname = R16;
layers = (
{
layerId = "B5BBCF37-8EA3-4A7F-B967-74D10E0B056C";
paths = (
{
closed = 1;
nodes = (
"-422 722 LINE",
"-316 722 LINE",
"-316 764 LINE",
"-464 764 LINE",
"-464 616 LINE",
"-422 616 LINE"
);
},
{
closed = 1;
nodes = (
"-125 764 LINE",
"-257 764 LINE",
"-257 722 LINE",
"-125 722 LINE"
);
},
{
closed = 1;
nodes = (
"67 764 LINE",
"-66 764 LINE",
"-66 722 LINE",
"67 722 LINE"
);
},
{
closed = 1;
nodes = (
"258 764 LINE",
"125 764 LINE",
"125 722 LINE",
"258 722 LINE"
);
},
{
closed = 1;
nodes = (
"423 616 LINE",
"464 616 LINE",
"464 764 LINE",
"316 764 LINE",
"316 722 LINE",
"423 722 LINE"
);
},
{
closed = 1;
nodes = (
"-464 557 LINE",
"-464 425 LINE",
"-422 425 LINE",
"-422 557 LINE"
);
},
{
closed = 1;
nodes = (
"423 557 LINE",
"423 425 LINE",
"464 425 LINE",
"464 557 LINE"
);
},
{
closed = 1;
nodes = (
"122 200 OFFCURVE",
"167 145 OFFCURVE",
"238 145 CURVE SMOOTH",
"308 145 OFFCURVE",
"348 194 OFFCURVE",
"348 267 CURVE SMOOTH",
"348 335 OFFCURVE",
"314 380 OFFCURVE",
"255 380 CURVE SMOOTH",
"222 380 OFFCURVE",
"199 365 OFFCURVE",
"185 339 CURVE",
"183 339 LINE",
"186 418 OFFCURVE",
"213 462 OFFCURVE",
"282 462 CURVE SMOOTH",
"297 462 OFFCURVE",
"312 460 OFFCURVE",
"326 457 CURVE",
"326 508 LINE",
"311 511 OFFCURVE",
"294 512 OFFCURVE",
"277 512 CURVE SMOOTH",
"155 512 OFFCURVE",
"122 419 OFFCURVE",
"122 302 CURVE SMOOTH"
);
},
{
closed = 1;
nodes = (
"-350 150 LINE",
"-284 150 LINE",
"-284 293 LINE",
"-246 293 LINE",
"-172 150 LINE",
"-98 150 LINE",
"-188 308 LINE",
"-148 326 OFFCURVE",
"-125 357 OFFCURVE",
"-125 404 CURVE SMOOTH",
"-125 473 OFFCURVE",
"-168 507 OFFCURVE",
"-258 507 CURVE SMOOTH",
"-350 507 LINE"
);
},
{
closed = 1;
nodes = (
"7 507 LINE",
"-98 417 LINE",
"-62 382 LINE",
"-25 413 LINE SMOOTH",
"-14 423 OFFCURVE",
"-5 431 OFFCURVE",
"0 437 CURVE",
"-1 416 OFFCURVE",
"-2 393 OFFCURVE",
"-2 371 CURVE SMOOTH",
"-2 150 LINE",
"63 150 LINE",
"63 507 LINE"
);
},
{
closed = 1;
nodes = (
"-214 456 OFFCURVE",
"-192 440 OFFCURVE",
"-192 401 CURVE SMOOTH",
"-192 362 OFFCURVE",
"-214 342 OFFCURVE",
"-257 342 CURVE SMOOTH",
"-284 342 LINE",
"-284 456 LINE",
"-260 456 LINE SMOOTH"
);
},
{
closed = 1;
nodes = (
"-464 366 LINE",
"-464 233 LINE",
"-422 233 LINE",
"-422 366 LINE"
);
},
{
closed = 1;
nodes = (
"423 366 LINE",
"423 233 LINE",
"464 233 LINE",
"464 366 LINE"
);
},
{
closed = 1;
nodes = (
"203 196 OFFCURVE",
"187 238 OFFCURVE",
"187 276 CURVE SMOOTH",
"187 305 OFFCURVE",
"206 331 OFFCURVE",
"238 331 CURVE SMOOTH",
"268 331 OFFCURVE",
"283 308 OFFCURVE",
"283 266 CURVE SMOOTH",
"283 219 OFFCURVE",
"265 196 OFFCURVE",
"237 196 CURVE SMOOTH"
);
},
{
closed = 1;
nodes = (
"-464 174 LINE",
"-464 42 LINE",
"-422 42 LINE",
"-422 174 LINE"
);
},
{
closed = 1;
nodes = (
"423 174 LINE",
"423 42 LINE",
"464 42 LINE",
"464 174 LINE"
);
},
{
closed = 1;
nodes = (
"-316 -123 LINE",
"-422 -123 LINE",
"-422 -16 LINE",
"-464 -16 LINE",
"-464 -164 LINE",
"-316 -164 LINE"
);
},
{
closed = 1;
nodes = (
"464 -16 LINE",
"423 -16 LINE",
"423 -123 LINE",
"316 -123 LINE",
"316 -164 LINE",
"464 -164 LINE"
);
},
{
closed = 1;
nodes = (
"-125 -123 LINE",
"-257 -123 LINE",
"-257 -164 LINE",
"-125 -164 LINE"
);
},
{
closed = 1;
nodes = (
"67 -123 LINE",
"-66 -123 LINE",
"-66 -164 LINE",
"67 -164 LINE"
);
},
{
closed = 1;
nodes = (
"258 -123 LINE",
"125 -123 LINE",
"125 -164 LINE",
"258 -164 LINE"
);
}
);
width = 0;
}
);
unicode = 1DAAF;
category = Mark;
subCategory = Nonspacing;
}
{
glyphname = R2;
layers = (
{
layerId = "B5BBCF37-8EA3-4A7F-B967-74D10E0B056C";
paths = (
{
closed = 1;
nodes = (
"-422 722 LINE",
"-316 722 LINE",
"-316 764 LINE",
"-464 764 LINE",
"-464 616 LINE",
"-422 616 LINE"
);
},
{
closed = 1;
nodes = (
"-125 764 LINE",
"-257 764 LINE",
"-257 722 LINE",
"-125 722 LINE"
);
},
{
closed = 1;
nodes = (
"67 764 LINE",
"-66 764 LINE",
"-66 722 LINE",
"67 722 LINE"
);
},
{
closed = 1;
nodes = (
"258 764 LINE",
"125 764 LINE",
"125 722 LINE",
"258 722 LINE"
);
},
{
closed = 1;
nodes = (
"423 616 LINE",
"464 616 LINE",
"464 764 LINE",
"316 764 LINE",
"316 722 LINE",
"423 722 LINE"
);
},
{
closed = 1;
nodes = (
"-464 557 LINE",
"-464 425 LINE",
"-422 425 LINE",
"-422 557 LINE"
);
},
{
closed = 1;
nodes = (
"423 557 LINE",
"423 425 LINE",
"464 425 LINE",
"464 557 LINE"
);
},
{
closed = 1;
nodes = (
"118 202 LINE",
"118 205 LINE",
"176 270 LINE SMOOTH",
"231 327 OFFCURVE",
"255 365 OFFCURVE",
"255 418 CURVE SMOOTH",
"255 474 OFFCURVE",
"213 512 OFFCURVE",
"148 512 CURVE SMOOTH",
"102 512 OFFCURVE",
"71 497 OFFCURVE",
"39 468 CURVE",
"73 429 LINE",
"97 451 OFFCURVE",
"117 461 OFFCURVE",
"142 461 CURVE SMOOTH",
"172 461 OFFCURVE",
"189 443 OFFCURVE",
"189 414 CURVE SMOOTH",
"189 376 OFFCURVE",
"173 350 OFFCURVE",
"122 290 CURVE SMOOTH",
"39 194 LINE",
"39 150 LINE",
"264 150 LINE",
"264 202 LINE"
);
},
{
closed = 1;
nodes = (
"-239 150 LINE",
"-173 150 LINE",
"-173 293 LINE",
"-135 293 LINE",
"-61 150 LINE",
"13 150 LINE",
"-77 308 LINE",
"-37 326 OFFCURVE",
"-14 357 OFFCURVE",
"-14 404 CURVE SMOOTH",
"-14 473 OFFCURVE",
"-57 507 OFFCURVE",
"-147 507 CURVE SMOOTH",
"-239 507 LINE"
);
},
{
closed = 1;
nodes = (
"-103 456 OFFCURVE",
"-81 440 OFFCURVE",
"-81 401 CURVE SMOOTH",
"-81 362 OFFCURVE",
"-103 342 OFFCURVE",
"-146 342 CURVE SMOOTH",
"-173 342 LINE",
"-173 456 LINE",
"-149 456 LINE SMOOTH"
);
},
{
closed = 1;
nodes = (
"-464 366 LINE",
"-464 233 LINE",
"-422 233 LINE",
"-422 366 LINE"
);
},
{
closed = 1;
nodes = (
"423 366 LINE",
"423 233 LINE",
"464 233 LINE",
"464 366 LINE"
);
},
{
closed = 1;
nodes = (
"-464 174 LINE",
"-464 42 LINE",
"-422 42 LINE",
"-422 174 LINE"
);
},
{
closed = 1;
nodes = (
"423 174 LINE",
"423 42 LINE",
"464 42 LINE",
"464 174 LINE"
);
},
{
closed = 1;
nodes = (
"-316 -123 LINE",
"-422 -123 LINE",
"-422 -16 LINE",
"-464 -16 LINE",
"-464 -164 LINE",
"-316 -164 LINE"
);
},
{
closed = 1;
nodes = (
"464 -16 LINE",
"423 -16 LINE",
"423 -123 LINE",
"316 -123 LINE",
"316 -164 LINE",
"464 -164 LINE"
);
},
{
closed = 1;
nodes = (
"-125 -123 LINE",
"-257 -123 LINE",
"-257 -164 LINE",
"-125 -164 LINE"
);
},
{
closed = 1;
nodes = (
"67 -123 LINE",
"-66 -123 LINE",
"-66 -164 LINE",
"67 -164 LINE"
);
},
{
closed = 1;
nodes = (
"258 -123 LINE",
"125 -123 LINE",
"125 -164 LINE",
"258 -164 LINE"
);
}
);
width = 0;
}
);
unicode = 1DAA1;
category = Mark;
subCategory = Nonspacing;
}
{
glyphname = R3;
layers = (
{
layerId = "B5BBCF37-8EA3-4A7F-B967-74D10E0B056C";
paths = (
{
closed = 1;
nodes = (
"-422 722 LINE",
"-316 722 LINE",
"-316 764 LINE",
"-464 764 LINE",
"-464 616 LINE",
"-422 616 LINE"
);
},
{
closed = 1;
nodes = (
"-125 764 LINE",
"-257 764 LINE",
"-257 722 LINE",
"-125 722 LINE"
);
},
{
closed = 1;
nodes = (
"67 764 LINE",
"-66 764 LINE",
"-66 722 LINE",
"67 722 LINE"
);
},
{
closed = 1;
nodes = (
"258 764 LINE",
"125 764 LINE",
"125 722 LINE",
"258 722 LINE"
);
},
{
closed = 1;
nodes = (
"423 616 LINE",
"464 616 LINE",
"464 764 LINE",
"316 764 LINE",
"316 722 LINE",
"423 722 LINE"
);
},
{
closed = 1;
nodes = (
"-464 557 LINE",
"-464 425 LINE",
"-422 425 LINE",
"-422 557 LINE"
);
},
{
closed = 1;
nodes = (
"423 557 LINE",
"423 425 LINE",
"464 425 LINE",
"464 557 LINE"
);
},
{
closed = 1;
nodes = (
"255 479 OFFCURVE",
"215 512 OFFCURVE",
"148 512 CURVE SMOOTH",
"104 512 OFFCURVE",
"71 501 OFFCURVE",
"40 478 CURVE",
"68 436 LINE",
"90 452 OFFCURVE",
"111 462 OFFCURVE",
"139 462 CURVE SMOOTH",
"173 462 OFFCURVE",
"191 445 OFFCURVE",
"191 416 CURVE SMOOTH",
"191 381 OFFCURVE",
"166 359 OFFCURVE",
"114 359 CURVE SMOOTH",
"89 359 LINE",
"89 309 LINE",
"112 309 LINE SMOOTH",
"171 309 OFFCURVE",
"195 291 OFFCURVE",
"195 254 CURVE SMOOTH",
"195 218 OFFCURVE",
"175 196 OFFCURVE",
"127 196 CURVE SMOOTH",
"99 196 OFFCURVE",
"68 203 OFFCURVE",
"40 217 CURVE",
"40 162 LINE",
"70 150 OFFCURVE",
"98 145 OFFCURVE",
"134 145 CURVE SMOOTH",
"219 145 OFFCURVE",
"264 188 OFFCURVE",
"264 251 CURVE SMOOTH",
"264 298 OFFCURVE",
"237 328 OFFCURVE",
"184 336 CURVE",
"184 338 LINE",
"229 351 OFFCURVE",
"255 381 OFFCURVE",
"255 424 CURVE SMOOTH"
);
},
{
closed = 1;
nodes = (
"-239 150 LINE",
"-173 150 LINE",
"-173 293 LINE",
"-135 293 LINE",
"-61 150 LINE",
"13 150 LINE",
"-77 308 LINE",
"-37 326 OFFCURVE",
"-14 357 OFFCURVE",
"-14 404 CURVE SMOOTH",
"-14 473 OFFCURVE",
"-57 507 OFFCURVE",
"-147 507 CURVE SMOOTH",
"-239 507 LINE"
);
},
{
closed = 1;
nodes = (
"-103 456 OFFCURVE",
"-81 440 OFFCURVE",
"-81 401 CURVE SMOOTH",
"-81 362 OFFCURVE",
"-103 342 OFFCURVE",
"-146 342 CURVE SMOOTH",
"-173 342 LINE",
"-173 456 LINE",
"-149 456 LINE SMOOTH"
);
},
{
closed = 1;
nodes = (
"-464 366 LINE",
"-464 233 LINE",
"-422 233 LINE",
"-422 366 LINE"
);
},
{
closed = 1;
nodes = (
"423 366 LINE",
"423 233 LINE",
"464 233 LINE",
"464 366 LINE"
);
},
{
closed = 1;
nodes = (
"-464 174 LINE",
"-464 42 LINE",
"-422 42 LINE",
"-422 174 LINE"
);
},
{
closed = 1;
nodes = (
"423 174 LINE",
"423 42 LINE",
"464 42 LINE",
"464 174 LINE"
);
},
{
closed = 1;
nodes = (
"-316 -123 LINE",
"-422 -123 LINE",
"-422 -16 LINE",
"-464 -16 LINE",
"-464 -164 LINE",
"-316 -164 LINE"
);
},
{
closed = 1;
nodes = (
"464 -16 LINE",
"423 -16 LINE",
"423 -123 LINE",
"316 -123 LINE",
"316 -164 LINE",
"464 -164 LINE"
);
},
{
closed = 1;
nodes = (
"-125 -123 LINE",
"-257 -123 LINE",
"-257 -164 LINE",
"-125 -164 LINE"
);
},
{
closed = 1;
nodes = (
"67 -123 LINE",
"-66 -123 LINE",
"-66 -164 LINE",
"67 -164 LINE"
);
},
{
closed = 1;
nodes = (
"258 -123 LINE",
"125 -123 LINE",
"125 -164 LINE",
"258 -164 LINE"
);
}
);
width = 0;
}
);
unicode = 1DAA2;
category = Mark;
subCategory = Nonspacing;
}
{
glyphname = R4;
layers = (
{
layerId = "B5BBCF37-8EA3-4A7F-B967-74D10E0B056C";
paths = (
{
closed = 1;
nodes = (
"-422 722 LINE",
"-316 722 LINE",
"-316 764 LINE",
"-464 764 LINE",
"-464 616 LINE",
"-422 616 LINE"
);
},
{
closed = 1;
nodes = (
"-125 764 LINE",
"-257 764 LINE",
"-257 722 LINE",
"-125 722 LINE"
);
},
{
closed = 1;
nodes = (
"67 764 LINE",
"-66 764 LINE",
"-66 722 LINE",
"67 722 LINE"
);
},
{
closed = 1;
nodes = (
"258 764 LINE",
"125 764 LINE",
"125 722 LINE",
"258 722 LINE"
);
},
{
closed = 1;
nodes = (
"423 616 LINE",
"464 616 LINE",
"464 764 LINE",
"316 764 LINE",
"316 722 LINE",
"423 722 LINE"
);
},
{
closed = 1;
nodes = (
"-464 557 LINE",
"-464 425 LINE",
"-422 425 LINE",
"-422 557 LINE"
);
},
{
closed = 1;
nodes = (
"423 557 LINE",
"423 425 LINE",
"464 425 LINE",
"464 557 LINE"
);
},
{
closed = 1;
nodes = (
"238 274 LINE",
"238 509 LINE",
"173 509 LINE",
"29 272 LINE",
"29 225 LINE",
"174 225 LINE",
"174 150 LINE",
"238 150 LINE",
"238 225 LINE",
"281 225 LINE",
"281 274 LINE"
);
},
{
closed = 1;
nodes = (
"-239 150 LINE",
"-173 150 LINE",
"-173 293 LINE",
"-135 293 LINE",
"-61 150 LINE",
"13 150 LINE",
"-77 308 LINE",
"-37 326 OFFCURVE",
"-14 357 OFFCURVE",
"-14 404 CURVE SMOOTH",
"-14 473 OFFCURVE",
"-57 507 OFFCURVE",
"-147 507 CURVE SMOOTH",
"-239 507 LINE"
);
},
{
closed = 1;
nodes = (
"-103 456 OFFCURVE",
"-81 440 OFFCURVE",
"-81 401 CURVE SMOOTH",
"-81 362 OFFCURVE",
"-103 342 OFFCURVE",
"-146 342 CURVE SMOOTH",
"-173 342 LINE",
"-173 456 LINE",
"-149 456 LINE SMOOTH"
);
},
{
closed = 1;
nodes = (
"154 392 LINE SMOOTH",
"161 404 OFFCURVE",
"168 418 OFFCURVE",
"174 432 CURVE",
"176 432 LINE",
"175 421 OFFCURVE",
"173 387 OFFCURVE",
"173 370 CURVE SMOOTH",
"173 274 LINE",
"85 274 LINE"
);
},
{
closed = 1;
nodes = (
"-464 366 LINE",
"-464 233 LINE",
"-422 233 LINE",
"-422 366 LINE"
);
},
{
closed = 1;
nodes = (
"423 366 LINE",
"423 233 LINE",
"464 233 LINE",
"464 366 LINE"
);
},
{
closed = 1;
nodes = (
"-464 174 LINE",
"-464 42 LINE",
"-422 42 LINE",
"-422 174 LINE"
);
},
{
closed = 1;
nodes = (
"423 174 LINE",
"423 42 LINE",
"464 42 LINE",
"464 174 LINE"
);
},
{
closed = 1;
nodes = (
"-316 -123 LINE",
"-422 -123 LINE",
"-422 -16 LINE",
"-464 -16 LINE",
"-464 -164 LINE",
"-316 -164 LINE"
);
},
{
closed = 1;
nodes = (
"464 -16 LINE",
"423 -16 LINE",
"423 -123 LINE",
"316 -123 LINE",
"316 -164 LINE",
"464 -164 LINE"
);
},
{
closed = 1;
nodes = (
"-125 -123 LINE",
"-257 -123 LINE",
"-257 -164 LINE",
"-125 -164 LINE"
);
},
{
closed = 1;
nodes = (
"67 -123 LINE",
"-66 -123 LINE",
"-66 -164 LINE",
"67 -164 LINE"
);
},
{
closed = 1;
nodes = (
"258 -123 LINE",
"125 -123 LINE",
"125 -164 LINE",
"258 -164 LINE"
);
}
);
width = 0;
}
);
unicode = 1DAA3;
category = Mark;
subCategory = Nonspacing;
}
{
glyphname = R5;
layers = (
{
layerId = "B5BBCF37-8EA3-4A7F-B967-74D10E0B056C";
paths = (
{
closed = 1;
nodes = (
"-422 722 LINE",
"-316 722 LINE",
"-316 764 LINE",
"-464 764 LINE",
"-464 616 LINE",
"-422 616 LINE"
);
},
{
closed = 1;
nodes = (
"-125 764 LINE",
"-257 764 LINE",
"-257 722 LINE",
"-125 722 LINE"
);
},
{
closed = 1;
nodes = (
"67 764 LINE",
"-66 764 LINE",
"-66 722 LINE",
"67 722 LINE"
);
},
{
closed = 1;
nodes = (
"258 764 LINE",
"125 764 LINE",
"125 722 LINE",
"258 722 LINE"
);
},
{
closed = 1;
nodes = (
"423 616 LINE",
"464 616 LINE",
"464 764 LINE",
"316 764 LINE",
"316 722 LINE",
"423 722 LINE"
);
},
{
closed = 1;
nodes = (
"-464 557 LINE",
"-464 425 LINE",
"-422 425 LINE",
"-422 557 LINE"
);
},
{
closed = 1;
nodes = (
"423 557 LINE",
"423 425 LINE",
"464 425 LINE",
"464 557 LINE"
);
},
{
closed = 1;
nodes = (
"-239 150 LINE",
"-173 150 LINE",
"-173 293 LINE",
"-135 293 LINE",
"-61 150 LINE",
"13 150 LINE",
"-77 308 LINE",
"-37 326 OFFCURVE",
"-14 357 OFFCURVE",
"-14 404 CURVE SMOOTH",
"-14 473 OFFCURVE",
"-57 507 OFFCURVE",
"-147 507 CURVE SMOOTH",
"-239 507 LINE"
);
},
{
closed = 1;
nodes = (
"133 375 OFFCURVE",
"119 373 OFFCURVE",
"104 371 CURVE",
"111 455 LINE",
"231 455 LINE",
"231 507 LINE",
"56 507 LINE",
"43 333 LINE",
"68 317 LINE",
"84 322 OFFCURVE",
"103 325 OFFCURVE",
"120 325 CURVE SMOOTH",
"165 325 OFFCURVE",
"188 304 OFFCURVE",
"188 264 CURVE SMOOTH",
"188 223 OFFCURVE",
"164 196 OFFCURVE",
"120 196 CURVE SMOOTH",
"93 196 OFFCURVE",
"62 205 OFFCURVE",
"38 218 CURVE",
"38 162 LINE",
"60 151 OFFCURVE",
"89 145 OFFCURVE",
"123 145 CURVE SMOOTH",
"209 145 OFFCURVE",
"254 192 OFFCURVE",
"254 267 CURVE SMOOTH",
"254 333 OFFCURVE",
"212 375 OFFCURVE",
"149 375 CURVE SMOOTH"
);
},
{
closed = 1;
nodes = (
"-103 456 OFFCURVE",
"-81 440 OFFCURVE",
"-81 401 CURVE SMOOTH",
"-81 362 OFFCURVE",
"-103 342 OFFCURVE",
"-146 342 CURVE SMOOTH",
"-173 342 LINE",
"-173 456 LINE",
"-149 456 LINE SMOOTH"
);
},
{
closed = 1;
nodes = (
"-464 366 LINE",
"-464 233 LINE",
"-422 233 LINE",
"-422 366 LINE"
);
},
{
closed = 1;
nodes = (
"423 366 LINE",
"423 233 LINE",
"464 233 LINE",
"464 366 LINE"
);
},
{
closed = 1;
nodes = (
"-464 174 LINE",
"-464 42 LINE",
"-422 42 LINE",
"-422 174 LINE"
);
},
{
closed = 1;
nodes = (
"423 174 LINE",
"423 42 LINE",
"464 42 LINE",
"464 174 LINE"
);
},
{
closed = 1;
nodes = (
"-316 -123 LINE",
"-422 -123 LINE",
"-422 -16 LINE",
"-464 -16 LINE",
"-464 -164 LINE",
"-316 -164 LINE"
);
},
{
closed = 1;
nodes = (
"464 -16 LINE",
"423 -16 LINE",
"423 -123 LINE",
"316 -123 LINE",
"316 -164 LINE",
"464 -164 LINE"
);
},
{
closed = 1;
nodes = (
"-125 -123 LINE",
"-257 -123 LINE",
"-257 -164 LINE",
"-125 -164 LINE"
);
},
{
closed = 1;
nodes = (
"67 -123 LINE",
"-66 -123 LINE",
"-66 -164 LINE",
"67 -164 LINE"
);
},
{
closed = 1;
nodes = (
"258 -123 LINE",
"125 -123 LINE",
"125 -164 LINE",
"258 -164 LINE"
);
}
);
width = 0;
}
);
unicode = 1DAA4;
category = Mark;
subCategory = Nonspacing;
}
{
glyphname = R6;
layers = (
{
layerId = "B5BBCF37-8EA3-4A7F-B967-74D10E0B056C";
paths = (
{
closed = 1;
nodes = (
"-422 722 LINE",
"-316 722 LINE",
"-316 764 LINE",
"-464 764 LINE",
"-464 616 LINE",
"-422 616 LINE"
);
},
{
closed = 1;
nodes = (
"-125 764 LINE",
"-257 764 LINE",
"-257 722 LINE",
"-125 722 LINE"
);
},
{
closed = 1;
nodes = (
"67 764 LINE",
"-66 764 LINE",
"-66 722 LINE",
"67 722 LINE"
);
},
{
closed = 1;
nodes = (
"258 764 LINE",
"125 764 LINE",
"125 722 LINE",
"258 722 LINE"
);
},
{
closed = 1;
nodes = (
"423 616 LINE",
"464 616 LINE",
"464 764 LINE",
"316 764 LINE",
"316 722 LINE",
"423 722 LINE"
);
},
{
closed = 1;
nodes = (
"-464 557 LINE",
"-464 425 LINE",
"-422 425 LINE",
"-422 557 LINE"
);
},
{
closed = 1;
nodes = (
"423 557 LINE",
"423 425 LINE",
"464 425 LINE",
"464 557 LINE"
);
},
{
closed = 1;
nodes = (
"43 200 OFFCURVE",
"88 145 OFFCURVE",
"159 145 CURVE SMOOTH",
"229 145 OFFCURVE",
"269 194 OFFCURVE",
"269 267 CURVE SMOOTH",
"269 335 OFFCURVE",
"235 380 OFFCURVE",
"176 380 CURVE SMOOTH",
"143 380 OFFCURVE",
"120 365 OFFCURVE",
"106 339 CURVE",
"104 339 LINE",
"107 418 OFFCURVE",
"134 462 OFFCURVE",
"203 462 CURVE SMOOTH",
"218 462 OFFCURVE",
"233 460 OFFCURVE",
"247 457 CURVE",
"247 508 LINE",
"232 511 OFFCURVE",
"215 512 OFFCURVE",
"198 512 CURVE SMOOTH",
"76 512 OFFCURVE",
"43 419 OFFCURVE",
"43 302 CURVE SMOOTH"
);
},
{
closed = 1;
nodes = (
"-239 150 LINE",
"-173 150 LINE",
"-173 293 LINE",
"-135 293 LINE",
"-61 150 LINE",
"13 150 LINE",
"-77 308 LINE",
"-37 326 OFFCURVE",
"-14 357 OFFCURVE",
"-14 404 CURVE SMOOTH",
"-14 473 OFFCURVE",
"-57 507 OFFCURVE",
"-147 507 CURVE SMOOTH",
"-239 507 LINE"
);
},
{
closed = 1;
nodes = (
"-103 456 OFFCURVE",
"-81 440 OFFCURVE",
"-81 401 CURVE SMOOTH",
"-81 362 OFFCURVE",
"-103 342 OFFCURVE",
"-146 342 CURVE SMOOTH",
"-173 342 LINE",
"-173 456 LINE",
"-149 456 LINE SMOOTH"
);
},
{
closed = 1;
nodes = (
"-464 366 LINE",
"-464 233 LINE",
"-422 233 LINE",
"-422 366 LINE"
);
},
{
closed = 1;
nodes = (
"423 366 LINE",
"423 233 LINE",
"464 233 LINE",
"464 366 LINE"
);
},
{
closed = 1;
nodes = (
"124 196 OFFCURVE",
"108 238 OFFCURVE",
"108 276 CURVE SMOOTH",
"108 305 OFFCURVE",
"127 331 OFFCURVE",
"159 331 CURVE SMOOTH",
"189 331 OFFCURVE",
"204 308 OFFCURVE",
"204 266 CURVE SMOOTH",
"204 219 OFFCURVE",
"186 196 OFFCURVE",
"158 196 CURVE SMOOTH"
);
},
{
closed = 1;
nodes = (
"-464 174 LINE",
"-464 42 LINE",
"-422 42 LINE",
"-422 174 LINE"
);
},
{
closed = 1;
nodes = (
"423 174 LINE",
"423 42 LINE",
"464 42 LINE",
"464 174 LINE"
);
},
{
closed = 1;
nodes = (
"-316 -123 LINE",
"-422 -123 LINE",
"-422 -16 LINE",
"-464 -16 LINE",
"-464 -164 LINE",
"-316 -164 LINE"
);
},
{
closed = 1;
nodes = (
"464 -16 LINE",
"423 -16 LINE",
"423 -123 LINE",
"316 -123 LINE",
"316 -164 LINE",
"464 -164 LINE"
);
},
{
closed = 1;
nodes = (
"-125 -123 LINE",
"-257 -123 LINE",
"-257 -164 LINE",
"-125 -164 LINE"
);
},
{
closed = 1;
nodes = (
"67 -123 LINE",
"-66 -123 LINE",
"-66 -164 LINE",
"67 -164 LINE"
);
},
{
closed = 1;
nodes = (
"258 -123 LINE",
"125 -123 LINE",
"125 -164 LINE",
"258 -164 LINE"
);
}
);
width = 0;
}
);
unicode = 1DAA5;
category = Mark;
subCategory = Nonspacing;
}
{
glyphname = R8;
layers = (
{
layerId = "B5BBCF37-8EA3-4A7F-B967-74D10E0B056C";
paths = (
{
closed = 1;
nodes = (
"-422 722 LINE",
"-316 722 LINE",
"-316 764 LINE",
"-464 764 LINE",
"-464 616 LINE",
"-422 616 LINE"
);
},
{
closed = 1;
nodes = (
"-125 764 LINE",
"-257 764 LINE",
"-257 722 LINE",
"-125 722 LINE"
);
},
{
closed = 1;
nodes = (
"67 764 LINE",
"-66 764 LINE",
"-66 722 LINE",
"67 722 LINE"
);
},
{
closed = 1;
nodes = (
"258 764 LINE",
"125 764 LINE",
"125 722 LINE",
"258 722 LINE"
);
},
{
closed = 1;
nodes = (
"423 616 LINE",
"464 616 LINE",
"464 764 LINE",
"316 764 LINE",
"316 722 LINE",
"423 722 LINE"
);
},
{
closed = 1;
nodes = (
"-464 557 LINE",
"-464 425 LINE",
"-422 425 LINE",
"-422 557 LINE"
);
},
{
closed = 1;
nodes = (
"423 557 LINE",
"423 425 LINE",
"464 425 LINE",
"464 557 LINE"
);
},
{
closed = 1;
nodes = (
"93 512 OFFCURVE",
"50 481 OFFCURVE",
"50 427 CURVE SMOOTH",
"50 390 OFFCURVE",
"70 361 OFFCURVE",
"106 337 CURVE",
"63 314 OFFCURVE",
"39 284 OFFCURVE",
"39 241 CURVE SMOOTH",
"39 181 OFFCURVE",
"81 145 OFFCURVE",
"155 145 CURVE SMOOTH",
"225 145 OFFCURVE",
"270 183 OFFCURVE",
"270 242 CURVE SMOOTH",
"270 285 OFFCURVE",
"241 313 OFFCURVE",
"197 338 CURVE",
"237 359 OFFCURVE",
"260 387 OFFCURVE",
"260 427 CURVE SMOOTH",
"260 481 OFFCURVE",
"219 512 OFFCURVE",
"155 512 CURVE SMOOTH"
);
},
{
closed = 1;
nodes = (
"-239 150 LINE",
"-173 150 LINE",
"-173 293 LINE",
"-135 293 LINE",
"-61 150 LINE",
"13 150 LINE",
"-77 308 LINE",
"-37 326 OFFCURVE",
"-14 357 OFFCURVE",
"-14 404 CURVE SMOOTH",
"-14 473 OFFCURVE",
"-57 507 OFFCURVE",
"-147 507 CURVE SMOOTH",
"-239 507 LINE"
);
},
{
closed = 1;
nodes = (
"181 465 OFFCURVE",
"198 449 OFFCURVE",
"198 423 CURVE SMOOTH",
"198 398 OFFCURVE",
"183 381 OFFCURVE",
"155 365 CURVE",
"128 381 OFFCURVE",
"112 397 OFFCURVE",
"112 423 CURVE SMOOTH",
"112 449 OFFCURVE",
"129 465 OFFCURVE",
"154 465 CURVE SMOOTH"
);
},
{
closed = 1;
nodes = (
"-103 456 OFFCURVE",
"-81 440 OFFCURVE",
"-81 401 CURVE SMOOTH",
"-81 362 OFFCURVE",
"-103 342 OFFCURVE",
"-146 342 CURVE SMOOTH",
"-173 342 LINE",
"-173 456 LINE",
"-149 456 LINE SMOOTH"
);
},
{
closed = 1;
nodes = (
"-464 366 LINE",
"-464 233 LINE",
"-422 233 LINE",
"-422 366 LINE"
);
},
{
closed = 1;
nodes = (
"423 366 LINE",
"423 233 LINE",
"464 233 LINE",
"464 366 LINE"
);
},
{
closed = 1;
nodes = (
"101 271 OFFCURVE",
"117 291 OFFCURVE",
"151 310 CURVE",
"159 304 LINE",
"191 286 OFFCURVE",
"208 267 OFFCURVE",
"208 243 CURVE SMOOTH",
"208 212 OFFCURVE",
"189 192 OFFCURVE",
"154 192 CURVE SMOOTH",
"120 192 OFFCURVE",
"101 213 OFFCURVE",
"101 242 CURVE SMOOTH"
);
},
{
closed = 1;
nodes = (
"-464 174 LINE",
"-464 42 LINE",
"-422 42 LINE",
"-422 174 LINE"
);
},
{
closed = 1;
nodes = (
"423 174 LINE",
"423 42 LINE",
"464 42 LINE",
"464 174 LINE"
);
},
{
closed = 1;
nodes = (
"-316 -123 LINE",
"-422 -123 LINE",
"-422 -16 LINE",
"-464 -16 LINE",
"-464 -164 LINE",
"-316 -164 LINE"
);
},
{
closed = 1;
nodes = (
"464 -16 LINE",
"423 -16 LINE",
"423 -123 LINE",
"316 -123 LINE",
"316 -164 LINE",
"464 -164 LINE"
);
},
{
closed = 1;
nodes = (
"-125 -123 LINE",
"-257 -123 LINE",
"-257 -164 LINE",
"-125 -164 LINE"
);
},
{
closed = 1;
nodes = (
"67 -123 LINE",
"-66 -123 LINE",
"-66 -164 LINE",
"67 -164 LINE"
);
},
{
closed = 1;
nodes = (
"258 -123 LINE",
"125 -123 LINE",
"125 -164 LINE",
"258 -164 LINE"
);
}
);
width = 0;
}
);
unicode = 1DAA7;
category = Mark;
subCategory = Nonspacing;
}
{
glyphname = R9;
layers = (
{
layerId = "B5BBCF37-8EA3-4A7F-B967-74D10E0B056C";
paths = (
{
closed = 1;
nodes = (
"-422 722 LINE",
"-316 722 LINE",
"-316 764 LINE",
"-464 764 LINE",
"-464 616 LINE",
"-422 616 LINE"
);
},
{
closed = 1;
nodes = (
"-125 764 LINE",
"-257 764 LINE",
"-257 722 LINE",
"-125 722 LINE"
);
},
{
closed = 1;
nodes = (
"67 764 LINE",
"-66 764 LINE",
"-66 722 LINE",
"67 722 LINE"
);
},
{
closed = 1;
nodes = (
"258 764 LINE",
"125 764 LINE",
"125 722 LINE",
"258 722 LINE"
);
},
{
closed = 1;
nodes = (
"423 616 LINE",
"464 616 LINE",
"464 764 LINE",
"316 764 LINE",
"316 722 LINE",
"423 722 LINE"
);
},
{
closed = 1;
nodes = (
"-464 557 LINE",
"-464 425 LINE",
"-422 425 LINE",
"-422 557 LINE"
);
},
{
closed = 1;
nodes = (
"423 557 LINE",
"423 425 LINE",
"464 425 LINE",
"464 557 LINE"
);
},
{
closed = 1;
nodes = (
"266 458 OFFCURVE",
"221 512 OFFCURVE",
"150 512 CURVE SMOOTH",
"79 512 OFFCURVE",
"40 463 OFFCURVE",
"40 390 CURVE SMOOTH",
"40 323 OFFCURVE",
"73 277 OFFCURVE",
"132 277 CURVE SMOOTH",
"166 277 OFFCURVE",
"188 293 OFFCURVE",
"202 318 CURVE",
"205 318 LINE",
"202 248 OFFCURVE",
"177 195 OFFCURVE",
"105 195 CURVE SMOOTH",
"89 195 OFFCURVE",
"74 197 OFFCURVE",
"61 201 CURVE",
"61 150 LINE",
"74 147 OFFCURVE",
"94 145 OFFCURVE",
"110 145 CURVE SMOOTH",
"229 145 OFFCURVE",
"266 238 OFFCURVE",
"266 357 CURVE SMOOTH"
);
},
{
closed = 1;
nodes = (
"-239 150 LINE",
"-173 150 LINE",
"-173 293 LINE",
"-135 293 LINE",
"-61 150 LINE",
"13 150 LINE",
"-77 308 LINE",
"-37 326 OFFCURVE",
"-14 357 OFFCURVE",
"-14 404 CURVE SMOOTH",
"-14 473 OFFCURVE",
"-57 507 OFFCURVE",
"-147 507 CURVE SMOOTH",
"-239 507 LINE"
);
},
{
closed = 1;
nodes = (
"189 461 OFFCURVE",
"200 413 OFFCURVE",
"200 383 CURVE SMOOTH",
"200 356 OFFCURVE",
"183 327 OFFCURVE",
"150 327 CURVE SMOOTH",
"120 327 OFFCURVE",
"104 349 OFFCURVE",
"104 391 CURVE SMOOTH",
"104 439 OFFCURVE",
"123 461 OFFCURVE",
"151 461 CURVE SMOOTH"
);
},
{
closed = 1;
nodes = (
"-103 456 OFFCURVE",
"-81 440 OFFCURVE",
"-81 401 CURVE SMOOTH",
"-81 362 OFFCURVE",
"-103 342 OFFCURVE",
"-146 342 CURVE SMOOTH",
"-173 342 LINE",
"-173 456 LINE",
"-149 456 LINE SMOOTH"
);
},
{
closed = 1;
nodes = (
"-464 366 LINE",
"-464 233 LINE",
"-422 233 LINE",
"-422 366 LINE"
);
},
{
closed = 1;
nodes = (
"423 366 LINE",
"423 233 LINE",
"464 233 LINE",
"464 366 LINE"
);
},
{
closed = 1;
nodes = (
"-464 174 LINE",
"-464 42 LINE",
"-422 42 LINE",
"-422 174 LINE"
);
},
{
closed = 1;
nodes = (
"423 174 LINE",
"423 42 LINE",
"464 42 LINE",
"464 174 LINE"
);
},
{
closed = 1;
nodes = (
"-316 -123 LINE",
"-422 -123 LINE",
"-422 -16 LINE",
"-464 -16 LINE",
"-464 -164 LINE",
"-316 -164 LINE"
);
},
{
closed = 1;
nodes = (
"464 -16 LINE",
"423 -16 LINE",
"423 -123 LINE",
"316 -123 LINE",
"316 -164 LINE",
"464 -164 LINE"
);
},
{
closed = 1;
nodes = (
"-125 -123 LINE",
"-257 -123 LINE",
"-257 -164 LINE",
"-125 -164 LINE"
);
},
{
closed = 1;
nodes = (
"67 -123 LINE",
"-66 -123 LINE",
"-66 -164 LINE",
"67 -164 LINE"
);
},
{
closed = 1;
nodes = (
"258 -123 LINE",
"125 -123 LINE",
"125 -164 LINE",
"258 -164 LINE"
);
}
);
width = 0;
}
);
unicode = 1DAA8;
category = Mark;
subCategory = Nonspacing;
}
{
glyphname = u1D802;
layers = (
{
layerId = "B5BBCF37-8EA3-4A7F-B967-74D10E0B056C";
paths = (
{
closed = 1;
nodes = (
"618 86 OFFCURVE",
"686 141 OFFCURVE",
"686 226 CURVE SMOOTH",
"686 785 LINE",
"644 785 LINE",
"644 433 LINE",
"615 460 OFFCURVE",
"571 475 OFFCURVE",
"520 475 CURVE SMOOTH",
"480 475 LINE SMOOTH",
"382 475 OFFCURVE",
"314 420 OFFCURVE",
"314 335 CURVE",
"356 335 LINE",
"382 383 OFFCURVE",
"424 390 OFFCURVE",
"483 390 CURVE SMOOTH",
"500 390 LINE",
"500 128 LINE",
"483 128 LINE SMOOTH",
"417 128 OFFCURVE",
"370 155 OFFCURVE",
"359 202 CURVE",
"316 202 LINE",
"327 131 OFFCURVE",
"391 86 OFFCURVE",
"480 86 CURVE SMOOTH",
"520 86 LINE SMOOTH"
);
},
{
closed = 1;
nodes = (
"608 454 OFFCURVE",
"665 406 OFFCURVE",
"665 335 CURVE SMOOTH",
"665 228 LINE SMOOTH",
"665 157 OFFCURVE",
"608 109 OFFCURVE",
"521 109 CURVE",
"521 454 LINE"
);
}
);
width = 1000;
}
);
unicode = 1D802;
}
{
glyphname = u1D804;
layers = (
{
layerId = "B5BBCF37-8EA3-4A7F-B967-74D10E0B056C";
paths = (
{
closed = 1;
nodes = (
"155 436 LINE",
"155 351 LINE",
"365 351 LINE",
"499 217 LINE",
"499 86 LINE",
"675 86 LINE",
"675 786 LINE",
"633 786 LINE",
"633 436 LINE"
);
},
{
closed = 1;
nodes = (
"520 415 LINE",
"654 415 LINE",
"654 107 LINE",
"520 107 LINE"
);
},
{
closed = 1;
nodes = (
"499 276 LINE",
"424 351 LINE",
"499 351 LINE"
);
}
);
width = 1000;
}
);
unicode = 1D804;
}
{
glyphname = u1D806;
layers = (
{
layerId = "B5BBCF37-8EA3-4A7F-B967-74D10E0B056C";
paths = (
{
closed = 1;
nodes = (
"552 573 LINE",
"552 646 LINE",
"653 646 LINE",
"653 428 LINE",
"345 428 LINE",
"345 78 LINE",
"695 78 LINE",
"695 688 LINE",
"510 688 LINE",
"510 573 LINE"
);
},
{
closed = 1;
nodes = (
"387 386 LINE",
"653 386 LINE",
"653 120 LINE",
"387 120 LINE"
);
}
);
width = 1000;
}
);
unicode = 1D806;
}
{
glyphname = u1D807;
layers = (
{
layerId = "B5BBCF37-8EA3-4A7F-B967-74D10E0B056C";
paths = (
{
closed = 1;
nodes = (
"617 76 OFFCURVE",
"695 154 OFFCURVE",
"695 251 CURVE SMOOTH",
"695 688 LINE",
"510 688 LINE",
"510 573 LINE",
"552 573 LINE",
"552 646 LINE",
"653 646 LINE",
"653 365 LINE",
"621 402 OFFCURVE",
"573 426 OFFCURVE",
"520 426 CURVE SMOOTH",
"423 426 OFFCURVE",
"345 348 OFFCURVE",
"345 251 CURVE SMOOTH",
"345 154 OFFCURVE",
"423 76 OFFCURVE",
"520 76 CURVE SMOOTH"
);
},
{
closed = 1;
nodes = (
"446 118 OFFCURVE",
"387 177 OFFCURVE",
"387 251 CURVE SMOOTH",
"387 325 OFFCURVE",
"446 384 OFFCURVE",
"520 384 CURVE SMOOTH",
"594 384 OFFCURVE",
"653 325 OFFCURVE",
"653 251 CURVE SMOOTH",
"653 177 OFFCURVE",
"594 118 OFFCURVE",
"520 118 CURVE SMOOTH"
);
}
);
width = 1000;
}
);
unicode = 1D807;
}
{
glyphname = u1D809;
layers = (
{
layerId = "B5BBCF37-8EA3-4A7F-B967-74D10E0B056C";
paths = (
{
closed = 1;
nodes = (
"675 480 OFFCURVE",
"671 533 OFFCURVE",
"617 533 CURVE SMOOTH",
"563 533 OFFCURVE",
"559 479 OFFCURVE",
"559 436 CURVE",
"325 436 LINE",
"325 86 LINE",
"675 86 LINE",
"675 426 LINE",
"675 427 LINE",
"675 436 LINE SMOOTH"
);
},
{
closed = 1;
nodes = (
"646 508 OFFCURVE",
"650 484 OFFCURVE",
"650 436 CURVE",
"584 436 LINE",
"584 484 OFFCURVE",
"588 508 OFFCURVE",
"617 508 CURVE SMOOTH"
);
},
{
closed = 1;
nodes = (
"367 394 LINE",
"633 394 LINE",
"633 128 LINE",
"367 128 LINE"
);
}
);
width = 1000;
}
);
unicode = 1D809;
}
{
glyphname = u1D80B;
layers = (
{
layerId = "B5BBCF37-8EA3-4A7F-B967-74D10E0B056C";
paths = (
{
closed = 1;
nodes = (
"721 627 OFFCURVE",
"691 657 OFFCURVE",
"654 657 CURVE SMOOTH",
"616 657 OFFCURVE",
"586 627 OFFCURVE",
"586 590 CURVE SMOOTH",
"586 559 OFFCURVE",
"606 534 OFFCURVE",
"633 525 CURVE",
"633 436 LINE",
"325 436 LINE",
"325 86 LINE",
"675 86 LINE",
"675 525 LINE",
"702 534 OFFCURVE",
"721 560 OFFCURVE",
"721 590 CURVE SMOOTH"
);
},
{
closed = 1;
nodes = (
"367 394 LINE",
"633 394 LINE",
"633 128 LINE",
"367 128 LINE"
);
}
);
width = 1000;
}
);
unicode = 1D80B;
}
{
glyphname = u1D80C;
layers = (
{
layerId = "B5BBCF37-8EA3-4A7F-B967-74D10E0B056C";
paths = (
{
closed = 1;
nodes = (
"714 548 OFFCURVE",
"687 575 OFFCURVE",
"654 575 CURVE SMOOTH",
"621 575 OFFCURVE",
"594 548 OFFCURVE",
"594 515 CURVE SMOOTH",
"594 489 OFFCURVE",
"610 467 OFFCURVE",
"633 459 CURVE",
"633 436 LINE",
"325 436 LINE",
"325 86 LINE",
"675 86 LINE",
"675 459 LINE",
"698 467 OFFCURVE",
"714 489 OFFCURVE",
"714 515 CURVE SMOOTH"
);
},
{
closed = 1;
nodes = (
"367 394 LINE",
"633 394 LINE",
"633 128 LINE",
"367 128 LINE"
);
}
);
width = 1000;
}
);
unicode = 1D80C;
}
{
glyphname = u1D80D;
layers = (
{
layerId = "B5BBCF37-8EA3-4A7F-B967-74D10E0B056C";
paths = (
{
closed = 1;
nodes = (
"597 86 OFFCURVE",
"675 164 OFFCURVE",
"675 261 CURVE SMOOTH",
"675 550 LINE",
"702 559 OFFCURVE",
"721 585 OFFCURVE",
"721 615 CURVE SMOOTH",
"721 652 OFFCURVE",
"691 682 OFFCURVE",
"654 682 CURVE SMOOTH",
"616 682 OFFCURVE",
"586 652 OFFCURVE",
"586 615 CURVE SMOOTH",
"586 584 OFFCURVE",
"606 559 OFFCURVE",
"633 550 CURVE",
"633 375 LINE",
"601 412 OFFCURVE",
"553 436 OFFCURVE",
"500 436 CURVE SMOOTH",
"403 436 OFFCURVE",
"325 358 OFFCURVE",
"325 261 CURVE SMOOTH",
"325 164 OFFCURVE",
"403 86 OFFCURVE",
"500 86 CURVE SMOOTH"
);
},
{
closed = 1;
nodes = (
"426 128 OFFCURVE",
"367 187 OFFCURVE",
"367 261 CURVE SMOOTH",
"367 335 OFFCURVE",
"426 394 OFFCURVE",
"500 394 CURVE SMOOTH",
"574 394 OFFCURVE",
"633 335 OFFCURVE",
"633 261 CURVE SMOOTH",
"633 187 OFFCURVE",
"574 128 OFFCURVE",
"500 128 CURVE SMOOTH"
);
}
);
width = 1000;
}
);
unicode = 1D80D;
}
{
glyphname = u1D812;
layers = (
{
layerId = "B5BBCF37-8EA3-4A7F-B967-74D10E0B056C";
paths = (
{
closed = 1;
nodes = (
"699 636 OFFCURVE",
"664 622 OFFCURVE",
"651 591 CURVE SMOOTH",
"641 568 OFFCURVE",
"648 540 OFFCURVE",
"666 524 CURVE",
"629 436 LINE",
"621 436 LINE",
"584 524 LINE",
"602 540 OFFCURVE",
"609 568 OFFCURVE",
"599 591 CURVE SMOOTH",
"586 622 OFFCURVE",
"551 636 OFFCURVE",
"521 624 CURVE SMOOTH",
"490 611 OFFCURVE",
"476 576 OFFCURVE",
"488 545 CURVE SMOOTH",
"498 522 OFFCURVE",
"522 507 OFFCURVE",
"546 508 CURVE",
"576 436 LINE",
"325 436 LINE",
"325 86 LINE",
"675 86 LINE",
"675 436 LINE",
"674 436 LINE",
"704 508 LINE",
"728 507 OFFCURVE",
"752 522 OFFCURVE",
"762 545 CURVE SMOOTH",
"774 576 OFFCURVE",
"760 611 OFFCURVE",
"729 624 CURVE SMOOTH"
);
},
{
closed = 1;
nodes = (
"367 394 LINE",
"633 394 LINE",
"633 128 LINE",
"367 128 LINE"
);
}
);
width = 1000;
}
);
unicode = 1D812;
}
{
glyphname = u1D818;
layers = (
{
layerId = "B5BBCF37-8EA3-4A7F-B967-74D10E0B056C";
paths = (
{
closed = 1;
nodes = (
"400 646 LINE",
"575 646 LINE SMOOTH",
"617 646 OFFCURVE",
"633 627 OFFCURVE",
"633 582 CURVE SMOOTH",
"633 436 LINE",
"588 436 LINE",
"588 501 LINE SMOOTH",
"588 578 OFFCURVE",
"567 601 OFFCURVE",
"494 601 CURVE SMOOTH",
"355 601 LINE",
"355 559 LINE",
"498 559 LINE SMOOTH",
"540 559 OFFCURVE",
"546 550 OFFCURVE",
"546 505 CURVE SMOOTH",
"546 436 LINE",
"325 436 LINE",
"325 86 LINE",
"675 86 LINE",
"675 578 LINE SMOOTH",
"675 655 OFFCURVE",
"644 688 OFFCURVE",
"571 688 CURVE SMOOTH",
"400 688 LINE"
);
},
{
closed = 1;
nodes = (
"367 394 LINE",
"633 394 LINE",
"633 128 LINE",
"367 128 LINE"
);
}
);
width = 1000;
}
);
unicode = 1D818;
}
{
glyphname = u1D81D;
layers = (
{
layerId = "B5BBCF37-8EA3-4A7F-B967-74D10E0B056C";
paths = (
{
closed = 1;
nodes = (
"521 716 LINE",
"521 786 LINE",
"479 786 LINE",
"479 436 LINE",
"325 436 LINE",
"325 86 LINE",
"675 86 LINE",
"675 436 LINE",
"541 436 LINE",
"671 566 LINE"
);
},
{
closed = 1;
nodes = (
"521 657 LINE",
"612 566 LINE",
"521 475 LINE"
);
},
{
closed = 1;
nodes = (
"367 394 LINE",
"633 394 LINE",
"633 128 LINE",
"367 128 LINE"
);
}
);
width = 1000;
}
);
unicode = 1D81D;
}
{
glyphname = u1D824;
layers = (
{
layerId = "B5BBCF37-8EA3-4A7F-B967-74D10E0B056C";
paths = (
{
closed = 1;
nodes = (
"675 306 LINE",
"675 786 LINE",
"633 786 LINE",
"633 436 LINE",
"521 436 LINE",
"521 516 LINE",
"544 524 OFFCURVE",
"560 546 OFFCURVE",
"560 572 CURVE SMOOTH",
"560 605 OFFCURVE",
"533 632 OFFCURVE",
"500 632 CURVE SMOOTH",
"467 632 OFFCURVE",
"440 605 OFFCURVE",
"440 572 CURVE SMOOTH",
"440 546 OFFCURVE",
"456 524 OFFCURVE",
"479 516 CURVE",
"479 436 LINE",
"325 436 LINE",
"325 86 LINE",
"675 86 LINE",
"675 247 LINE",
"822 394 LINE",
"793 424 LINE"
);
},
{
closed = 1;
nodes = (
"367 394 LINE",
"633 394 LINE",
"633 128 LINE",
"367 128 LINE"
);
}
);
width = 1000;
}
);
unicode = 1D824;
}
{
glyphname = u1D828;
layers = (
{
layerId = "B5BBCF37-8EA3-4A7F-B967-74D10E0B056C";
paths = (
{
closed = 1;
nodes = (
"551 587 OFFCURVE",
"520 620 OFFCURVE",
"467 620 CURVE SMOOTH",
"323 620 LINE SMOOTH",
"270 620 OFFCURVE",
"239 587 OFFCURVE",
"239 540 CURVE SMOOTH",
"239 536 LINE",
"281 536 LINE",
"281 540 LINE SMOOTH",
"281 565 OFFCURVE",
"295 578 OFFCURVE",
"323 578 CURVE SMOOTH",
"467 578 LINE SMOOTH",
"496 578 OFFCURVE",
"509 565 OFFCURVE",
"509 540 CURVE SMOOTH",
"509 436 LINE",
"467 436 LINE",
"467 440 LINE SMOOTH",
"467 487 OFFCURVE",
"436 520 OFFCURVE",
"383 520 CURVE SMOOTH",
"323 520 LINE SMOOTH",
"270 520 OFFCURVE",
"239 487 OFFCURVE",
"239 440 CURVE SMOOTH",
"239 394 LINE",
"281 394 LINE",
"281 440 LINE SMOOTH",
"281 465 OFFCURVE",
"295 478 OFFCURVE",
"323 478 CURVE SMOOTH",
"383 478 LINE SMOOTH",
"412 478 OFFCURVE",
"425 465 OFFCURVE",
"425 440 CURVE SMOOTH",
"425 128 LINE",
"323 128 LINE SMOOTH",
"295 128 OFFCURVE",
"281 141 OFFCURVE",
"281 166 CURVE SMOOTH",
"281 212 LINE",
"239 212 LINE",
"239 166 LINE SMOOTH",
"239 119 OFFCURVE",
"270 86 OFFCURVE",
"323 86 CURVE SMOOTH",
"775 86 LINE",
"775 436 LINE",
"551 436 LINE",
"551 540 LINE SMOOTH"
);
},
{
closed = 1;
nodes = (
"467 394 LINE",
"733 394 LINE",
"733 128 LINE",
"467 128 LINE"
);
}
);
width = 1000;
}
);
unicode = 1D828;
}
{
glyphname = u1D829;
layers = (
{
layerId = "B5BBCF37-8EA3-4A7F-B967-74D10E0B056C";
paths = (
{
closed = 1;
nodes = (
"675 436 LINE",
"438 436 LINE",
"438 517 LINE SMOOTH",
"438 564 OFFCURVE",
"407 597 OFFCURVE",
"354 597 CURVE SMOOTH",
"312 597 LINE SMOOTH",
"267 597 OFFCURVE",
"238 574 OFFCURVE",
"230 538 CURVE",
"175 529 OFFCURVE",
"132 480 OFFCURVE",
"132 423 CURVE SMOOTH",
"132 358 OFFCURVE",
"185 305 OFFCURVE",
"250 305 CURVE SMOOTH",
"278 305 OFFCURVE",
"305 315 OFFCURVE",
"325 333 CURVE",
"325 86 LINE",
"675 86 LINE"
);
},
{
closed = 1;
nodes = (
"361 486 OFFCURVE",
"323 527 OFFCURVE",
"274 537 CURVE",
"280 549 OFFCURVE",
"293 555 OFFCURVE",
"312 555 CURVE SMOOTH",
"354 555 LINE SMOOTH",
"383 555 OFFCURVE",
"396 542 OFFCURVE",
"396 517 CURVE SMOOTH",
"396 436 LINE",
"366 436 LINE"
);
},
{
closed = 1;
nodes = (
"208 347 OFFCURVE",
"174 381 OFFCURVE",
"174 423 CURVE SMOOTH",
"174 464 OFFCURVE",
"208 498 OFFCURVE",
"250 498 CURVE SMOOTH",
"291 498 OFFCURVE",
"325 464 OFFCURVE",
"325 423 CURVE SMOOTH",
"325 381 OFFCURVE",
"291 347 OFFCURVE",
"250 347 CURVE SMOOTH"
);
},
{
closed = 1;
nodes = (
"633 394 LINE",
"633 128 LINE",
"367 128 LINE",
"367 394 LINE"
);
}
);
width = 1000;
}
);
unicode = 1D829;
}
{
glyphname = u1D82A;
layers = (
{
layerId = "B5BBCF37-8EA3-4A7F-B967-74D10E0B056C";
paths = (
{
closed = 1;
nodes = (
"450 564 OFFCURVE",
"419 597 OFFCURVE",
"366 597 CURVE SMOOTH",
"324 597 LINE SMOOTH",
"279 597 OFFCURVE",
"250 573 OFFCURVE",
"242 537 CURVE",
"241 537 LINE SMOOTH",
"199 537 OFFCURVE",
"171 517 OFFCURVE",
"161 485 CURVE",
"131 515 LINE",
"100 487 LINE",
"325 261 LINE",
"325 86 LINE",
"675 86 LINE",
"675 436 LINE",
"450 436 LINE",
"450 517 LINE SMOOTH"
);
},
{
closed = 1;
nodes = (
"395 555 OFFCURVE",
"408 542 OFFCURVE",
"408 517 CURVE SMOOTH",
"408 436 LINE",
"367 436 LINE",
"367 457 LINE SMOOTH",
"367 503 OFFCURVE",
"337 536 OFFCURVE",
"286 537 CURVE",
"292 549 OFFCURVE",
"305 555 OFFCURVE",
"324 555 CURVE SMOOTH",
"366 555 LINE SMOOTH"
);
},
{
closed = 1;
nodes = (
"199 482 OFFCURVE",
"213 495 OFFCURVE",
"241 495 CURVE SMOOTH",
"283 495 LINE SMOOTH",
"312 495 OFFCURVE",
"325 482 OFFCURVE",
"325 457 CURVE SMOOTH",
"325 322 LINE",
"199 447 LINE",
"199 457 LINE SMOOTH"
);
},
{
closed = 1;
nodes = (
"367 394 LINE",
"633 394 LINE",
"633 128 LINE",
"367 128 LINE"
);
}
);
width = 1000;
}
);
unicode = 1D82A;
}
{
glyphname = u1D830;
layers = (
{
layerId = "B5BBCF37-8EA3-4A7F-B967-74D10E0B056C";
paths = (
{
closed = 1;
nodes = (
"633 786 LINE",
"633 436 LINE",
"564 436 LINE",
"606 394 LINE",
"633 394 LINE",
"633 367 LINE",
"675 325 LINE",
"675 786 LINE"
);
},
{
closed = 1;
nodes = (
"675 108 LINE",
"692 109 OFFCURVE",
"710 117 OFFCURVE",
"725 132 CURVE SMOOTH",
"760 167 OFFCURVE",
"756 214 OFFCURVE",
"722 248 CURVE SMOOTH",
"440 530 LINE",
"455 530 LINE",
"455 613 LINE",
"500 613 LINE",
"500 500 LINE",
"542 458 LINE",
"542 655 LINE",
"413 655 LINE",
"413 541 LINE",
"392 520 LINE",
"694 218 LINE SMOOTH",
"710 202 OFFCURVE",
"714 181 OFFCURVE",
"695 162 CURVE SMOOTH",
"688 155 OFFCURVE",
"682 152 OFFCURVE",
"675 150 CURVE",
"675 207 LINE",
"633 249 LINE",
"633 128 LINE",
"367 128 LINE",
"367 394 LINE",
"488 394 LINE",
"446 436 LINE",
"325 436 LINE",
"325 86 LINE",
"675 86 LINE"
);
}
);
width = 1000;
}
);
unicode = 1D830;
}
{
glyphname = u1D834;
layers = (
{
layerId = "B5BBCF37-8EA3-4A7F-B967-74D10E0B056C";
paths = (
{
closed = 1;
nodes = (
"542 436 LINE",
"542 786 LINE",
"500 786 LINE",
"500 436 LINE",
"325 436 LINE",
"325 86 LINE",
"675 86 LINE",
"675 786 LINE",
"633 786 LINE",
"633 436 LINE"
);
},
{
closed = 1;
nodes = (
"367 394 LINE",
"633 394 LINE",
"633 128 LINE",
"367 128 LINE"
);
},
{
closed = 1;
nodes = (
"576 163 OFFCURVE",
"598 185 OFFCURVE",
"598 212 CURVE SMOOTH",
"598 239 OFFCURVE",
"576 261 OFFCURVE",
"549 261 CURVE SMOOTH",
"522 261 OFFCURVE",
"500 239 OFFCURVE",
"500 212 CURVE SMOOTH",
"500 185 OFFCURVE",
"522 163 OFFCURVE",
"549 163 CURVE SMOOTH"
);
}
);
width = 1000;
}
);
note = "direction dependent";
unicode = 1D834;
}
{
glyphname = u1D835;
layers = (
{
layerId = "B5BBCF37-8EA3-4A7F-B967-74D10E0B056C";
paths = (
{
closed = 1;
nodes = (
"139 282 LINE",
"139 240 LINE",
"325 240 LINE",
"325 86 LINE",
"675 86 LINE",
"675 436 LINE",
"325 436 LINE",
"325 282 LINE"
);
},
{
closed = 1;
nodes = (
"367 394 LINE",
"633 394 LINE",
"633 128 LINE",
"367 128 LINE"
);
}
);
width = 1000;
}
);
unicode = 1D835;
}
{
glyphname = u1D83B;
layers = (
{
layerId = "B5BBCF37-8EA3-4A7F-B967-74D10E0B056C";
paths = (
{
closed = 1;
nodes = (
"675 436 LINE",
"521 436 LINE",
"521 780 LINE",
"479 780 LINE",
"479 436 LINE",
"410 436 LINE",
"410 524 OFFCURVE",
"338 596 OFFCURVE",
"250 596 CURVE SMOOTH",
"226 596 OFFCURVE",
"203 591 OFFCURVE",
"182 581 CURVE",
"172 605 LINE",
"134 587 LINE",
"146 558 LINE",
"111 529 OFFCURVE",
"89 485 OFFCURVE",
"89 436 CURVE",
"174 436 LINE",
"174 448 OFFCURVE",
"177 460 OFFCURVE",
"182 470 CURVE",
"325 126 LINE",
"325 86 LINE",
"675 86 LINE"
);
},
{
closed = 1;
nodes = (
"225 508 OFFCURVE",
"237 511 OFFCURVE",
"250 511 CURVE SMOOTH",
"291 511 OFFCURVE",
"325 477 OFFCURVE",
"325 436 CURVE SMOOTH",
"325 236 LINE",
"215 502 LINE"
);
},
{
closed = 1;
nodes = (
"633 394 LINE",
"633 128 LINE",
"367 128 LINE",
"367 394 LINE"
);
}
);
width = 1000;
}
);
unicode = 1D83B;
}
{
glyphname = u1D83D;
layers = (
{
layerId = "B5BBCF37-8EA3-4A7F-B967-74D10E0B056C";
paths = (
{
closed = 1;
nodes = (
"132 436 LINE",
"132 394 LINE",
"482 394 LINE",
"482 357 LINE",
"132 357 LINE",
"132 315 LINE",
"482 315 LINE",
"482 132 LINE",
"314 202 LINE",
"296 163 LINE",
"482 86 LINE",
"832 86 LINE",
"832 436 LINE"
);
},
{
closed = 1;
nodes = (
"524 394 LINE",
"790 394 LINE",
"790 128 LINE",
"524 128 LINE"
);
}
);
width = 1000;
}
);
unicode = 1D83D;
}
{
glyphname = u1D83E;
layers = (
{
layerId = "B5BBCF37-8EA3-4A7F-B967-74D10E0B056C";
paths = (
{
closed = 1;
nodes = (
"394 436 LINE",
"357 525 LINE",
"290 494 LINE",
"314 436 LINE",
"132 436 LINE",
"132 394 LINE",
"332 394 LINE",
"347 357 LINE",
"132 357 LINE",
"132 315 LINE",
"365 315 LINE",
"460 86 LINE",
"832 86 LINE",
"832 436 LINE"
);
},
{
closed = 1;
nodes = (
"482 357 LINE",
"427 357 LINE",
"412 394 LINE",
"482 394 LINE"
);
},
{
closed = 1;
nodes = (
"524 394 LINE",
"790 394 LINE",
"790 128 LINE",
"524 128 LINE"
);
},
{
closed = 1;
nodes = (
"482 227 LINE",
"445 315 LINE",
"482 315 LINE"
);
}
);
width = 1000;
}
);
unicode = 1D83E;
}
{
glyphname = u1D83F;
layers = (
{
layerId = "B5BBCF37-8EA3-4A7F-B967-74D10E0B056C";
paths = (
{
closed = 1;
nodes = (
"132 436 LINE",
"132 394 LINE",
"482 394 LINE",
"482 357 LINE",
"132 357 LINE",
"132 315 LINE",
"335 315 LINE",
"482 168 LINE",
"482 86 LINE",
"832 86 LINE",
"832 436 LINE"
);
},
{
closed = 1;
nodes = (
"524 394 LINE",
"790 394 LINE",
"790 128 LINE",
"524 128 LINE"
);
},
{
closed = 1;
nodes = (
"482 227 LINE",
"394 315 LINE",
"482 315 LINE"
);
}
);
width = 1000;
}
);
unicode = 1D83F;
}
{
glyphname = u1D843;
layers = (
{
layerId = "B5BBCF37-8EA3-4A7F-B967-74D10E0B056C";
paths = (
{
closed = 1;
nodes = (
"359 648 LINE",
"359 505 LINE",
"401 505 LINE",
"401 606 LINE",
"482 606 LINE",
"482 436 LINE",
"384 436 LINE",
"347 525 LINE",
"309 507 LINE",
"338 436 LINE",
"132 436 LINE",
"132 394 LINE",
"355 394 LINE",
"482 86 LINE",
"832 86 LINE",
"832 436 LINE",
"524 436 LINE",
"524 648 LINE"
);
},
{
closed = 1;
nodes = (
"482 196 LINE",
"401 394 LINE",
"482 394 LINE"
);
},
{
closed = 1;
nodes = (
"524 394 LINE",
"790 394 LINE",
"790 128 LINE",
"524 128 LINE"
);
}
);
width = 1000;
}
);
unicode = 1D843;
}
{
glyphname = u1D845;
layers = (
{
layerId = "B5BBCF37-8EA3-4A7F-B967-74D10E0B056C";
paths = (
{
closed = 1;
nodes = (
"656 366 LINE",
"605 412 LINE",
"664 553 LINE SMOOTH",
"676 581 OFFCURVE",
"698 633 OFFCURVE",
"637 660 CURVE SMOOTH",
"577 687 OFFCURVE",
"553 632 OFFCURVE",
"542 604 CURVE SMOOTH",
"533 581 LINE",
"572 565 LINE",
"581 588 LINE SMOOTH",
"593 619 OFFCURVE",
"604 628 OFFCURVE",
"621 621 CURVE SMOOTH",
"638 614 OFFCURVE",
"639 601 OFFCURVE",
"626 569 CURVE SMOOTH",
"573 441 LINE",
"521 488 LINE",
"521 637 LINE SMOOTH",
"521 668 OFFCURVE",
"521 725 OFFCURVE",
"455 725 CURVE SMOOTH",
"389 725 OFFCURVE",
"389 668 OFFCURVE",
"389 637 CURVE SMOOTH",
"389 613 LINE",
"431 613 LINE",
"431 637 LINE SMOOTH",
"431 671 OFFCURVE",
"437 683 OFFCURVE",
"455 683 CURVE SMOOTH",
"473 683 OFFCURVE",
"479 672 OFFCURVE",
"479 637 CURVE SMOOTH",
"479 488 LINE",
"417 432 LINE",
"387 584 LINE SMOOTH",
"381 615 OFFCURVE",
"370 670 OFFCURVE",
"305 657 CURVE SMOOTH",
"240 644 OFFCURVE",
"251 588 OFFCURVE",
"257 558 CURVE SMOOTH",
"262 534 LINE",
"303 543 LINE",
"299 566 LINE SMOOTH",
"293 599 OFFCURVE",
"296 612 OFFCURVE",
"313 616 CURVE SMOOTH",
"331 619 OFFCURVE",
"339 610 OFFCURVE",
"346 575 CURVE SMOOTH",
"380 399 LINE",
"364 384 LINE",
"279 469 LINE SMOOTH",
"257 491 OFFCURVE",
"216 531 OFFCURVE",
"170 485 CURVE SMOOTH",
"123 438 OFFCURVE",
"163 398 OFFCURVE",
"185 376 CURVE SMOOTH",
"202 359 LINE",
"232 389 LINE",
"215 405 LINE SMOOTH",
"190 429 OFFCURVE",
"187 442 OFFCURVE",
"199 455 CURVE SMOOTH",
"212 468 OFFCURVE",
"224 464 OFFCURVE",
"249 439 CURVE SMOOTH",
"344 345 LINE",
"344 0 LINE",
"656 0 LINE"
);
},
{
closed = 1;
nodes = (
"500 449 LINE",
"614 347 LINE",
"614 220 LINE",
"500 220 LINE",
"500 145 LINE",
"614 145 LINE",
"614 42 LINE",
"386 42 LINE",
"386 347 LINE"
);
}
);
width = 1000;
}
);
unicode = 1D845;
}
{
glyphname = u1D847;
layers = (
{
layerId = "B5BBCF37-8EA3-4A7F-B967-74D10E0B056C";
paths = (
{
closed = 1;
nodes = (
"344 -20 LINE",
"656 -20 LINE",
"656 436 LINE",
"500 577 LINE",
"344 436 LINE"
);
},
{
closed = 1;
nodes = (
"500 519 LINE",
"614 417 LINE",
"614 220 LINE",
"500 220 LINE",
"500 145 LINE",
"614 145 LINE",
"614 22 LINE",
"386 22 LINE",
"386 417 LINE"
);
}
);
width = 1000;
}
);
unicode = 1D847;
}
{
glyphname = u1D849;
layers = (
{
layerId = "B5BBCF37-8EA3-4A7F-B967-74D10E0B056C";
paths = (
{
closed = 1;
nodes = (
"335 475 LINE",
"335 348 LINE",
"356 348 LINE",
"356 390 LINE",
"499 390 LINE",
"499 86 LINE",
"675 86 LINE",
"675 475 LINE"
);
},
{
closed = 1;
nodes = (
"520 225 LINE",
"587 225 LINE",
"587 310 LINE",
"520 310 LINE",
"520 454 LINE",
"654 454 LINE",
"654 107 LINE",
"520 107 LINE"
);
}
);
width = 1000;
}
);
unicode = 1D849;
}
{
glyphname = u1D84B;
layers = (
{
layerId = "B5BBCF37-8EA3-4A7F-B967-74D10E0B056C";
paths = (
{
closed = 1;
nodes = (
"335 495 LINE",
"335 368 LINE",
"356 368 LINE",
"356 410 LINE",
"499 410 LINE",
"499 106 LINE",
"675 106 LINE",
"675 495 LINE"
);
},
{
closed = 1;
nodes = (
"520 245 LINE",
"587 245 LINE",
"587 330 LINE",
"520 330 LINE",
"520 474 LINE",
"654 474 LINE",
"654 127 LINE",
"520 127 LINE"
);
}
);
width = 1000;
}
);
unicode = 1D84B;
}
{
glyphname = u1D84D;
layers = (
{
layerId = "B5BBCF37-8EA3-4A7F-B967-74D10E0B056C";
paths = (
{
closed = 1;
nodes = (
"521 340 LINE",
"521 500 LINE",
"479 500 LINE",
"479 340 LINE"
);
},
{
closed = 1;
nodes = (
"435 340 LINE",
"379 475 LINE",
"341 458 LINE",
"390 340 LINE"
);
},
{
closed = 1;
nodes = (
"565 340 LINE",
"610 340 LINE",
"659 458 LINE",
"621 475 LINE"
);
},
{
closed = 1;
nodes = (
"227 377 LINE",
"264 340 LINE",
"323 340 LINE",
"256 407 LINE"
);
},
{
closed = 1;
nodes = (
"823 314 LINE",
"744 235 LINE",
"744 176 LINE",
"852 284 LINE"
);
},
{
closed = 1;
nodes = (
"705 300 LINE",
"295 300 LINE",
"295 86 LINE",
"705 86 LINE"
);
},
{
closed = 1;
nodes = (
"663 258 LINE",
"663 193 LINE",
"337 193 LINE",
"337 258 LINE"
);
}
);
width = 1000;
}
);
unicode = 1D84D;
}
{
glyphname = u1D84F;
layers = (
{
layerId = "B5BBCF37-8EA3-4A7F-B967-74D10E0B056C";
paths = (
{
closed = 1;
nodes = (
"316 392 OFFCURVE",
"356 351 OFFCURVE",
"378 329 CURVE SMOOTH",
"382 325 LINE",
"442 325 LINE",
"408 359 LINE SMOOTH",
"383 384 OFFCURVE",
"379 396 OFFCURVE",
"392 408 CURVE SMOOTH",
"402 418 OFFCURVE",
"413 418 OFFCURVE",
"428 405 CURVE",
"458 435 LINE",
"435 456 OFFCURVE",
"400 476 OFFCURVE",
"362 438 CURVE SMOOTH"
);
},
{
closed = 1;
nodes = (
"518 418 OFFCURVE",
"529 418 OFFCURVE",
"539 408 CURVE SMOOTH",
"552 396 OFFCURVE",
"548 384 OFFCURVE",
"523 359 CURVE SMOOTH",
"489 325 LINE",
"549 325 LINE",
"553 329 LINE SMOOTH",
"575 351 OFFCURVE",
"615 392 OFFCURVE",
"569 438 CURVE SMOOTH",
"531 476 OFFCURVE",
"496 456 OFFCURVE",
"473 435 CURVE",
"503 405 LINE"
);
},
{
closed = 1;
nodes = (
"186 372 OFFCURVE",
"226 331 OFFCURVE",
"248 309 CURVE SMOOTH",
"270 287 LINE",
"270 325 LINE",
"292 325 LINE",
"278 339 LINE SMOOTH",
"253 364 OFFCURVE",
"249 376 OFFCURVE",
"262 388 CURVE SMOOTH",
"272 398 OFFCURVE",
"283 398 OFFCURVE",
"298 385 CURVE",
"328 415 LINE",
"305 436 OFFCURVE",
"270 456 OFFCURVE",
"232 418 CURVE SMOOTH"
);
},
{
closed = 1;
nodes = (
"648 398 OFFCURVE",
"659 398 OFFCURVE",
"669 388 CURVE SMOOTH",
"682 376 OFFCURVE",
"678 364 OFFCURVE",
"653 339 CURVE SMOOTH",
"639 325 LINE",
"698 325 LINE",
"719 348 OFFCURVE",
"735 382 OFFCURVE",
"699 418 CURVE SMOOTH",
"661 456 OFFCURVE",
"626 436 OFFCURVE",
"603 415 CURVE",
"633 385 LINE"
);
},
{
closed = 1;
nodes = (
"823 314 LINE",
"744 235 LINE",
"744 176 LINE",
"852 284 LINE"
);
},
{
closed = 1;
nodes = (
"705 300 LINE",
"295 300 LINE",
"295 86 LINE",
"705 86 LINE"
);
},
{
closed = 1;
nodes = (
"663 258 LINE",
"663 193 LINE",
"337 193 LINE",
"337 258 LINE"
);
}
);
width = 1000;
}
);
unicode = 1D84F;
}
{
glyphname = u1D850;
layers = (
{
layerId = "B5BBCF37-8EA3-4A7F-B967-74D10E0B056C";
paths = (
{
closed = 1;
nodes = (
"656 160 LINE",
"756 160 LINE SMOOTH",
"787 160 OFFCURVE",
"844 160 OFFCURVE",
"844 226 CURVE SMOOTH",
"844 292 OFFCURVE",
"787 292 OFFCURVE",
"756 292 CURVE SMOOTH",
"732 292 LINE",
"732 250 LINE",
"756 250 LINE SMOOTH",
"790 250 OFFCURVE",
"802 244 OFFCURVE",
"802 226 CURVE SMOOTH",
"802 208 OFFCURVE",
"791 202 OFFCURVE",
"756 202 CURVE SMOOTH",
"656 202 LINE",
"656 403 LINE",
"723 565 LINE SMOOTH",
"735 593 OFFCURVE",
"757 646 OFFCURVE",
"696 672 CURVE SMOOTH",
"635 697 OFFCURVE",
"612 644 OFFCURVE",
"601 616 CURVE SMOOTH",
"592 593 LINE",
"631 577 LINE",
"640 600 LINE SMOOTH",
"652 631 OFFCURVE",
"663 640 OFFCURVE",
"680 633 CURVE SMOOTH",
"697 626 OFFCURVE",
"698 613 OFFCURVE",
"685 581 CURVE SMOOTH",
"624 435 LINE",
"521 528 LINE",
"521 677 LINE SMOOTH",
"521 708 OFFCURVE",
"521 765 OFFCURVE",
"455 765 CURVE SMOOTH",
"389 765 OFFCURVE",
"389 708 OFFCURVE",
"389 677 CURVE SMOOTH",
"389 653 LINE",
"431 653 LINE",
"431 677 LINE SMOOTH",
"431 711 OFFCURVE",
"437 723 OFFCURVE",
"455 723 CURVE SMOOTH",
"473 723 OFFCURVE",
"479 712 OFFCURVE",
"479 677 CURVE SMOOTH",
"479 528 LINE",
"376 435 LINE",
"315 581 LINE SMOOTH",
"304 608 OFFCURVE",
"282 662 OFFCURVE",
"221 637 CURVE SMOOTH",
"160 612 OFFCURVE",
"181 559 OFFCURVE",
"193 530 CURVE SMOOTH",
"202 508 LINE",
"241 524 LINE",
"232 546 LINE SMOOTH",
"219 578 OFFCURVE",
"220 591 OFFCURVE",
"237 598 CURVE SMOOTH",
"253 605 OFFCURVE",
"263 597 OFFCURVE",
"276 565 CURVE SMOOTH",
"344 401 LINE",
"344 271 LINE",
"315 340 LINE SMOOTH",
"304 367 OFFCURVE",
"282 421 OFFCURVE",
"221 396 CURVE SMOOTH",
"160 371 OFFCURVE",
"181 318 OFFCURVE",
"193 289 CURVE SMOOTH",
"202 267 LINE",
"241 283 LINE",
"232 305 LINE SMOOTH",
"219 337 OFFCURVE",
"220 350 OFFCURVE",
"237 357 CURVE SMOOTH",
"253 364 OFFCURVE",
"263 356 OFFCURVE",
"276 324 CURVE SMOOTH",
"344 160 LINE",
"344 0 LINE",
"656 0 LINE"
);
},
{
closed = 1;
nodes = (
"500 489 LINE",
"614 387 LINE",
"614 42 LINE",
"386 42 LINE",
"386 387 LINE"
);
}
);
width = 1000;
}
);
unicode = 1D850;
}
{
glyphname = u1D852;
layers = (
{
layerId = "B5BBCF37-8EA3-4A7F-B967-74D10E0B056C";
paths = (
{
closed = 1;
nodes = (
"560 453 LINE",
"521 488 LINE",
"521 740 LINE",
"479 740 LINE",
"479 488 LINE",
"440 453 LINE",
"358 652 LINE",
"320 635 LINE",
"407 423 LINE",
"375 394 LINE",
"236 533 LINE",
"207 503 LINE",
"344 366 LINE",
"344 0 LINE",
"656 0 LINE",
"656 366 LINE",
"593 423 LINE",
"680 635 LINE",
"642 652 LINE"
);
},
{
closed = 1;
nodes = (
"386 347 LINE",
"500 449 LINE",
"614 347 LINE",
"614 42 LINE",
"386 42 LINE"
);
},
{
closed = 1;
nodes = (
"481 109 OFFCURVE",
"503 87 OFFCURVE",
"530 87 CURVE SMOOTH",
"557 87 OFFCURVE",
"579 109 OFFCURVE",
"579 136 CURVE SMOOTH",
"579 163 OFFCURVE",
"557 185 OFFCURVE",
"530 185 CURVE SMOOTH",
"503 185 OFFCURVE",
"481 163 OFFCURVE",
"481 136 CURVE SMOOTH"
);
}
);
width = 1000;
}
);
unicode = 1D852;
}
{
glyphname = u1D854;
layers = (
{
layerId = "B5BBCF37-8EA3-4A7F-B967-74D10E0B056C";
paths = (
{
closed = 1;
nodes = (
"487 72 OFFCURVE",
"502 81 OFFCURVE",
"510 86 CURVE",
"603 90 OFFCURVE",
"666 144 OFFCURVE",
"666 226 CURVE SMOOTH",
"666 498 LINE SMOOTH",
"666 580 OFFCURVE",
"603 634 OFFCURVE",
"510 638 CURVE",
"502 643 OFFCURVE",
"487 652 OFFCURVE",
"458 652 CURVE SMOOTH",
"314 652 LINE",
"314 610 LINE",
"458 610 LINE SMOOTH",
"486 610 OFFCURVE",
"500 597 OFFCURVE",
"500 572 CURVE SMOOTH",
"500 524 LINE",
"491 528 OFFCURVE",
"478 532 OFFCURVE",
"458 532 CURVE SMOOTH",
"314 532 LINE",
"314 490 LINE",
"458 490 LINE SMOOTH",
"486 490 OFFCURVE",
"500 477 OFFCURVE",
"500 452 CURVE SMOOTH",
"500 404 LINE",
"491 408 OFFCURVE",
"478 412 OFFCURVE",
"458 412 CURVE SMOOTH",
"314 412 LINE",
"314 370 LINE",
"458 370 LINE SMOOTH",
"486 370 OFFCURVE",
"500 357 OFFCURVE",
"500 332 CURVE SMOOTH",
"500 284 LINE",
"491 288 OFFCURVE",
"478 292 OFFCURVE",
"458 292 CURVE SMOOTH",
"314 292 LINE",
"314 250 LINE",
"458 250 LINE SMOOTH",
"486 250 OFFCURVE",
"500 237 OFFCURVE",
"500 212 CURVE SMOOTH",
"500 152 LINE SMOOTH",
"500 127 OFFCURVE",
"486 114 OFFCURVE",
"458 114 CURVE SMOOTH",
"314 114 LINE",
"314 72 LINE",
"458 72 LINE SMOOTH"
);
},
{
closed = 1;
nodes = (
"589 589 OFFCURVE",
"624 549 OFFCURVE",
"624 498 CURVE SMOOTH",
"624 226 LINE SMOOTH",
"624 175 OFFCURVE",
"589 135 OFFCURVE",
"521 129 CURVE",
"521 595 LINE"
);
}
);
width = 1000;
}
);
unicode = 1D854;
}
{
glyphname = u1D856;
layers = (
{
layerId = "B5BBCF37-8EA3-4A7F-B967-74D10E0B056C";
paths = (
{
closed = 1;
nodes = (
"600 88 OFFCURVE",
"666 142 OFFCURVE",
"666 226 CURVE SMOOTH",
"666 498 LINE SMOOTH",
"666 582 OFFCURVE",
"600 636 OFFCURVE",
"505 638 CURVE SMOOTH",
"500 638 LINE",
"313 551 LINE",
"330 513 LINE",
"500 592 LINE",
"500 548 LINE",
"313 461 LINE",
"330 423 LINE",
"500 502 LINE",
"500 385 LINE",
"314 385 LINE",
"314 343 LINE",
"500 343 LINE",
"500 222 LINE",
"330 301 LINE",
"313 263 LINE",
"500 176 LINE",
"500 132 LINE",
"330 211 LINE",
"313 173 LINE",
"500 86 LINE",
"505 86 LINE SMOOTH"
);
},
{
closed = 1;
nodes = (
"597 609 OFFCURVE",
"645 564 OFFCURVE",
"645 498 CURVE SMOOTH",
"645 226 LINE SMOOTH",
"645 160 OFFCURVE",
"597 115 OFFCURVE",
"521 108 CURVE",
"521 616 LINE"
);
}
);
width = 1000;
}
);
unicode = 1D856;
}
{
glyphname = u1D858;
layers = (
{
layerId = "B5BBCF37-8EA3-4A7F-B967-74D10E0B056C";
paths = (
{
closed = 1;
nodes = (
"656 406 LINE",
"520 733 LINE",
"482 716 LINE",
"611 406 LINE",
"579 406 LINE",
"353 700 LINE",
"321 674 LINE",
"527 406 LINE",
"470 406 LINE",
"288 643 LINE",
"256 617 LINE",
"418 406 LINE",
"368 406 LINE",
"247 562 LINE",
"216 537 LINE",
"344 369 LINE",
"344 0 LINE",
"656 0 LINE",
"656 160 LINE",
"840 160 LINE",
"840 202 LINE",
"656 202 LINE"
);
},
{
closed = 1;
nodes = (
"386 364 LINE",
"614 364 LINE",
"614 42 LINE",
"386 42 LINE"
);
}
);
width = 1000;
}
);
unicode = 1D858;
}
{
glyphname = u1D85B;
layers = (
{
layerId = "B5BBCF37-8EA3-4A7F-B967-74D10E0B056C";
paths = (
{
closed = 1;
nodes = (
"344 -20 LINE",
"656 -20 LINE",
"656 436 LINE",
"500 577 LINE",
"344 436 LINE"
);
},
{
closed = 1;
nodes = (
"614 417 LINE",
"614 344 LINE",
"500 344 LINE",
"500 22 LINE",
"386 22 LINE",
"386 417 LINE",
"500 519 LINE"
);
}
);
width = 1000;
}
);
unicode = 1D85B;
}
{
glyphname = u1D85D;
layers = (
{
layerId = "B5BBCF37-8EA3-4A7F-B967-74D10E0B056C";
paths = (
{
closed = 1;
nodes = (
"656 106 LINE",
"656 436 LINE",
"500 577 LINE",
"344 436 LINE",
"344 -20 LINE",
"656 -20 LINE",
"656 47 LINE",
"803 194 LINE",
"774 224 LINE"
);
},
{
closed = 1;
nodes = (
"386 417 LINE",
"500 519 LINE",
"614 417 LINE",
"614 22 LINE",
"386 22 LINE"
);
}
);
width = 1000;
}
);
unicode = 1D85D;
}
{
glyphname = u1D860;
layers = (
{
layerId = "B5BBCF37-8EA3-4A7F-B967-74D10E0B056C";
paths = (
{
closed = 1;
nodes = (
"656 436 LINE",
"500 577 LINE",
"344 436 LINE",
"344 -20 LINE",
"656 -20 LINE"
);
},
{
closed = 1;
nodes = (
"500 519 LINE",
"614 417 LINE",
"614 22 LINE",
"386 22 LINE",
"386 417 LINE"
);
},
{
closed = 1;
nodes = (
"557 67 OFFCURVE",
"579 89 OFFCURVE",
"579 116 CURVE SMOOTH",
"579 143 OFFCURVE",
"557 165 OFFCURVE",
"530 165 CURVE SMOOTH",
"503 165 OFFCURVE",
"481 143 OFFCURVE",
"481 116 CURVE SMOOTH",
"481 89 OFFCURVE",
"503 67 OFFCURVE",
"530 67 CURVE SMOOTH"
);
}
);
width = 1000;
}
);
unicode = 1D860;
}
{
glyphname = u1D865;
layers = (
{
layerId = "B5BBCF37-8EA3-4A7F-B967-74D10E0B056C";
paths = (
{
closed = 1;
nodes = (
"500 577 LINE",
"344 436 LINE",
"344 -20 LINE",
"656 -20 LINE",
"656 327 LINE",
"835 506 LINE",
"773 569 LINE",
"648 444 LINE"
);
},
{
closed = 1;
nodes = (
"386 417 LINE",
"500 519 LINE",
"614 417 LINE",
"614 22 LINE",
"386 22 LINE"
);
}
);
width = 1000;
}
);
unicode = 1D865;
}
{
glyphname = u1D867;
layers = (
{
layerId = "B5BBCF37-8EA3-4A7F-B967-74D10E0B056C";
paths = (
{
closed = 1;
nodes = (
"675 206 LINE",
"675 475 LINE",
"325 475 LINE",
"325 306 LINE",
"367 306 LINE",
"367 390 LINE",
"499 390 LINE",
"499 86 LINE",
"675 86 LINE",
"675 147 LINE",
"822 294 LINE",
"793 324 LINE"
);
},
{
closed = 1;
nodes = (
"520 454 LINE",
"654 454 LINE",
"654 107 LINE",
"520 107 LINE"
);
}
);
width = 1000;
}
);
unicode = 1D867;
}
{
glyphname = u1D869;
layers = (
{
layerId = "B5BBCF37-8EA3-4A7F-B967-74D10E0B056C";
paths = (
{
closed = 1;
nodes = (
"325 475 LINE",
"325 306 LINE",
"367 306 LINE",
"367 390 LINE",
"499 390 LINE",
"499 128 LINE",
"313 128 LINE",
"313 86 LINE",
"675 86 LINE",
"675 475 LINE"
);
},
{
closed = 1;
nodes = (
"520 454 LINE",
"654 454 LINE",
"654 107 LINE",
"520 107 LINE"
);
}
);
width = 1000;
}
);
unicode = 1D869;
}
{
glyphname = u1D86A;
layers = (
{
layerId = "B5BBCF37-8EA3-4A7F-B967-74D10E0B056C";
paths = (
{
closed = 1;
nodes = (
"325 475 LINE",
"325 363 LINE",
"252 436 LINE",
"223 407 LINE",
"499 131 LINE",
"499 86 LINE",
"675 86 LINE",
"675 475 LINE"
);
},
{
closed = 1;
nodes = (
"520 454 LINE",
"654 454 LINE",
"654 107 LINE",
"520 107 LINE"
);
},
{
closed = 1;
nodes = (
"499 390 LINE",
"499 189 LINE",
"367 321 LINE",
"367 390 LINE"
);
}
);
width = 1000;
}
);
unicode = 1D86A;
}
{
glyphname = u1D86B;
layers = (
{
layerId = "B5BBCF37-8EA3-4A7F-B967-74D10E0B056C";
paths = (
{
closed = 1;
nodes = (
"325 475 LINE",
"325 306 LINE",
"345 306 LINE",
"499 151 LINE",
"499 86 LINE",
"675 86 LINE",
"675 475 LINE"
);
},
{
closed = 1;
nodes = (
"520 454 LINE",
"654 454 LINE",
"654 107 LINE",
"520 107 LINE"
);
},
{
closed = 1;
nodes = (
"499 390 LINE",
"499 212 LINE",
"367 343 LINE",
"367 390 LINE"
);
}
);
width = 1000;
}
);
unicode = 1D86B;
}
{
glyphname = u1D86C;
layers = (
{
layerId = "B5BBCF37-8EA3-4A7F-B967-74D10E0B056C";
paths = (
{
closed = 1;
nodes = (
"550 487 OFFCURVE",
"508 536 OFFCURVE",
"425 536 CURVE SMOOTH",
"387 536 LINE SMOOTH",
"304 536 OFFCURVE",
"262 487 OFFCURVE",
"255 436 CURVE",
"297 436 LINE",
"305 459 OFFCURVE",
"331 475 OFFCURVE",
"372 475 CURVE SMOOTH",
"423 475 LINE SMOOTH",
"467 475 OFFCURVE",
"494 458 OFFCURVE",
"499 431 CURVE",
"499 181 LINE SMOOTH",
"499 145 OFFCURVE",
"468 108 OFFCURVE",
"402 108 CURVE SMOOTH",
"392 108 LINE SMOOTH",
"326 108 OFFCURVE",
"295 145 OFFCURVE",
"295 181 CURVE",
"254 181 LINE",
"254 125 OFFCURVE",
"296 66 OFFCURVE",
"386 66 CURVE SMOOTH",
"409 66 LINE SMOOTH",
"448 66 OFFCURVE",
"477 77 OFFCURVE",
"499 95 CURVE",
"499 86 LINE",
"675 86 LINE",
"675 436 LINE",
"557 436 LINE"
);
},
{
closed = 1;
nodes = (
"520 415 LINE",
"654 415 LINE",
"654 107 LINE",
"520 107 LINE"
);
}
);
width = 1000;
}
);
note = " ";
unicode = 1D86C;
}
{
glyphname = u1D870;
layers = (
{
layerId = "B5BBCF37-8EA3-4A7F-B967-74D10E0B056C";
paths = (
{
closed = 1;
nodes = (
"467 511 OFFCURVE",
"391 542 OFFCURVE",
"326 542 CURVE SMOOTH",
"292 542 LINE",
"292 481 LINE",
"325 481 LINE SMOOTH",
"377 481 OFFCURVE",
"435 457 OFFCURVE",
"485 407 CURVE SMOOTH",
"499 393 LINE",
"499 86 LINE",
"675 86 LINE",
"675 436 LINE",
"542 436 LINE",
"528 450 LINE SMOOTH"
);
},
{
closed = 1;
nodes = (
"520 415 LINE",
"654 415 LINE",
"654 107 LINE",
"520 107 LINE"
);
}
);
width = 1000;
}
);
unicode = 1D870;
}
{
glyphname = u1D873;
layers = (
{
layerId = "B5BBCF37-8EA3-4A7F-B967-74D10E0B056C";
paths = (
{
closed = 1;
nodes = (
"382 475 OFFCURVE",
"314 420 OFFCURVE",
"314 335 CURVE",
"356 335 LINE",
"382 383 OFFCURVE",
"424 390 OFFCURVE",
"483 390 CURVE SMOOTH",
"500 390 LINE",
"500 128 LINE",
"315 128 LINE",
"315 86 LINE",
"520 86 LINE SMOOTH",
"618 86 OFFCURVE",
"686 141 OFFCURVE",
"686 226 CURVE SMOOTH",
"686 335 LINE SMOOTH",
"686 420 OFFCURVE",
"618 475 OFFCURVE",
"520 475 CURVE SMOOTH",
"480 475 LINE SMOOTH"
);
},
{
closed = 1;
nodes = (
"665 157 OFFCURVE",
"608 109 OFFCURVE",
"521 109 CURVE",
"521 454 LINE",
"608 454 OFFCURVE",
"665 406 OFFCURVE",
"665 335 CURVE SMOOTH",
"665 228 LINE SMOOTH"
);
}
);
width = 1000;
}
);
unicode = 1D873;
}
{
glyphname = u1D874;
layers = (
{
layerId = "B5BBCF37-8EA3-4A7F-B967-74D10E0B056C";
paths = (
{
closed = 1;
nodes = (
"442 295 OFFCURVE",
"419 326 OFFCURVE",
"419 356 CURVE SMOOTH",
"419 392 OFFCURVE",
"450 429 OFFCURVE",
"516 429 CURVE SMOOTH",
"610 429 OFFCURVE",
"655 356 OFFCURVE",
"655 283 CURVE SMOOTH",
"655 206 OFFCURVE",
"607 129 OFFCURVE",
"514 129 CURVE SMOOTH",
"395 129 OFFCURVE",
"314 204 OFFCURVE",
"231 313 CURVE",
"197 290 LINE",
"277 179 OFFCURVE",
"375 87 OFFCURVE",
"514 87 CURVE SMOOTH",
"635 87 OFFCURVE",
"697 186 OFFCURVE",
"697 283 CURVE SMOOTH",
"697 378 OFFCURVE",
"638 471 OFFCURVE",
"516 471 CURVE SMOOTH",
"422 471 OFFCURVE",
"378 413 OFFCURVE",
"378 356 CURVE SMOOTH",
"378 304 OFFCURVE",
"415 252 OFFCURVE",
"484 249 CURVE",
"484 291 LINE"
);
}
);
width = 1000;
}
);
unicode = 1D874;
}
{
glyphname = u1D875;
layers = (
{
layerId = "B5BBCF37-8EA3-4A7F-B967-74D10E0B056C";
paths = (
{
closed = 1;
nodes = (
"635 87 OFFCURVE",
"697 186 OFFCURVE",
"697 283 CURVE SMOOTH",
"697 378 OFFCURVE",
"638 471 OFFCURVE",
"516 471 CURVE SMOOTH",
"422 471 OFFCURVE",
"378 412 OFFCURVE",
"378 355 CURVE SMOOTH",
"378 301 OFFCURVE",
"417 249 OFFCURVE",
"491 249 CURVE SMOOTH",
"539 249 LINE",
"539 291 LINE",
"496 291 LINE SMOOTH",
"446 291 OFFCURVE",
"419 323 OFFCURVE",
"419 356 CURVE SMOOTH",
"419 392 OFFCURVE",
"450 429 OFFCURVE",
"516 429 CURVE SMOOTH",
"610 429 OFFCURVE",
"655 356 OFFCURVE",
"655 283 CURVE SMOOTH",
"655 206 OFFCURVE",
"607 129 OFFCURVE",
"514 129 CURVE SMOOTH",
"422 129 OFFCURVE",
"371 166 OFFCURVE",
"293 238 CURVE",
"263 209 LINE",
"349 129 OFFCURVE",
"409 87 OFFCURVE",
"514 87 CURVE SMOOTH"
);
}
);
width = 1000;
}
);
unicode = 1D875;
}
{
glyphname = u1D876;
layers = (
{
layerId = "B5BBCF37-8EA3-4A7F-B967-74D10E0B056C";
paths = (
{
closed = 1;
nodes = (
"597 86 OFFCURVE",
"675 164 OFFCURVE",
"675 261 CURVE SMOOTH",
"675 358 OFFCURVE",
"597 436 OFFCURVE",
"500 436 CURVE SMOOTH",
"403 436 OFFCURVE",
"325 358 OFFCURVE",
"325 261 CURVE SMOOTH",
"325 164 OFFCURVE",
"403 86 OFFCURVE",
"500 86 CURVE SMOOTH"
);
},
{
closed = 1;
nodes = (
"426 128 OFFCURVE",
"367 187 OFFCURVE",
"367 261 CURVE SMOOTH",
"367 335 OFFCURVE",
"426 394 OFFCURVE",
"500 394 CURVE SMOOTH",
"574 394 OFFCURVE",
"633 335 OFFCURVE",
"633 261 CURVE SMOOTH",
"633 187 OFFCURVE",
"574 128 OFFCURVE",
"500 128 CURVE SMOOTH"
);
}
);
width = 1000;
}
);
unicode = 1D876;
}
{
glyphname = u1D877;
layers = (
{
layerId = "B5BBCF37-8EA3-4A7F-B967-74D10E0B056C";
paths = (
{
closed = 1;
nodes = (
"705 436 LINE",
"520 436 LINE SMOOTH",
"378 436 OFFCURVE",
"264 352 OFFCURVE",
"264 253 CURVE SMOOTH",
"264 157 OFFCURVE",
"357 86 OFFCURVE",
"513 86 CURVE SMOOTH",
"705 86 LINE"
);
},
{
closed = 1;
nodes = (
"684 415 LINE",
"684 107 LINE",
"550 107 LINE",
"550 415 LINE"
);
},
{
closed = 1;
nodes = (
"408 128 OFFCURVE",
"325 172 OFFCURVE",
"325 245 CURVE SMOOTH",
"325 310 OFFCURVE",
"400 351 OFFCURVE",
"500 351 CURVE SMOOTH",
"529 351 LINE",
"529 128 LINE",
"508 128 LINE SMOOTH"
);
}
);
width = 1000;
}
);
unicode = 1D877;
}
{
glyphname = u1D878;
layers = (
{
layerId = "B5BBCF37-8EA3-4A7F-B967-74D10E0B056C";
paths = (
{
closed = 1;
nodes = (
"705 206 LINE",
"705 436 LINE",
"520 436 LINE SMOOTH",
"378 436 OFFCURVE",
"264 352 OFFCURVE",
"264 253 CURVE SMOOTH",
"264 249 LINE",
"325 249 LINE",
"328 312 OFFCURVE",
"402 351 OFFCURVE",
"500 351 CURVE SMOOTH",
"529 351 LINE",
"529 86 LINE",
"705 86 LINE",
"705 147 LINE",
"852 294 LINE",
"823 324 LINE"
);
},
{
closed = 1;
nodes = (
"550 415 LINE",
"684 415 LINE",
"684 107 LINE",
"550 107 LINE"
);
}
);
width = 1000;
}
);
unicode = 1D878;
}
{
glyphname = u1D87D;
layers = (
{
layerId = "B5BBCF37-8EA3-4A7F-B967-74D10E0B056C";
paths = (
{
closed = 1;
nodes = (
"255 436 LINE",
"255 351 LINE",
"599 351 LINE",
"599 128 LINE",
"413 128 LINE",
"413 86 LINE",
"775 86 LINE",
"775 436 LINE"
);
},
{
closed = 1;
nodes = (
"620 415 LINE",
"754 415 LINE",
"754 107 LINE",
"620 107 LINE"
);
}
);
width = 1000;
}
);
unicode = 1D87D;
}
{
glyphname = u1D881;
layers = (
{
layerId = "B5BBCF37-8EA3-4A7F-B967-74D10E0B056C";
paths = (
{
closed = 1;
nodes = (
"393 672 LINE",
"525 407 LINE",
"524 407 LINE",
"349 104 LINE",
"502 16 LINE",
"672 310 LINE",
"677 319 LINE",
"488 708 LINE"
);
},
{
closed = 1;
nodes = (
"532 378 LINE",
"648 311 LINE",
"494 45 LINE",
"378 112 LINE"
);
}
);
width = 1000;
}
);
unicode = 1D881;
}
{
glyphname = u1D882;
layers = (
{
layerId = "B5BBCF37-8EA3-4A7F-B967-74D10E0B056C";
paths = (
{
closed = 1;
nodes = (
"255 436 LINE",
"255 351 LINE",
"599 351 LINE",
"599 86 LINE",
"775 86 LINE",
"775 436 LINE"
);
},
{
closed = 1;
nodes = (
"620 415 LINE",
"754 415 LINE",
"754 107 LINE",
"620 107 LINE"
);
}
);
width = 1000;
}
);
unicode = 1D882;
}
{
glyphname = u1D883;
layers = (
{
layerId = "B5BBCF37-8EA3-4A7F-B967-74D10E0B056C";
paths = (
{
closed = 1;
nodes = (
"500 436 LINE",
"463 525 LINE",
"425 507 LINE",
"454 436 LINE",
"255 436 LINE",
"255 351 LINE",
"489 351 LINE",
"598 86 LINE",
"775 86 LINE",
"775 436 LINE"
);
},
{
closed = 1;
nodes = (
"620 415 LINE",
"754 415 LINE",
"754 107 LINE",
"620 107 LINE"
);
},
{
closed = 1;
nodes = (
"599 194 LINE",
"534 351 LINE",
"599 351 LINE"
);
}
);
width = 1000;
}
);
unicode = 1D883;
}
{
glyphname = u1D885;
layers = (
{
layerId = "B5BBCF37-8EA3-4A7F-B967-74D10E0B056C";
paths = (
{
closed = 1;
nodes = (
"775 436 LINE",
"255 436 LINE",
"255 351 LINE",
"379 351 LINE",
"599 131 LINE",
"599 86 LINE",
"775 86 LINE"
);
},
{
closed = 1;
nodes = (
"754 415 LINE",
"754 107 LINE",
"620 107 LINE",
"620 415 LINE"
);
},
{
closed = 1;
nodes = (
"599 351 LINE",
"599 189 LINE",
"437 351 LINE"
);
}
);
width = 1000;
}
);
unicode = 1D885;
}
{
glyphname = u1D886;
layers = (
{
layerId = "B5BBCF37-8EA3-4A7F-B967-74D10E0B056C";
paths = (
{
closed = 1;
nodes = (
"675 436 LINE",
"536 436 LINE",
"676 576 LINE",
"647 605 LINE",
"521 479 LINE",
"521 786 LINE",
"479 786 LINE",
"479 479 LINE",
"353 605 LINE",
"324 576 LINE",
"464 436 LINE",
"325 436 LINE",
"325 86 LINE",
"675 86 LINE"
);
},
{
closed = 1;
nodes = (
"633 394 LINE",
"633 128 LINE",
"367 128 LINE",
"367 394 LINE"
);
}
);
width = 1000;
}
);
unicode = 1D886;
}
{
glyphname = u1D88B;
layers = (
{
layerId = "B5BBCF37-8EA3-4A7F-B967-74D10E0B056C";
paths = (
{
closed = 1;
nodes = (
"681 555 OFFCURVE",
"717 598 OFFCURVE",
"668 641 CURVE SMOOTH",
"619 684 OFFCURVE",
"581 642 OFFCURVE",
"561 619 CURVE SMOOTH",
"545 600 LINE",
"577 573 LINE",
"592 591 LINE SMOOTH",
"614 617 OFFCURVE",
"627 622 OFFCURVE",
"641 610 CURVE SMOOTH",
"654 598 OFFCURVE",
"652 585 OFFCURVE",
"629 559 CURVE SMOOTH",
"521 437 LINE",
"521 662 LINE SMOOTH",
"521 693 OFFCURVE",
"521 750 OFFCURVE",
"455 750 CURVE SMOOTH",
"389 750 OFFCURVE",
"389 693 OFFCURVE",
"389 662 CURVE SMOOTH",
"389 638 LINE",
"431 638 LINE",
"431 662 LINE SMOOTH",
"431 696 OFFCURVE",
"437 708 OFFCURVE",
"455 708 CURVE SMOOTH",
"473 708 OFFCURVE",
"479 697 OFFCURVE",
"479 662 CURVE SMOOTH",
"479 436 LINE",
"391 589 LINE SMOOTH",
"376 615 OFFCURVE",
"347 665 OFFCURVE",
"290 632 CURVE SMOOTH",
"232 599 OFFCURVE",
"261 549 OFFCURVE",
"276 523 CURVE SMOOTH",
"288 502 LINE",
"325 523 LINE",
"313 544 LINE SMOOTH",
"296 573 OFFCURVE",
"295 587 OFFCURVE",
"311 596 CURVE SMOOTH",
"326 605 OFFCURVE",
"337 598 OFFCURVE",
"354 568 CURVE SMOOTH",
"430 436 LINE",
"325 436 LINE",
"325 86 LINE",
"675 86 LINE",
"675 436 LINE",
"576 436 LINE",
"660 531 LINE SMOOTH"
);
},
{
closed = 1;
nodes = (
"367 394 LINE",
"633 394 LINE",
"633 128 LINE",
"367 128 LINE"
);
}
);
width = 1000;
}
);
unicode = 1D88B;
}
{
glyphname = u1D88F;
layers = (
{
layerId = "B5BBCF37-8EA3-4A7F-B967-74D10E0B056C";
paths = (
{
closed = 1;
nodes = (
"675 206 LINE",
"675 786 LINE",
"633 786 LINE",
"633 436 LINE",
"562 436 LINE",
"562 518 LINE",
"579 523 OFFCURVE",
"592 539 OFFCURVE",
"592 559 CURVE SMOOTH",
"592 582 OFFCURVE",
"573 601 OFFCURVE",
"550 601 CURVE SMOOTH",
"526 601 OFFCURVE",
"507 582 OFFCURVE",
"507 559 CURVE SMOOTH",
"507 538 OFFCURVE",
"521 521 OFFCURVE",
"541 517 CURVE",
"541 436 LINE",
"499 436 LINE",
"499 86 LINE",
"675 86 LINE",
"675 147 LINE",
"822 294 LINE",
"793 324 LINE"
);
},
{
closed = 1;
nodes = (
"433 521 OFFCURVE",
"414 502 OFFCURVE",
"414 479 CURVE SMOOTH",
"414 455 OFFCURVE",
"433 436 OFFCURVE",
"457 436 CURVE SMOOTH",
"480 436 OFFCURVE",
"499 455 OFFCURVE",
"499 479 CURVE SMOOTH",
"499 502 OFFCURVE",
"480 521 OFFCURVE",
"457 521 CURVE SMOOTH"
);
},
{
closed = 1;
nodes = (
"520 415 LINE",
"654 415 LINE",
"654 107 LINE",
"520 107 LINE"
);
},
{
closed = 1;
nodes = (
"412 394 OFFCURVE",
"393 375 OFFCURVE",
"393 352 CURVE SMOOTH",
"393 328 OFFCURVE",
"412 309 OFFCURVE",
"436 309 CURVE SMOOTH",
"459 309 OFFCURVE",
"478 328 OFFCURVE",
"478 352 CURVE SMOOTH",
"478 375 OFFCURVE",
"459 394 OFFCURVE",
"436 394 CURVE SMOOTH"
);
}
);
width = 1000;
}
);
unicode = 1D88F;
}
{
glyphname = u1D891;
layers = (
{
layerId = "B5BBCF37-8EA3-4A7F-B967-74D10E0B056C";
paths = (
{
closed = 1;
nodes = (
"675 436 LINE",
"518 436 LINE",
"518 566 LINE SMOOTH",
"518 613 OFFCURVE",
"487 646 OFFCURVE",
"434 646 CURVE SMOOTH",
"392 646 LINE SMOOTH",
"352 646 OFFCURVE",
"324 627 OFFCURVE",
"313 597 CURVE",
"312 597 LINE SMOOTH",
"267 597 OFFCURVE",
"238 574 OFFCURVE",
"230 538 CURVE",
"175 529 OFFCURVE",
"132 480 OFFCURVE",
"132 423 CURVE SMOOTH",
"132 358 OFFCURVE",
"185 305 OFFCURVE",
"250 305 CURVE SMOOTH",
"278 305 OFFCURVE",
"305 315 OFFCURVE",
"325 333 CURVE",
"325 86 LINE",
"675 86 LINE"
);
},
{
closed = 1;
nodes = (
"438 561 OFFCURVE",
"411 593 OFFCURVE",
"363 597 CURVE",
"370 602 OFFCURVE",
"380 604 OFFCURVE",
"392 604 CURVE SMOOTH",
"434 604 LINE SMOOTH",
"463 604 OFFCURVE",
"476 591 OFFCURVE",
"476 566 CURVE SMOOTH",
"476 436 LINE",
"438 436 LINE",
"438 517 LINE SMOOTH"
);
},
{
closed = 1;
nodes = (
"361 486 OFFCURVE",
"323 527 OFFCURVE",
"274 537 CURVE",
"280 549 OFFCURVE",
"293 555 OFFCURVE",
"312 555 CURVE SMOOTH",
"354 555 LINE SMOOTH",
"383 555 OFFCURVE",
"396 542 OFFCURVE",
"396 517 CURVE SMOOTH",
"396 436 LINE",
"366 436 LINE"
);
},
{
closed = 1;
nodes = (
"208 347 OFFCURVE",
"174 381 OFFCURVE",
"174 423 CURVE SMOOTH",
"174 464 OFFCURVE",
"208 498 OFFCURVE",
"250 498 CURVE SMOOTH",
"291 498 OFFCURVE",
"325 464 OFFCURVE",
"325 423 CURVE SMOOTH",
"325 381 OFFCURVE",
"291 347 OFFCURVE",
"250 347 CURVE SMOOTH"
);
},
{
closed = 1;
nodes = (
"633 394 LINE",
"633 128 LINE",
"367 128 LINE",
"367 394 LINE"
);
}
);
width = 1000;
}
);
unicode = 1D891;
}
{
glyphname = u1D893;
layers = (
{
layerId = "B5BBCF37-8EA3-4A7F-B967-74D10E0B056C";
paths = (
{
closed = 1;
nodes = (
"201 505 LINE",
"325 381 LINE",
"325 86 LINE",
"675 86 LINE",
"675 436 LINE",
"395 436 LINE",
"263 568 LINE"
);
},
{
closed = 1;
nodes = (
"367 394 LINE",
"421 394 LINE",
"421 272 LINE",
"463 272 LINE",
"463 394 LINE",
"537 394 LINE",
"537 272 LINE",
"579 272 LINE",
"579 394 LINE",
"633 394 LINE",
"633 128 LINE",
"367 128 LINE"
);
}
);
width = 1000;
}
);
unicode = 1D893;
}
{
glyphname = u1D896;
layers = (
{
layerId = "B5BBCF37-8EA3-4A7F-B967-74D10E0B056C";
paths = (
{
closed = 1;
nodes = (
"446 505 LINE",
"515 436 LINE",
"255 436 LINE",
"255 351 LINE",
"424 351 LINE",
"599 175 LINE",
"599 86 LINE",
"775 86 LINE",
"775 436 LINE",
"640 436 LINE",
"508 568 LINE"
);
},
{
closed = 1;
nodes = (
"620 415 LINE",
"754 415 LINE",
"754 107 LINE",
"620 107 LINE"
);
},
{
closed = 1;
nodes = (
"599 236 LINE",
"483 351 LINE",
"599 351 LINE"
);
}
);
width = 1000;
}
);
unicode = 1D896;
}
{
glyphname = u1D89E;
layers = (
{
layerId = "B5BBCF37-8EA3-4A7F-B967-74D10E0B056C";
paths = (
{
closed = 1;
nodes = (
"354 533 LINE",
"451 436 LINE",
"305 436 LINE",
"226 515 LINE",
"173 462 LINE",
"199 436 LINE",
"132 436 LINE",
"132 394 LINE",
"241 394 LINE",
"482 152 LINE",
"482 86 LINE",
"832 86 LINE",
"832 436 LINE",
"510 436 LINE",
"383 563 LINE"
);
},
{
closed = 1;
nodes = (
"482 258 LINE",
"347 394 LINE",
"482 394 LINE"
);
},
{
closed = 1;
nodes = (
"524 394 LINE",
"790 394 LINE",
"790 128 LINE",
"524 128 LINE"
);
}
);
width = 1000;
}
);
unicode = 1D89E;
}
{
glyphname = u1D89F;
layers = (
{
layerId = "B5BBCF37-8EA3-4A7F-B967-74D10E0B056C";
paths = (
{
closed = 1;
nodes = (
"354 533 LINE",
"451 436 LINE",
"132 436 LINE",
"132 394 LINE",
"236 394 LINE",
"482 148 LINE",
"482 86 LINE",
"832 86 LINE",
"832 436 LINE",
"510 436 LINE",
"383 563 LINE"
);
},
{
closed = 1;
nodes = (
"482 206 LINE",
"294 394 LINE",
"482 394 LINE"
);
},
{
closed = 1;
nodes = (
"524 394 LINE",
"790 394 LINE",
"790 128 LINE",
"524 128 LINE"
);
}
);
width = 1000;
}
);
unicode = 1D89F;
}
{
glyphname = u1D8A3;
layers = (
{
layerId = "B5BBCF37-8EA3-4A7F-B967-74D10E0B056C";
paths = (
{
closed = 1;
nodes = (
"528 436 LINE",
"381 583 LINE",
"352 553 LINE",
"469 436 LINE",
"149 436 LINE",
"149 394 LINE",
"499 394 LINE",
"499 237 LINE",
"356 379 LINE",
"325 351 LINE",
"499 176 LINE",
"499 86 LINE",
"675 86 LINE",
"675 786 LINE",
"633 786 LINE",
"633 436 LINE"
);
},
{
closed = 1;
nodes = (
"520 415 LINE",
"654 415 LINE",
"654 107 LINE",
"520 107 LINE"
);
}
);
width = 1000;
}
);
unicode = 1D8A3;
}
{
glyphname = u1D8A4;
layers = (
{
layerId = "B5BBCF37-8EA3-4A7F-B967-74D10E0B056C";
paths = (
{
closed = 1;
nodes = (
"398 713 LINE",
"369 684 LINE",
"617 436 LINE",
"353 436 LINE",
"226 563 LINE",
"197 533 LINE",
"325 405 LINE",
"325 86 LINE",
"675 86 LINE",
"675 786 LINE",
"633 786 LINE",
"633 478 LINE"
);
},
{
closed = 1;
nodes = (
"367 394 LINE",
"633 394 LINE",
"633 128 LINE",
"367 128 LINE"
);
}
);
width = 1000;
}
);
unicode = 1D8A4;
}
{
glyphname = u1D8A6;
layers = (
{
layerId = "B5BBCF37-8EA3-4A7F-B967-74D10E0B056C";
paths = (
{
closed = 1;
nodes = (
"531 720 LINE",
"493 703 LINE",
"604 436 LINE",
"528 436 LINE",
"381 583 LINE",
"352 553 LINE",
"469 436 LINE",
"313 436 LINE",
"313 394 LINE",
"499 394 LINE",
"499 162 LINE",
"331 232 LINE",
"313 193 LINE",
"499 116 LINE",
"499 86 LINE",
"675 86 LINE",
"675 786 LINE",
"633 786 LINE",
"633 474 LINE"
);
},
{
closed = 1;
nodes = (
"520 415 LINE",
"654 415 LINE",
"654 107 LINE",
"520 107 LINE"
);
}
);
width = 1000;
}
);
unicode = 1D8A6;
}
{
glyphname = u1D8A9;
layers = (
{
layerId = "B5BBCF37-8EA3-4A7F-B967-74D10E0B056C";
paths = (
{
closed = 1;
nodes = (
"479 786 LINE",
"479 632 LINE",
"398 713 LINE",
"369 684 LINE",
"479 574 LINE",
"479 436 LINE",
"353 436 LINE",
"226 563 LINE",
"197 533 LINE",
"325 405 LINE",
"325 86 LINE",
"675 86 LINE",
"675 436 LINE",
"521 590 LINE",
"521 786 LINE"
);
},
{
closed = 1;
nodes = (
"521 436 LINE",
"521 532 LINE",
"617 436 LINE"
);
},
{
closed = 1;
nodes = (
"367 394 LINE",
"633 394 LINE",
"633 128 LINE",
"367 128 LINE"
);
}
);
width = 1000;
}
);
unicode = 1D8A9;
}
{
glyphname = u1D8AA;
layers = (
{
layerId = "B5BBCF37-8EA3-4A7F-B967-74D10E0B056C";
paths = (
{
closed = 1;
nodes = (
"597 86 OFFCURVE",
"675 164 OFFCURVE",
"675 261 CURVE SMOOTH",
"675 436 LINE",
"521 590 LINE",
"521 786 LINE",
"479 786 LINE",
"479 632 LINE",
"398 713 LINE",
"369 684 LINE",
"479 574 LINE",
"479 435 LINE",
"446 431 OFFCURVE",
"416 418 OFFCURVE",
"391 398 CURVE",
"256 533 LINE",
"227 503 LINE",
"362 368 LINE",
"339 339 OFFCURVE",
"325 302 OFFCURVE",
"325 261 CURVE SMOOTH",
"325 164 OFFCURVE",
"403 86 OFFCURVE",
"500 86 CURVE SMOOTH"
);
},
{
closed = 1;
nodes = (
"605 407 OFFCURVE",
"566 429 OFFCURVE",
"521 435 CURVE",
"521 532 LINE",
"633 420 LINE",
"633 375 LINE"
);
},
{
closed = 1;
nodes = (
"426 128 OFFCURVE",
"367 187 OFFCURVE",
"367 261 CURVE SMOOTH",
"367 335 OFFCURVE",
"426 394 OFFCURVE",
"500 394 CURVE SMOOTH",
"574 394 OFFCURVE",
"633 335 OFFCURVE",
"633 261 CURVE SMOOTH",
"633 187 OFFCURVE",
"574 128 OFFCURVE",
"500 128 CURVE SMOOTH"
);
}
);
width = 1000;
}
);
unicode = 1D8AA;
}
{
glyphname = u1D8AE;
layers = (
{
layerId = "B5BBCF37-8EA3-4A7F-B967-74D10E0B056C";
paths = (
{
closed = 1;
nodes = (
"324 576 LINE",
"464 436 LINE",
"325 436 LINE",
"325 86 LINE",
"675 86 LINE",
"675 436 LINE",
"522 436 LINE",
"353 605 LINE"
);
},
{
closed = 1;
nodes = (
"367 394 LINE",
"633 394 LINE",
"633 128 LINE",
"367 128 LINE"
);
}
);
width = 1000;
}
);
unicode = 1D8AE;
}
{
glyphname = u1D8B2;
layers = (
{
layerId = "B5BBCF37-8EA3-4A7F-B967-74D10E0B056C";
paths = (
{
closed = 1;
nodes = (
"529 686 LINE",
"529 465 LINE",
"411 583 LINE",
"382 553 LINE",
"500 435 LINE",
"367 428 OFFCURVE",
"264 347 OFFCURVE",
"264 253 CURVE SMOOTH",
"264 157 OFFCURVE",
"357 86 OFFCURVE",
"513 86 CURVE SMOOTH",
"705 86 LINE",
"705 436 LINE",
"571 436 LINE",
"571 686 LINE"
);
},
{
closed = 1;
nodes = (
"550 415 LINE",
"684 415 LINE",
"684 107 LINE",
"550 107 LINE"
);
},
{
closed = 1;
nodes = (
"408 128 OFFCURVE",
"325 172 OFFCURVE",
"325 245 CURVE SMOOTH",
"325 310 OFFCURVE",
"400 351 OFFCURVE",
"500 351 CURVE SMOOTH",
"529 351 LINE",
"529 128 LINE",
"508 128 LINE SMOOTH"
);
}
);
width = 1000;
}
);
unicode = 1D8B2;
}
{
glyphname = u1D8B3;
layers = (
{
layerId = "B5BBCF37-8EA3-4A7F-B967-74D10E0B056C";
paths = (
{
closed = 1;
nodes = (
"499 686 LINE",
"499 465 LINE",
"381 583 LINE",
"352 553 LINE",
"469 436 LINE",
"155 436 LINE",
"155 351 LINE",
"325 351 LINE",
"499 176 LINE",
"499 86 LINE",
"675 86 LINE",
"675 436 LINE",
"541 436 LINE",
"541 686 LINE"
);
},
{
closed = 1;
nodes = (
"520 415 LINE",
"654 415 LINE",
"654 107 LINE",
"520 107 LINE"
);
},
{
closed = 1;
nodes = (
"499 237 LINE",
"384 351 LINE",
"499 351 LINE"
);
}
);
width = 1000;
}
);
unicode = 1D8B3;
}
{
glyphname = u1D8B6;
layers = (
{
layerId = "B5BBCF37-8EA3-4A7F-B967-74D10E0B056C";
paths = (
{
closed = 1;
nodes = (
"675 436 LINE",
"584 436 LINE",
"584 480 OFFCURVE",
"580 533 OFFCURVE",
"526 533 CURVE SMOOTH",
"503 533 OFFCURVE",
"489 523 OFFCURVE",
"481 508 CURVE",
"472 523 OFFCURVE",
"458 533 OFFCURVE",
"435 533 CURVE SMOOTH",
"381 533 OFFCURVE",
"377 479 OFFCURVE",
"377 436 CURVE",
"325 436 LINE",
"325 86 LINE",
"675 86 LINE"
);
},
{
closed = 1;
nodes = (
"402 484 OFFCURVE",
"406 508 OFFCURVE",
"435 508 CURVE SMOOTH",
"464 508 OFFCURVE",
"468 484 OFFCURVE",
"468 436 CURVE",
"402 436 LINE"
);
},
{
closed = 1;
nodes = (
"493 484 OFFCURVE",
"497 508 OFFCURVE",
"526 508 CURVE SMOOTH",
"555 508 OFFCURVE",
"559 484 OFFCURVE",
"559 436 CURVE",
"493 436 LINE"
);
},
{
closed = 1;
nodes = (
"633 394 LINE",
"633 128 LINE",
"367 128 LINE",
"367 394 LINE"
);
}
);
width = 1000;
}
);
unicode = 1D8B6;
}
{
glyphname = u1D8B9;
layers = (
{
layerId = "B5BBCF37-8EA3-4A7F-B967-74D10E0B056C";
paths = (
{
closed = 1;
nodes = (
"675 436 LINE",
"542 436 LINE",
"542 501 LINE SMOOTH",
"542 578 OFFCURVE",
"521 601 OFFCURVE",
"448 601 CURVE SMOOTH",
"346 601 LINE",
"346 559 LINE",
"452 559 LINE SMOOTH",
"494 559 OFFCURVE",
"500 550 OFFCURVE",
"500 505 CURVE SMOOTH",
"500 436 LINE",
"466 436 LINE",
"466 521 LINE",
"382 521 LINE",
"382 436 LINE",
"325 436 LINE",
"325 86 LINE",
"675 86 LINE"
);
},
{
closed = 1;
nodes = (
"500 394 LINE",
"500 272 LINE",
"542 272 LINE",
"542 394 LINE",
"567 394 LINE",
"567 272 LINE",
"609 272 LINE",
"609 394 LINE",
"633 394 LINE",
"633 128 LINE",
"367 128 LINE",
"367 394 LINE"
);
}
);
width = 1000;
}
);
unicode = 1D8B9;
}
{
glyphname = u1D8BB;
layers = (
{
layerId = "B5BBCF37-8EA3-4A7F-B967-74D10E0B056C";
paths = (
{
closed = 1;
nodes = (
"597 86 OFFCURVE",
"675 164 OFFCURVE",
"675 261 CURVE SMOOTH",
"675 750 LINE",
"633 750 LINE",
"633 375 LINE",
"601 412 OFFCURVE",
"553 436 OFFCURVE",
"500 436 CURVE SMOOTH",
"470 436 OFFCURVE",
"442 429 OFFCURVE",
"418 416 CURVE",
"418 656 LINE",
"376 656 LINE",
"376 413 LINE",
"256 533 LINE",
"227 503 LINE",
"362 368 LINE",
"339 339 OFFCURVE",
"325 302 OFFCURVE",
"325 261 CURVE SMOOTH",
"325 164 OFFCURVE",
"403 86 OFFCURVE",
"500 86 CURVE SMOOTH"
);
},
{
closed = 1;
nodes = (
"426 128 OFFCURVE",
"367 187 OFFCURVE",
"367 261 CURVE SMOOTH",
"367 335 OFFCURVE",
"426 394 OFFCURVE",
"500 394 CURVE SMOOTH",
"574 394 OFFCURVE",
"633 335 OFFCURVE",
"633 261 CURVE SMOOTH",
"633 187 OFFCURVE",
"574 128 OFFCURVE",
"500 128 CURVE SMOOTH"
);
}
);
width = 1000;
}
);
unicode = 1D8BB;
}
{
glyphname = u1D8BC;
layers = (
{
layerId = "B5BBCF37-8EA3-4A7F-B967-74D10E0B056C";
paths = (
{
closed = 1;
nodes = (
"625 446 OFFCURVE",
"579 471 OFFCURVE",
"516 471 CURVE SMOOTH",
"485 471 OFFCURVE",
"460 465 OFFCURVE",
"440 455 CURVE",
"440 656 LINE",
"398 656 LINE",
"398 419 LINE",
"396 415 LINE",
"278 533 LINE",
"249 503 LINE",
"379 373 LINE",
"378 367 OFFCURVE",
"378 362 OFFCURVE",
"378 356 CURVE SMOOTH",
"378 302 OFFCURVE",
"417 249 OFFCURVE",
"491 249 CURVE SMOOTH",
"539 249 LINE",
"539 291 LINE",
"496 291 LINE SMOOTH",
"446 291 OFFCURVE",
"419 323 OFFCURVE",
"419 356 CURVE SMOOTH",
"419 392 OFFCURVE",
"450 429 OFFCURVE",
"516 429 CURVE SMOOTH",
"610 429 OFFCURVE",
"655 356 OFFCURVE",
"655 283 CURVE SMOOTH",
"655 206 OFFCURVE",
"607 129 OFFCURVE",
"514 129 CURVE SMOOTH",
"422 129 OFFCURVE",
"371 166 OFFCURVE",
"293 238 CURVE",
"263 209 LINE",
"349 129 OFFCURVE",
"409 87 OFFCURVE",
"514 87 CURVE SMOOTH",
"630 87 OFFCURVE",
"692 179 OFFCURVE",
"697 272 CURVE",
"697 750 LINE",
"655 750 LINE",
"655 409 LINE"
);
}
);
width = 1000;
}
);
unicode = 1D8BC;
}
{
glyphname = u1D8BF;
layers = (
{
layerId = "B5BBCF37-8EA3-4A7F-B967-74D10E0B056C";
paths = (
{
closed = 1;
nodes = (
"541 436 LINE",
"541 686 LINE",
"499 686 LINE",
"499 495 LINE",
"381 613 LINE",
"352 583 LINE",
"499 436 LINE",
"390 436 LINE SMOOTH",
"317 436 OFFCURVE",
"296 413 OFFCURVE",
"296 336 CURVE SMOOTH",
"296 291 LINE",
"338 291 LINE",
"338 297 LINE SMOOTH",
"338 342 OFFCURVE",
"344 351 OFFCURVE",
"386 351 CURVE SMOOTH",
"390 351 LINE",
"499 86 LINE",
"675 86 LINE",
"675 786 LINE",
"633 786 LINE",
"633 436 LINE"
);
},
{
closed = 1;
nodes = (
"520 415 LINE",
"654 415 LINE",
"654 107 LINE",
"520 107 LINE"
);
},
{
closed = 1;
nodes = (
"499 196 LINE",
"436 351 LINE",
"499 351 LINE"
);
}
);
width = 1000;
}
);
unicode = 1D8BF;
}
{
glyphname = u1D8C1;
layers = (
{
layerId = "B5BBCF37-8EA3-4A7F-B967-74D10E0B056C";
paths = (
{
closed = 1;
nodes = (
"541 436 LINE",
"541 686 LINE",
"499 686 LINE",
"499 465 LINE",
"381 583 LINE",
"352 553 LINE",
"469 436 LINE",
"149 436 LINE",
"149 394 LINE",
"499 394 LINE",
"499 162 LINE",
"331 232 LINE",
"313 193 LINE",
"499 116 LINE",
"499 86 LINE",
"675 86 LINE",
"675 786 LINE",
"633 786 LINE",
"633 436 LINE"
);
},
{
closed = 1;
nodes = (
"520 415 LINE",
"654 415 LINE",
"654 107 LINE",
"520 107 LINE"
);
}
);
width = 1000;
}
);
unicode = 1D8C1;
}
{
glyphname = u1D8C2;
layers = (
{
layerId = "B5BBCF37-8EA3-4A7F-B967-74D10E0B056C";
paths = (
{
closed = 1;
nodes = (
"541 436 LINE",
"541 686 LINE",
"499 686 LINE",
"499 465 LINE",
"381 583 LINE",
"352 553 LINE",
"469 436 LINE",
"321 436 LINE",
"242 515 LINE",
"189 462 LINE",
"215 436 LINE",
"149 436 LINE",
"149 394 LINE",
"257 394 LINE",
"499 151 LINE",
"499 86 LINE",
"675 86 LINE",
"675 786 LINE",
"633 786 LINE",
"633 436 LINE"
);
},
{
closed = 1;
nodes = (
"520 415 LINE",
"654 415 LINE",
"654 107 LINE",
"520 107 LINE"
);
},
{
closed = 1;
nodes = (
"499 257 LINE",
"363 394 LINE",
"499 394 LINE"
);
}
);
width = 1000;
}
);
unicode = 1D8C2;
}
{
glyphname = u1D8C6;
layers = (
{
layerId = "B5BBCF37-8EA3-4A7F-B967-74D10E0B056C";
paths = (
{
closed = 1;
nodes = (
"479 786 LINE",
"479 436 LINE",
"325 436 LINE",
"325 86 LINE",
"675 86 LINE",
"675 436 LINE",
"521 436 LINE",
"521 786 LINE"
);
},
{
closed = 1;
nodes = (
"367 394 LINE",
"633 394 LINE",
"633 128 LINE",
"367 128 LINE"
);
}
);
width = 1000;
}
);
unicode = 1D8C6;
}
{
glyphname = u1D8CF;
layers = (
{
layerId = "B5BBCF37-8EA3-4A7F-B967-74D10E0B056C";
paths = (
{
closed = 1;
nodes = (
"495 786 LINE",
"495 470 LINE",
"480 468 OFFCURVE",
"467 465 OFFCURVE",
"455 461 CURVE",
"364 682 LINE",
"326 665 LINE",
"419 441 LINE",
"408 432 OFFCURVE",
"400 422 OFFCURVE",
"393 412 CURVE",
"272 533 LINE",
"243 503 LINE",
"378 368 LINE",
"372 310 OFFCURVE",
"412 249 OFFCURVE",
"491 249 CURVE SMOOTH",
"539 249 LINE",
"539 291 LINE",
"496 291 LINE SMOOTH",
"391 291 OFFCURVE",
"390 429 OFFCURVE",
"516 429 CURVE SMOOTH",
"707 429 OFFCURVE",
"697 129 OFFCURVE",
"514 129 CURVE SMOOTH",
"422 129 OFFCURVE",
"371 166 OFFCURVE",
"293 238 CURVE",
"263 209 LINE",
"349 129 OFFCURVE",
"409 87 OFFCURVE",
"514 87 CURVE SMOOTH",
"745 87 OFFCURVE",
"762 449 OFFCURVE",
"537 470 CURVE",
"537 786 LINE"
);
}
);
width = 1000;
}
);
unicode = 1D8CF;
}
{
glyphname = u1D8D2;
layers = (
{
layerId = "B5BBCF37-8EA3-4A7F-B967-74D10E0B056C";
paths = (
{
closed = 1;
nodes = (
"675 436 LINE",
"608 436 LINE",
"608 786 LINE",
"566 786 LINE",
"566 438 LINE",
"449 720 LINE",
"411 703 LINE",
"517 447 LINE",
"381 583 LINE",
"352 553 LINE",
"469 436 LINE",
"321 436 LINE",
"242 515 LINE",
"189 462 LINE",
"215 436 LINE",
"149 436 LINE",
"149 394 LINE",
"257 394 LINE",
"499 151 LINE",
"499 86 LINE",
"675 86 LINE"
);
},
{
closed = 1;
nodes = (
"654 415 LINE",
"654 107 LINE",
"520 107 LINE",
"520 415 LINE"
);
},
{
closed = 1;
nodes = (
"499 394 LINE",
"499 257 LINE",
"363 394 LINE"
);
}
);
width = 1000;
}
);
unicode = 1D8D2;
}
{
glyphname = u1D8D3;
layers = (
{
layerId = "B5BBCF37-8EA3-4A7F-B967-74D10E0B056C";
paths = (
{
closed = 1;
nodes = (
"675 436 LINE",
"608 436 LINE",
"608 786 LINE",
"566 786 LINE",
"566 438 LINE",
"449 720 LINE",
"411 703 LINE",
"517 447 LINE",
"381 583 LINE",
"352 553 LINE",
"469 436 LINE",
"315 436 LINE",
"251 500 LINE",
"222 471 LINE",
"257 436 LINE",
"155 436 LINE",
"155 351 LINE",
"342 351 LINE",
"499 194 LINE",
"499 86 LINE",
"675 86 LINE"
);
},
{
closed = 1;
nodes = (
"654 415 LINE",
"654 107 LINE",
"520 107 LINE",
"520 415 LINE"
);
},
{
closed = 1;
nodes = (
"499 351 LINE",
"499 252 LINE",
"400 351 LINE"
);
}
);
width = 1000;
}
);
unicode = 1D8D3;
}
{
glyphname = u1D8D4;
layers = (
{
layerId = "B5BBCF37-8EA3-4A7F-B967-74D10E0B056C";
paths = (
{
closed = 1;
nodes = (
"675 436 LINE",
"608 436 LINE",
"608 786 LINE",
"566 786 LINE",
"566 438 LINE",
"449 720 LINE",
"411 703 LINE",
"517 447 LINE",
"381 583 LINE",
"352 553 LINE",
"469 436 LINE",
"149 436 LINE",
"149 394 LINE",
"256 394 LINE",
"499 151 LINE",
"499 86 LINE",
"675 86 LINE"
);
},
{
closed = 1;
nodes = (
"654 415 LINE",
"654 107 LINE",
"520 107 LINE",
"520 415 LINE"
);
},
{
closed = 1;
nodes = (
"499 394 LINE",
"499 209 LINE",
"314 394 LINE"
);
}
);
width = 1000;
}
);
unicode = 1D8D4;
}
{
glyphname = u1D8D6;
layers = (
{
layerId = "B5BBCF37-8EA3-4A7F-B967-74D10E0B056C";
paths = (
{
closed = 1;
nodes = (
"576 786 LINE",
"576 436 LINE",
"530 436 LINE",
"530 686 LINE",
"508 686 LINE",
"508 436 LINE",
"462 436 LINE",
"462 586 LINE",
"440 586 LINE",
"440 436 LINE",
"325 436 LINE",
"325 309 LINE",
"367 309 LINE",
"367 394 LINE",
"499 394 LINE",
"499 128 LINE",
"367 128 LINE",
"367 172 LINE",
"325 172 LINE",
"325 86 LINE",
"675 86 LINE",
"675 436 LINE",
"598 436 LINE",
"598 786 LINE"
);
},
{
closed = 1;
nodes = (
"520 415 LINE",
"654 415 LINE",
"654 107 LINE",
"520 107 LINE"
);
}
);
width = 1000;
}
);
unicode = 1D8D6;
}
{
glyphname = u1D8D8;
layers = (
{
layerId = "B5BBCF37-8EA3-4A7F-B967-74D10E0B056C";
paths = (
{
closed = 1;
nodes = (
"576 786 LINE",
"576 436 LINE",
"530 436 LINE",
"530 686 LINE",
"508 686 LINE",
"508 436 LINE",
"462 436 LINE",
"462 586 LINE",
"440 586 LINE",
"440 436 LINE",
"411 436 LINE",
"374 525 LINE",
"307 494 LINE",
"335 428 LINE",
"306 416 OFFCURVE",
"296 388 OFFCURVE",
"296 336 CURVE SMOOTH",
"296 311 LINE",
"338 311 LINE",
"338 340 LINE SMOOTH",
"338 367 OFFCURVE",
"340 381 OFFCURVE",
"351 388 CURVE",
"477 86 LINE",
"675 86 LINE",
"675 436 LINE",
"598 436 LINE",
"598 786 LINE"
);
},
{
closed = 1;
nodes = (
"520 415 LINE",
"654 415 LINE",
"654 107 LINE",
"520 107 LINE"
);
},
{
closed = 1;
nodes = (
"499 227 LINE",
"429 394 LINE",
"499 394 LINE"
);
}
);
width = 1000;
}
);
unicode = 1D8D8;
}
{
glyphname = u1D8D9;
layers = (
{
layerId = "B5BBCF37-8EA3-4A7F-B967-74D10E0B056C";
paths = (
{
closed = 1;
nodes = (
"576 786 LINE",
"576 436 LINE",
"530 436 LINE",
"530 686 LINE",
"508 686 LINE",
"508 436 LINE",
"462 436 LINE",
"462 586 LINE",
"440 586 LINE",
"440 436 LINE",
"401 436 LINE",
"364 525 LINE",
"326 507 LINE",
"356 434 LINE",
"310 426 OFFCURVE",
"296 399 OFFCURVE",
"296 336 CURVE SMOOTH",
"296 291 LINE",
"338 291 LINE",
"338 297 LINE SMOOTH",
"338 342 OFFCURVE",
"344 351 OFFCURVE",
"386 351 CURVE SMOOTH",
"390 351 LINE",
"499 86 LINE",
"675 86 LINE",
"675 436 LINE",
"598 436 LINE",
"598 786 LINE"
);
},
{
closed = 1;
nodes = (
"520 415 LINE",
"654 415 LINE",
"654 107 LINE",
"520 107 LINE"
);
},
{
closed = 1;
nodes = (
"499 196 LINE",
"435 351 LINE",
"499 351 LINE"
);
}
);
width = 1000;
}
);
unicode = 1D8D9;
}
{
glyphname = u1D8DA;
layers = (
{
layerId = "B5BBCF37-8EA3-4A7F-B967-74D10E0B056C";
paths = (
{
closed = 1;
nodes = (
"576 786 LINE",
"576 436 LINE",
"530 436 LINE",
"530 686 LINE",
"508 686 LINE",
"508 436 LINE",
"462 436 LINE",
"462 586 LINE",
"440 586 LINE",
"440 436 LINE",
"390 436 LINE SMOOTH",
"317 436 OFFCURVE",
"296 413 OFFCURVE",
"296 336 CURVE SMOOTH",
"296 311 LINE",
"499 108 LINE",
"499 86 LINE",
"675 86 LINE",
"675 436 LINE",
"598 436 LINE",
"598 786 LINE"
);
},
{
closed = 1;
nodes = (
"520 415 LINE",
"654 415 LINE",
"654 107 LINE",
"520 107 LINE"
);
},
{
closed = 1;
nodes = (
"338 385 OFFCURVE",
"344 394 OFFCURVE",
"386 394 CURVE SMOOTH",
"499 394 LINE",
"499 166 LINE",
"338 327 LINE",
"338 340 LINE SMOOTH"
);
}
);
width = 1000;
}
);
unicode = 1D8DA;
}
{
glyphname = u1D8DB;
layers = (
{
layerId = "B5BBCF37-8EA3-4A7F-B967-74D10E0B056C";
paths = (
{
closed = 1;
nodes = (
"675 206 LINE",
"675 436 LINE",
"598 436 LINE",
"598 786 LINE",
"576 786 LINE",
"576 436 LINE",
"530 436 LINE",
"530 686 LINE",
"508 686 LINE",
"508 436 LINE",
"462 436 LINE",
"462 586 LINE",
"440 586 LINE",
"440 436 LINE",
"149 436 LINE",
"149 394 LINE",
"499 394 LINE",
"499 86 LINE",
"675 86 LINE",
"675 147 LINE",
"822 294 LINE",
"793 324 LINE"
);
},
{
closed = 1;
nodes = (
"520 415 LINE",
"654 415 LINE",
"654 107 LINE",
"520 107 LINE"
);
}
);
width = 1000;
}
);
unicode = 1D8DB;
}
{
glyphname = u1D8DC;
layers = (
{
layerId = "B5BBCF37-8EA3-4A7F-B967-74D10E0B056C";
paths = (
{
closed = 1;
nodes = (
"675 786 LINE",
"633 786 LINE",
"633 436 LINE",
"325 436 LINE",
"325 86 LINE",
"675 86 LINE",
"675 240 LINE",
"861 240 LINE",
"861 282 LINE",
"675 282 LINE"
);
},
{
closed = 1;
nodes = (
"367 394 LINE",
"633 394 LINE",
"633 128 LINE",
"367 128 LINE"
);
}
);
width = 1000;
}
);
unicode = 1D8DC;
}
{
glyphname = u1D8DE;
layers = (
{
layerId = "B5BBCF37-8EA3-4A7F-B967-74D10E0B056C";
paths = (
{
closed = 1;
nodes = (
"675 306 LINE",
"675 786 LINE",
"633 786 LINE",
"633 436 LINE",
"325 436 LINE",
"325 86 LINE",
"675 86 LINE",
"675 247 LINE",
"822 394 LINE",
"793 424 LINE"
);
},
{
closed = 1;
nodes = (
"367 394 LINE",
"633 394 LINE",
"633 128 LINE",
"367 128 LINE"
);
}
);
width = 1000;
}
);
unicode = 1D8DE;
}
{
glyphname = u1D8E0;
layers = (
{
layerId = "B5BBCF37-8EA3-4A7F-B967-74D10E0B056C";
paths = (
{
closed = 1;
nodes = (
"722 491 LINE",
"693 461 LINE",
"763 391 LINE",
"675 303 LINE",
"675 786 LINE",
"633 786 LINE",
"633 436 LINE",
"325 436 LINE",
"325 86 LINE",
"675 86 LINE",
"675 244 LINE",
"822 391 LINE"
);
},
{
closed = 1;
nodes = (
"367 394 LINE",
"633 394 LINE",
"633 128 LINE",
"367 128 LINE"
);
}
);
width = 1000;
}
);
unicode = 1D8E0;
}
{
glyphname = u1D8E1;
layers = (
{
layerId = "B5BBCF37-8EA3-4A7F-B967-74D10E0B056C";
paths = (
{
closed = 1;
nodes = (
"695 688 LINE",
"510 688 LINE",
"510 573 LINE",
"552 573 LINE",
"552 646 LINE",
"653 646 LINE",
"653 428 LINE",
"345 428 LINE",
"345 78 LINE",
"695 78 LINE",
"695 230 LINE",
"881 230 LINE",
"881 272 LINE",
"695 272 LINE"
);
},
{
closed = 1;
nodes = (
"387 386 LINE",
"653 386 LINE",
"653 120 LINE",
"387 120 LINE"
);
}
);
width = 1000;
}
);
unicode = 1D8E1;
}
{
glyphname = u1D8E2;
layers = (
{
layerId = "B5BBCF37-8EA3-4A7F-B967-74D10E0B056C";
paths = (
{
closed = 1;
nodes = (
"756 317 LINE",
"793 317 LINE",
"793 272 LINE",
"695 272 LINE",
"695 688 LINE",
"510 688 LINE",
"510 573 LINE",
"552 573 LINE",
"552 646 LINE",
"653 646 LINE",
"653 428 LINE",
"345 428 LINE",
"345 78 LINE",
"695 78 LINE",
"695 230 LINE",
"835 230 LINE",
"835 359 LINE",
"756 359 LINE"
);
},
{
closed = 1;
nodes = (
"387 386 LINE",
"653 386 LINE",
"653 120 LINE",
"387 120 LINE"
);
}
);
width = 1000;
}
);
unicode = 1D8E2;
}
{
glyphname = u1D8E5;
layers = (
{
layerId = "B5BBCF37-8EA3-4A7F-B967-74D10E0B056C";
paths = (
{
closed = 1;
nodes = (
"552 573 LINE",
"552 646 LINE",
"653 646 LINE",
"653 428 LINE",
"345 428 LINE",
"345 78 LINE",
"695 78 LINE",
"695 688 LINE",
"510 688 LINE",
"510 573 LINE"
);
},
{
closed = 1;
nodes = (
"387 386 LINE",
"653 386 LINE",
"653 120 LINE",
"387 120 LINE"
);
},
{
closed = 1;
nodes = (
"542 251 OFFCURVE",
"520 229 OFFCURVE",
"520 202 CURVE SMOOTH",
"520 175 OFFCURVE",
"542 153 OFFCURVE",
"569 153 CURVE SMOOTH",
"596 153 OFFCURVE",
"618 175 OFFCURVE",
"618 202 CURVE SMOOTH",
"618 229 OFFCURVE",
"596 251 OFFCURVE",
"569 251 CURVE SMOOTH"
);
}
);
width = 1000;
}
);
unicode = 1D8E5;
}
{
glyphname = u1D8EA;
layers = (
{
layerId = "B5BBCF37-8EA3-4A7F-B967-74D10E0B056C";
paths = (
{
closed = 1;
nodes = (
"359 494 OFFCURVE",
"309 539 OFFCURVE",
"250 539 CURVE SMOOTH",
"185 539 OFFCURVE",
"132 486 OFFCURVE",
"132 422 CURVE",
"174 422 LINE",
"174 445 OFFCURVE",
"185 466 OFFCURVE",
"202 480 CURVE",
"325 85 LINE",
"335 85 LINE",
"335 86 LINE",
"675 86 LINE",
"675 436 LINE",
"366 436 LINE"
);
},
{
closed = 1;
nodes = (
"243 497 OFFCURVE",
"246 497 OFFCURVE",
"250 497 CURVE SMOOTH",
"291 497 OFFCURVE",
"325 463 OFFCURVE",
"325 422 CURVE SMOOTH",
"325 223 LINE",
"240 496 LINE"
);
},
{
closed = 1;
nodes = (
"367 394 LINE",
"633 394 LINE",
"633 128 LINE",
"367 128 LINE"
);
}
);
width = 1000;
}
);
unicode = 1D8EA;
}
{
glyphname = u1D8ED;
layers = (
{
layerId = "B5BBCF37-8EA3-4A7F-B967-74D10E0B056C";
paths = (
{
closed = 1;
nodes = (
"477 487 OFFCURVE",
"446 520 OFFCURVE",
"393 520 CURVE SMOOTH",
"283 520 LINE SMOOTH",
"230 520 OFFCURVE",
"189 477 OFFCURVE",
"189 430 CURVE SMOOTH",
"189 408 LINE",
"231 408 LINE",
"231 430 LINE SMOOTH",
"231 455 OFFCURVE",
"255 478 OFFCURVE",
"283 478 CURVE SMOOTH",
"393 478 LINE SMOOTH",
"422 478 OFFCURVE",
"435 465 OFFCURVE",
"435 440 CURVE SMOOTH",
"435 128 LINE",
"283 128 LINE SMOOTH",
"255 128 OFFCURVE",
"231 151 OFFCURVE",
"231 176 CURVE SMOOTH",
"231 198 LINE",
"189 198 LINE",
"189 176 LINE SMOOTH",
"189 129 OFFCURVE",
"230 86 OFFCURVE",
"283 86 CURVE SMOOTH",
"785 86 LINE",
"785 436 LINE",
"477 436 LINE",
"477 440 LINE SMOOTH"
);
},
{
closed = 1;
nodes = (
"477 394 LINE",
"743 394 LINE",
"743 128 LINE",
"477 128 LINE"
);
}
);
width = 1000;
}
);
unicode = 1D8ED;
}
{
glyphname = u1D8EE;
layers = (
{
layerId = "B5BBCF37-8EA3-4A7F-B967-74D10E0B056C";
paths = (
{
closed = 1;
nodes = (
"335 553 LINE",
"482 406 LINE",
"482 128 LINE",
"287 128 LINE",
"287 86 LINE",
"832 86 LINE",
"832 436 LINE",
"511 436 LINE",
"364 583 LINE"
);
},
{
closed = 1;
nodes = (
"524 394 LINE",
"790 394 LINE",
"790 128 LINE",
"524 128 LINE"
);
}
);
width = 1000;
}
);
unicode = 1D8EE;
}
{
glyphname = u1D8EF;
layers = (
{
layerId = "B5BBCF37-8EA3-4A7F-B967-74D10E0B056C";
paths = (
{
closed = 1;
nodes = (
"132 436 LINE",
"132 394 LINE",
"482 394 LINE",
"482 128 LINE",
"287 128 LINE",
"287 86 LINE",
"832 86 LINE",
"832 436 LINE"
);
},
{
closed = 1;
nodes = (
"524 394 LINE",
"790 394 LINE",
"790 128 LINE",
"524 128 LINE"
);
}
);
width = 1000;
}
);
unicode = 1D8EF;
}
{
glyphname = u1D8F4;
layers = (
{
layerId = "B5BBCF37-8EA3-4A7F-B967-74D10E0B056C";
paths = (
{
closed = 1;
nodes = (
"133 436 LINE",
"133 394 LINE",
"307 394 LINE",
"482 218 LINE",
"482 86 LINE",
"832 86 LINE",
"832 436 LINE"
);
},
{
closed = 1;
nodes = (
"482 279 LINE",
"366 394 LINE",
"482 394 LINE"
);
},
{
closed = 1;
nodes = (
"524 394 LINE",
"790 394 LINE",
"790 128 LINE",
"524 128 LINE"
);
}
);
width = 1000;
}
);
unicode = 1D8F4;
}
{
glyphname = u1D8F6;
layers = (
{
layerId = "B5BBCF37-8EA3-4A7F-B967-74D10E0B056C";
paths = (
{
closed = 1;
nodes = (
"675 340 LINE",
"325 340 LINE",
"325 86 LINE",
"675 86 LINE"
);
},
{
closed = 1;
nodes = (
"633 298 LINE",
"633 213 LINE",
"367 213 LINE",
"367 298 LINE"
);
},
{
closed = 1;
nodes = (
"825 191 LINE",
"825 233 LINE",
"714 233 LINE",
"714 191 LINE"
);
}
);
width = 1000;
}
);
unicode = 1D8F6;
}
{
glyphname = u1D8F8;
layers = (
{
layerId = "B5BBCF37-8EA3-4A7F-B967-74D10E0B056C";
paths = (
{
closed = 1;
nodes = (
"720 137 OFFCURVE",
"712 129 OFFCURVE",
"675 128 CURVE",
"675 436 LINE",
"325 436 LINE",
"325 86 LINE",
"675 86 LINE",
"742 89 OFFCURVE",
"762 111 OFFCURVE",
"762 180 CURVE SMOOTH",
"762 436 LINE",
"720 436 LINE",
"720 176 LINE SMOOTH"
);
},
{
closed = 1;
nodes = (
"367 394 LINE",
"633 394 LINE",
"633 128 LINE",
"367 128 LINE"
);
}
);
width = 1000;
}
);
unicode = 1D8F8;
}
{
glyphname = u1D8FD;
layers = (
{
layerId = "B5BBCF37-8EA3-4A7F-B967-74D10E0B056C";
paths = (
{
closed = 1;
nodes = (
"675 436 LINE",
"456 436 LINE",
"456 520 LINE",
"372 520 LINE",
"372 436 LINE",
"325 436 LINE",
"325 86 LINE",
"675 86 LINE"
);
},
{
closed = 1;
nodes = (
"431 394 LINE",
"431 272 LINE",
"473 272 LINE",
"473 394 LINE",
"527 394 LINE",
"527 272 LINE",
"569 272 LINE",
"569 394 LINE",
"633 394 LINE",
"633 128 LINE",
"367 128 LINE",
"367 394 LINE"
);
}
);
width = 1000;
}
);
unicode = 1D8FD;
}
{
glyphname = u1D8FF;
layers = (
{
layerId = "B5BBCF37-8EA3-4A7F-B967-74D10E0B056C";
paths = (
{
closed = 1;
nodes = (
"674 435 LINE",
"649 435 LINE",
"649 496 OFFCURVE",
"649 526 OFFCURVE",
"607 526 CURVE SMOOTH",
"590 526 OFFCURVE",
"580 521 OFFCURVE",
"574 511 CURVE",
"568 521 OFFCURVE",
"558 526 OFFCURVE",
"541 526 CURVE SMOOTH",
"499 526 OFFCURVE",
"499 496 OFFCURVE",
"499 435 CURVE",
"324 435 LINE",
"324 85 LINE",
"674 85 LINE"
);
},
{
closed = 1;
nodes = (
"520 494 OFFCURVE",
"520 505 OFFCURVE",
"541 505 CURVE SMOOTH",
"562 505 OFFCURVE",
"562 494 OFFCURVE",
"562 435 CURVE SMOOTH",
"562 372 LINE",
"520 372 LINE",
"520 435 LINE SMOOTH"
);
},
{
closed = 1;
nodes = (
"586 494 OFFCURVE",
"586 505 OFFCURVE",
"607 505 CURVE SMOOTH",
"628 505 OFFCURVE",
"628 494 OFFCURVE",
"628 435 CURVE SMOOTH",
"628 372 LINE",
"586 372 LINE",
"586 435 LINE SMOOTH"
);
},
{
closed = 1;
nodes = (
"499 393 LINE",
"499 248 LINE",
"632 248 LINE",
"632 127 LINE",
"366 127 LINE",
"366 393 LINE"
);
},
{
closed = 1;
nodes = (
"562 330 LINE",
"562 269 LINE",
"520 269 LINE",
"520 330 LINE"
);
},
{
closed = 1;
nodes = (
"628 330 LINE",
"628 269 LINE",
"586 269 LINE",
"586 330 LINE"
);
}
);
width = 1000;
}
);
unicode = 1D8FF;
}
{
glyphname = u1D906;
layers = (
{
layerId = "B5BBCF37-8EA3-4A7F-B967-74D10E0B056C";
paths = (
{
closed = 1;
nodes = (
"382 263 LINE",
"459 219 LINE",
"480 256 LINE",
"404 300 LINE",
"480 344 LINE",
"459 381 LINE",
"382 337 LINE",
"382 425 LINE",
"340 425 LINE",
"340 337 LINE",
"263 381 LINE",
"242 344 LINE",
"318 300 LINE",
"242 256 LINE",
"263 219 LINE",
"340 263 LINE",
"340 175 LINE",
"382 175 LINE"
);
},
{
closed = 1;
nodes = (
"660 263 LINE",
"737 219 LINE",
"758 256 LINE",
"682 300 LINE",
"758 344 LINE",
"737 381 LINE",
"660 337 LINE",
"660 425 LINE",
"618 425 LINE",
"618 337 LINE",
"541 381 LINE",
"520 344 LINE",
"596 300 LINE",
"520 256 LINE",
"541 219 LINE",
"618 263 LINE",
"618 175 LINE",
"660 175 LINE"
);
}
);
width = 1000;
}
);
unicode = 1D906;
}
{
glyphname = u1D907;
layers = (
{
layerId = "B5BBCF37-8EA3-4A7F-B967-74D10E0B056C";
paths = (
{
closed = 1;
nodes = (
"341 454 LINE",
"299 454 LINE",
"299 126 LINE",
"341 126 LINE"
);
},
{
closed = 1;
nodes = (
"701 454 LINE",
"659 454 LINE",
"659 126 LINE",
"701 126 LINE"
);
},
{
closed = 1;
nodes = (
"521 263 LINE",
"598 219 LINE",
"619 256 LINE",
"543 300 LINE",
"619 344 LINE",
"598 381 LINE",
"521 337 LINE",
"521 425 LINE",
"479 425 LINE",
"479 337 LINE",
"402 381 LINE",
"381 344 LINE",
"457 300 LINE",
"381 256 LINE",
"402 219 LINE",
"479 263 LINE",
"479 175 LINE",
"521 175 LINE"
);
}
);
width = 1000;
}
);
unicode = 1D907;
}
{
glyphname = u1D908;
layers = (
{
layerId = "B5BBCF37-8EA3-4A7F-B967-74D10E0B056C";
paths = (
{
closed = 1;
nodes = (
"521 416 LINE",
"479 416 LINE",
"479 321 LINE",
"386 321 LINE",
"386 279 LINE",
"479 279 LINE",
"479 184 LINE",
"521 184 LINE",
"521 279 LINE",
"614 279 LINE",
"614 321 LINE",
"521 321 LINE"
);
}
);
width = 1000;
}
);
unicode = 1D908;
}
{
glyphname = u1D909;
layers = (
{
layerId = "B5BBCF37-8EA3-4A7F-B967-74D10E0B056C";
paths = (
{
closed = 1;
nodes = (
"345 321 LINE",
"252 321 LINE",
"252 279 LINE",
"345 279 LINE",
"345 184 LINE",
"387 184 LINE",
"387 279 LINE",
"480 279 LINE",
"480 321 LINE",
"387 321 LINE",
"387 416 LINE",
"345 416 LINE"
);
},
{
closed = 1;
nodes = (
"655 416 LINE",
"613 416 LINE",
"613 321 LINE",
"520 321 LINE",
"520 279 LINE",
"613 279 LINE",
"613 184 LINE",
"655 184 LINE",
"655 279 LINE",
"748 279 LINE",
"748 321 LINE",
"655 321 LINE"
);
}
);
width = 1000;
}
);
unicode = 1D909;
}
{
glyphname = u1D90A;
layers = (
{
layerId = "B5BBCF37-8EA3-4A7F-B967-74D10E0B056C";
paths = (
{
closed = 1;
nodes = (
"346 454 LINE",
"304 454 LINE",
"304 126 LINE",
"346 126 LINE"
);
},
{
closed = 1;
nodes = (
"696 126 LINE",
"696 454 LINE",
"654 454 LINE",
"654 126 LINE"
);
},
{
closed = 1;
nodes = (
"479 321 LINE",
"386 321 LINE",
"386 279 LINE",
"479 279 LINE",
"479 184 LINE",
"521 184 LINE",
"521 279 LINE",
"614 279 LINE",
"614 321 LINE",
"521 321 LINE",
"521 416 LINE",
"479 416 LINE"
);
}
);
width = 1000;
}
);
unicode = 1D90A;
}
{
glyphname = u1D90C;
layers = (
{
layerId = "B5BBCF37-8EA3-4A7F-B967-74D10E0B056C";
paths = (
{
closed = 1;
nodes = (
"378 372 LINE",
"318 372 LINE",
"318 432 LINE",
"276 432 LINE",
"276 372 LINE",
"216 372 LINE",
"216 330 LINE",
"276 330 LINE",
"276 270 LINE",
"216 270 LINE",
"216 228 LINE",
"276 228 LINE",
"276 168 LINE",
"318 168 LINE",
"318 228 LINE",
"378 228 LINE",
"378 168 LINE",
"420 168 LINE",
"420 228 LINE",
"480 228 LINE",
"480 270 LINE",
"420 270 LINE",
"420 330 LINE",
"480 330 LINE",
"480 372 LINE",
"420 372 LINE",
"420 432 LINE",
"378 432 LINE"
);
},
{
closed = 1;
nodes = (
"724 372 LINE",
"724 432 LINE",
"682 432 LINE",
"682 372 LINE",
"622 372 LINE",
"622 432 LINE",
"580 432 LINE",
"580 372 LINE",
"520 372 LINE",
"520 330 LINE",
"580 330 LINE",
"580 270 LINE",
"520 270 LINE",
"520 228 LINE",
"580 228 LINE",
"580 168 LINE",
"622 168 LINE",
"622 228 LINE",
"682 228 LINE",
"682 168 LINE",
"724 168 LINE",
"724 228 LINE",
"784 228 LINE",
"784 270 LINE",
"724 270 LINE",
"724 330 LINE",
"784 330 LINE",
"784 372 LINE"
);
},
{
closed = 1;
nodes = (
"318 330 LINE",
"378 330 LINE",
"378 270 LINE",
"318 270 LINE"
);
},
{
closed = 1;
nodes = (
"622 330 LINE",
"682 330 LINE",
"682 270 LINE",
"622 270 LINE"
);
}
);
width = 1000;
}
);
unicode = 1D90C;
}
{
glyphname = u1D90D;
layers = (
{
layerId = "B5BBCF37-8EA3-4A7F-B967-74D10E0B056C";
paths = (
{
closed = 1;
nodes = (
"338 454 LINE",
"296 454 LINE",
"296 126 LINE",
"338 126 LINE"
);
},
{
closed = 1;
nodes = (
"704 126 LINE",
"704 454 LINE",
"662 454 LINE",
"662 126 LINE"
);
},
{
closed = 1;
nodes = (
"530 372 LINE",
"470 372 LINE",
"470 432 LINE",
"428 432 LINE",
"428 372 LINE",
"368 372 LINE",
"368 330 LINE",
"428 330 LINE",
"428 270 LINE",
"368 270 LINE",
"368 228 LINE",
"428 228 LINE",
"428 168 LINE",
"470 168 LINE",
"470 228 LINE",
"530 228 LINE",
"530 168 LINE",
"572 168 LINE",
"572 228 LINE",
"632 228 LINE",
"632 270 LINE",
"572 270 LINE",
"572 330 LINE",
"632 330 LINE",
"632 372 LINE",
"572 372 LINE",
"572 432 LINE",
"530 432 LINE"
);
},
{
closed = 1;
nodes = (
"470 330 LINE",
"530 330 LINE",
"530 270 LINE",
"470 270 LINE"
);
}
);
width = 1000;
}
);
unicode = 1D90D;
}
{
glyphname = u1D90E;
layers = (
{
layerId = "B5BBCF37-8EA3-4A7F-B967-74D10E0B056C";
paths = (
{
closed = 1;
nodes = (
"574 166 OFFCURVE",
"634 226 OFFCURVE",
"634 300 CURVE SMOOTH",
"634 374 OFFCURVE",
"574 434 OFFCURVE",
"500 434 CURVE SMOOTH",
"426 434 OFFCURVE",
"366 374 OFFCURVE",
"366 300 CURVE SMOOTH",
"366 226 OFFCURVE",
"426 166 OFFCURVE",
"500 166 CURVE SMOOTH"
);
},
{
closed = 1;
nodes = (
"449 208 OFFCURVE",
"408 249 OFFCURVE",
"408 300 CURVE SMOOTH",
"408 351 OFFCURVE",
"449 392 OFFCURVE",
"500 392 CURVE SMOOTH",
"551 392 OFFCURVE",
"592 351 OFFCURVE",
"592 300 CURVE SMOOTH",
"592 249 OFFCURVE",
"551 208 OFFCURVE",
"500 208 CURVE SMOOTH"
);
},
{
closed = 1;
nodes = (
"528 250 OFFCURVE",
"550 272 OFFCURVE",
"550 300 CURVE SMOOTH",
"550 328 OFFCURVE",
"528 350 OFFCURVE",
"500 350 CURVE SMOOTH",
"472 350 OFFCURVE",
"450 328 OFFCURVE",
"450 300 CURVE SMOOTH",
"450 272 OFFCURVE",
"472 250 OFFCURVE",
"500 250 CURVE SMOOTH"
);
}
);
width = 1000;
}
);
unicode = 1D90E;
}
{
glyphname = u1D90F;
layers = (
{
layerId = "B5BBCF37-8EA3-4A7F-B967-74D10E0B056C";
paths = (
{
closed = 1;
nodes = (
"420 166 OFFCURVE",
"480 226 OFFCURVE",
"480 300 CURVE SMOOTH",
"480 374 OFFCURVE",
"420 434 OFFCURVE",
"346 434 CURVE SMOOTH",
"272 434 OFFCURVE",
"212 374 OFFCURVE",
"212 300 CURVE SMOOTH",
"212 226 OFFCURVE",
"272 166 OFFCURVE",
"346 166 CURVE SMOOTH"
);
},
{
closed = 1;
nodes = (
"728 166 OFFCURVE",
"788 226 OFFCURVE",
"788 300 CURVE SMOOTH",
"788 374 OFFCURVE",
"728 434 OFFCURVE",
"654 434 CURVE SMOOTH",
"580 434 OFFCURVE",
"520 374 OFFCURVE",
"520 300 CURVE SMOOTH",
"520 226 OFFCURVE",
"580 166 OFFCURVE",
"654 166 CURVE SMOOTH"
);
},
{
closed = 1;
nodes = (
"295 208 OFFCURVE",
"254 249 OFFCURVE",
"254 300 CURVE SMOOTH",
"254 351 OFFCURVE",
"295 392 OFFCURVE",
"346 392 CURVE SMOOTH",
"397 392 OFFCURVE",
"438 351 OFFCURVE",
"438 300 CURVE SMOOTH",
"438 249 OFFCURVE",
"397 208 OFFCURVE",
"346 208 CURVE SMOOTH"
);
},
{
closed = 1;
nodes = (
"603 208 OFFCURVE",
"562 249 OFFCURVE",
"562 300 CURVE SMOOTH",
"562 351 OFFCURVE",
"603 392 OFFCURVE",
"654 392 CURVE SMOOTH",
"705 392 OFFCURVE",
"746 351 OFFCURVE",
"746 300 CURVE SMOOTH",
"746 249 OFFCURVE",
"705 208 OFFCURVE",
"654 208 CURVE SMOOTH"
);
},
{
closed = 1;
nodes = (
"374 250 OFFCURVE",
"396 272 OFFCURVE",
"396 300 CURVE SMOOTH",
"396 328 OFFCURVE",
"374 350 OFFCURVE",
"346 350 CURVE SMOOTH",
"318 350 OFFCURVE",
"296 328 OFFCURVE",
"296 300 CURVE SMOOTH",
"296 272 OFFCURVE",
"318 250 OFFCURVE",
"346 250 CURVE SMOOTH"
);
},
{
closed = 1;
nodes = (
"682 250 OFFCURVE",
"704 272 OFFCURVE",
"704 300 CURVE SMOOTH",
"704 328 OFFCURVE",
"682 350 OFFCURVE",
"654 350 CURVE SMOOTH",
"626 350 OFFCURVE",
"604 328 OFFCURVE",
"604 300 CURVE SMOOTH",
"604 272 OFFCURVE",
"626 250 OFFCURVE",
"654 250 CURVE SMOOTH"
);
}
);
width = 1000;
}
);
unicode = 1D90F;
}
{
glyphname = u1D912;
layers = (
{
layerId = "B5BBCF37-8EA3-4A7F-B967-74D10E0B056C";
paths = (
{
closed = 1;
nodes = (
"397 153 OFFCURVE",
"439 167 OFFCURVE",
"481 195 CURVE",
"457 233 LINE",
"429 208 OFFCURVE",
"395 195 OFFCURVE",
"356 195 CURVE SMOOTH",
"293 195 OFFCURVE",
"247 235 OFFCURVE",
"247 300 CURVE SMOOTH",
"247 365 OFFCURVE",
"288 405 OFFCURVE",
"351 405 CURVE SMOOTH",
"393 405 OFFCURVE",
"419 379 OFFCURVE",
"419 342 CURVE SMOOTH",
"419 292 OFFCURVE",
"391 279 OFFCURVE",
"361 279 CURVE SMOOTH",
"337 279 OFFCURVE",
"331 291 OFFCURVE",
"331 300 CURVE SMOOTH",
"331 309 OFFCURVE",
"337 321 OFFCURVE",
"354 321 CURVE SMOOTH",
"369 321 LINE",
"377 363 LINE",
"356 363 LINE SMOOTH",
"316 363 OFFCURVE",
"289 337 OFFCURVE",
"289 300 CURVE SMOOTH",
"289 266 OFFCURVE",
"313 237 OFFCURVE",
"361 237 CURVE SMOOTH",
"418 237 OFFCURVE",
"461 271 OFFCURVE",
"461 342 CURVE SMOOTH",
"461 404 OFFCURVE",
"419 447 OFFCURVE",
"346 447 CURVE SMOOTH",
"263 447 OFFCURVE",
"205 388 OFFCURVE",
"205 300 CURVE SMOOTH",
"205 212 OFFCURVE",
"265 153 OFFCURVE",
"356 153 CURVE SMOOTH"
);
},
{
closed = 1;
nodes = (
"711 153 OFFCURVE",
"753 167 OFFCURVE",
"795 195 CURVE",
"771 233 LINE",
"743 208 OFFCURVE",
"709 195 OFFCURVE",
"670 195 CURVE SMOOTH",
"607 195 OFFCURVE",
"561 235 OFFCURVE",
"561 300 CURVE SMOOTH",
"561 365 OFFCURVE",
"602 405 OFFCURVE",
"665 405 CURVE SMOOTH",
"707 405 OFFCURVE",
"733 379 OFFCURVE",
"733 342 CURVE SMOOTH",
"733 292 OFFCURVE",
"705 279 OFFCURVE",
"675 279 CURVE SMOOTH",
"651 279 OFFCURVE",
"645 291 OFFCURVE",
"645 300 CURVE SMOOTH",
"645 309 OFFCURVE",
"651 321 OFFCURVE",
"668 321 CURVE SMOOTH",
"683 321 LINE",
"691 363 LINE",
"670 363 LINE SMOOTH",
"630 363 OFFCURVE",
"603 337 OFFCURVE",
"603 300 CURVE SMOOTH",
"603 266 OFFCURVE",
"627 237 OFFCURVE",
"675 237 CURVE SMOOTH",
"732 237 OFFCURVE",
"775 271 OFFCURVE",
"775 342 CURVE SMOOTH",
"775 404 OFFCURVE",
"733 447 OFFCURVE",
"660 447 CURVE SMOOTH",
"577 447 OFFCURVE",
"519 388 OFFCURVE",
"519 300 CURVE SMOOTH",
"519 212 OFFCURVE",
"579 153 OFFCURVE",
"670 153 CURVE SMOOTH"
);
}
);
width = 1000;
}
);
unicode = 1D912;
}
{
glyphname = u1D914;
layers = (
{
layerId = "B5BBCF37-8EA3-4A7F-B967-74D10E0B056C";
paths = (
{
closed = 1;
nodes = (
"665 268 LINE",
"602 268 LINE",
"602 315 OFFCURVE",
"564 352 OFFCURVE",
"511 352 CURVE SMOOTH",
"489 352 LINE SMOOTH",
"436 352 OFFCURVE",
"398 315 OFFCURVE",
"398 268 CURVE",
"335 268 LINE",
"335 247 LINE",
"665 247 LINE"
);
},
{
closed = 1;
nodes = (
"419 303 OFFCURVE",
"447 331 OFFCURVE",
"492 331 CURVE SMOOTH",
"508 331 LINE SMOOTH",
"553 331 OFFCURVE",
"581 303 OFFCURVE",
"581 268 CURVE",
"419 268 LINE"
);
}
);
width = 1000;
}
);
unicode = 1D914;
}
{
glyphname = u1D915;
layers = (
{
layerId = "B5BBCF37-8EA3-4A7F-B967-74D10E0B056C";
paths = (
{
closed = 1;
nodes = (
"564 205 OFFCURVE",
"602 242 OFFCURVE",
"602 289 CURVE",
"665 289 LINE",
"665 310 LINE",
"602 310 LINE",
"602 357 OFFCURVE",
"564 394 OFFCURVE",
"511 394 CURVE SMOOTH",
"489 394 LINE SMOOTH",
"436 394 OFFCURVE",
"398 357 OFFCURVE",
"398 310 CURVE",
"335 310 LINE",
"335 289 LINE",
"398 289 LINE",
"398 242 OFFCURVE",
"436 205 OFFCURVE",
"489 205 CURVE SMOOTH",
"511 205 LINE SMOOTH"
);
},
{
closed = 1;
nodes = (
"419 345 OFFCURVE",
"447 373 OFFCURVE",
"492 373 CURVE SMOOTH",
"508 373 LINE SMOOTH",
"553 373 OFFCURVE",
"581 345 OFFCURVE",
"581 310 CURVE",
"419 310 LINE"
);
},
{
closed = 1;
nodes = (
"447 226 OFFCURVE",
"419 254 OFFCURVE",
"419 289 CURVE",
"581 289 LINE",
"581 254 OFFCURVE",
"553 226 OFFCURVE",
"508 226 CURVE SMOOTH",
"492 226 LINE SMOOTH"
);
}
);
width = 1000;
}
);
unicode = 1D915;
}
{
glyphname = u1D916;
layers = (
{
layerId = "B5BBCF37-8EA3-4A7F-B967-74D10E0B056C";
paths = (
{
closed = 1;
nodes = (
"551 207 OFFCURVE",
"593 249 OFFCURVE",
"593 300 CURVE SMOOTH",
"593 351 OFFCURVE",
"551 393 OFFCURVE",
"500 393 CURVE SMOOTH",
"449 393 OFFCURVE",
"407 351 OFFCURVE",
"407 300 CURVE SMOOTH",
"407 249 OFFCURVE",
"449 207 OFFCURVE",
"500 207 CURVE SMOOTH"
);
}
);
width = 1000;
}
);
unicode = 1D916;
}
{
glyphname = u1D918;
layers = (
{
layerId = "B5BBCF37-8EA3-4A7F-B967-74D10E0B056C";
paths = (
{
closed = 1;
nodes = (
"437 207 OFFCURVE",
"479 249 OFFCURVE",
"479 300 CURVE SMOOTH",
"479 351 OFFCURVE",
"437 393 OFFCURVE",
"386 393 CURVE SMOOTH",
"335 393 OFFCURVE",
"293 351 OFFCURVE",
"293 300 CURVE SMOOTH",
"293 249 OFFCURVE",
"335 207 OFFCURVE",
"386 207 CURVE SMOOTH"
);
},
{
closed = 1;
nodes = (
"665 207 OFFCURVE",
"707 249 OFFCURVE",
"707 300 CURVE SMOOTH",
"707 351 OFFCURVE",
"665 393 OFFCURVE",
"614 393 CURVE SMOOTH",
"563 393 OFFCURVE",
"521 351 OFFCURVE",
"521 300 CURVE SMOOTH",
"521 249 OFFCURVE",
"563 207 OFFCURVE",
"614 207 CURVE SMOOTH"
);
}
);
width = 1000;
}
);
unicode = 1D918;
}
{
glyphname = u1D919;
layers = (
{
layerId = "B5BBCF37-8EA3-4A7F-B967-74D10E0B056C";
paths = (
{
closed = 1;
nodes = (
"448 231 OFFCURVE",
"479 262 OFFCURVE",
"479 300 CURVE SMOOTH",
"479 338 OFFCURVE",
"448 369 OFFCURVE",
"410 369 CURVE SMOOTH",
"372 369 OFFCURVE",
"341 338 OFFCURVE",
"341 300 CURVE SMOOTH",
"341 262 OFFCURVE",
"372 231 OFFCURVE",
"410 231 CURVE SMOOTH"
);
},
{
closed = 1;
nodes = (
"628 231 OFFCURVE",
"659 262 OFFCURVE",
"659 300 CURVE SMOOTH",
"659 338 OFFCURVE",
"628 369 OFFCURVE",
"590 369 CURVE SMOOTH",
"552 369 OFFCURVE",
"521 338 OFFCURVE",
"521 300 CURVE SMOOTH",
"521 262 OFFCURVE",
"552 231 OFFCURVE",
"590 231 CURVE SMOOTH"
);
}
);
width = 1000;
}
);
unicode = 1D919;
}
{
glyphname = u1D91A;
layers = (
{
layerId = "B5BBCF37-8EA3-4A7F-B967-74D10E0B056C";
paths = (
{
closed = 1;
nodes = (
"351 392 LINE",
"371 392 LINE",
"371 532 LINE",
"511 532 LINE",
"511 552 LINE",
"351 552 LINE"
);
},
{
closed = 1;
nodes = (
"599 184 LINE SMOOTH",
"599 235 OFFCURVE",
"589 284 OFFCURVE",
"570 328 CURVE",
"599 350 OFFCURVE",
"606 391 OFFCURVE",
"586 421 CURVE SMOOTH",
"565 452 OFFCURVE",
"524 460 OFFCURVE",
"493 442 CURVE",
"470 466 OFFCURVE",
"444 486 OFFCURVE",
"416 503 CURVE",
"403 486 LINE",
"430 470 OFFCURVE",
"455 451 OFFCURVE",
"477 429 CURVE",
"456 406 OFFCURVE",
"453 371 OFFCURVE",
"471 345 CURVE SMOOTH",
"489 318 OFFCURVE",
"522 307 OFFCURVE",
"551 318 CURVE",
"568 276 OFFCURVE",
"578 232 OFFCURVE",
"578 185 CURVE",
"548 183 OFFCURVE",
"521 161 OFFCURVE",
"515 130 CURVE SMOOTH",
"508 92 OFFCURVE",
"532 56 OFFCURVE",
"569 48 CURVE SMOOTH",
"607 41 OFFCURVE",
"643 65 OFFCURVE",
"650 103 CURVE SMOOTH",
"658 139 OFFCURVE",
"634 174 OFFCURVE",
"599 183 CURVE"
);
}
);
width = 1000;
}
);
unicode = 1D91A;
}
{
glyphname = u1D91B;
layers = (
{
layerId = "B5BBCF37-8EA3-4A7F-B967-74D10E0B056C";
paths = (
{
closed = 1;
nodes = (
"551 207 OFFCURVE",
"593 249 OFFCURVE",
"593 300 CURVE SMOOTH",
"593 351 OFFCURVE",
"551 393 OFFCURVE",
"500 393 CURVE SMOOTH",
"449 393 OFFCURVE",
"407 351 OFFCURVE",
"407 300 CURVE SMOOTH",
"407 249 OFFCURVE",
"449 207 OFFCURVE",
"500 207 CURVE SMOOTH"
);
},
{
closed = 1;
nodes = (
"472 249 OFFCURVE",
"449 272 OFFCURVE",
"449 300 CURVE SMOOTH",
"449 328 OFFCURVE",
"472 351 OFFCURVE",
"500 351 CURVE SMOOTH",
"528 351 OFFCURVE",
"551 328 OFFCURVE",
"551 300 CURVE SMOOTH",
"551 272 OFFCURVE",
"528 249 OFFCURVE",
"500 249 CURVE SMOOTH"
);
}
);
width = 1000;
}
);
unicode = 1D91B;
}
{
glyphname = u1D91C;
layers = (
{
layerId = "B5BBCF37-8EA3-4A7F-B967-74D10E0B056C";
paths = (
{
closed = 1;
nodes = (
"538 231 OFFCURVE",
"569 262 OFFCURVE",
"569 300 CURVE SMOOTH",
"569 338 OFFCURVE",
"538 369 OFFCURVE",
"500 369 CURVE SMOOTH",
"462 369 OFFCURVE",
"431 338 OFFCURVE",
"431 300 CURVE SMOOTH",
"431 262 OFFCURVE",
"462 231 OFFCURVE",
"500 231 CURVE SMOOTH"
);
},
{
closed = 1;
nodes = (
"474 252 OFFCURVE",
"452 274 OFFCURVE",
"452 300 CURVE SMOOTH",
"452 326 OFFCURVE",
"474 348 OFFCURVE",
"500 348 CURVE SMOOTH",
"526 348 OFFCURVE",
"548 326 OFFCURVE",
"548 300 CURVE SMOOTH",
"548 274 OFFCURVE",
"526 252 OFFCURVE",
"500 252 CURVE SMOOTH"
);
}
);
width = 1000;
}
);
unicode = 1D91C;
}
{
glyphname = u1D91D;
layers = (
{
layerId = "B5BBCF37-8EA3-4A7F-B967-74D10E0B056C";
paths = (
{
closed = 1;
nodes = (
"437 207 OFFCURVE",
"479 249 OFFCURVE",
"479 300 CURVE SMOOTH",
"479 351 OFFCURVE",
"437 393 OFFCURVE",
"386 393 CURVE SMOOTH",
"335 393 OFFCURVE",
"293 351 OFFCURVE",
"293 300 CURVE SMOOTH",
"293 249 OFFCURVE",
"335 207 OFFCURVE",
"386 207 CURVE SMOOTH"
);
},
{
closed = 1;
nodes = (
"665 207 OFFCURVE",
"707 249 OFFCURVE",
"707 300 CURVE SMOOTH",
"707 351 OFFCURVE",
"665 393 OFFCURVE",
"614 393 CURVE SMOOTH",
"563 393 OFFCURVE",
"521 351 OFFCURVE",
"521 300 CURVE SMOOTH",
"521 249 OFFCURVE",
"563 207 OFFCURVE",
"614 207 CURVE SMOOTH"
);
},
{
closed = 1;
nodes = (
"358 249 OFFCURVE",
"335 272 OFFCURVE",
"335 300 CURVE SMOOTH",
"335 328 OFFCURVE",
"358 351 OFFCURVE",
"386 351 CURVE SMOOTH",
"414 351 OFFCURVE",
"437 328 OFFCURVE",
"437 300 CURVE SMOOTH",
"437 272 OFFCURVE",
"414 249 OFFCURVE",
"386 249 CURVE SMOOTH"
);
},
{
closed = 1;
nodes = (
"586 249 OFFCURVE",
"563 272 OFFCURVE",
"563 300 CURVE SMOOTH",
"563 328 OFFCURVE",
"586 351 OFFCURVE",
"614 351 CURVE SMOOTH",
"642 351 OFFCURVE",
"665 328 OFFCURVE",
"665 300 CURVE SMOOTH",
"665 272 OFFCURVE",
"642 249 OFFCURVE",
"614 249 CURVE SMOOTH"
);
}
);
width = 1000;
}
);
unicode = 1D91D;
}
{
glyphname = u1D91E;
layers = (
{
layerId = "B5BBCF37-8EA3-4A7F-B967-74D10E0B056C";
paths = (
{
closed = 1;
nodes = (
"448 231 OFFCURVE",
"479 262 OFFCURVE",
"479 300 CURVE SMOOTH",
"479 338 OFFCURVE",
"448 369 OFFCURVE",
"410 369 CURVE SMOOTH",
"372 369 OFFCURVE",
"341 338 OFFCURVE",
"341 300 CURVE SMOOTH",
"341 262 OFFCURVE",
"372 231 OFFCURVE",
"410 231 CURVE SMOOTH"
);
},
{
closed = 1;
nodes = (
"628 231 OFFCURVE",
"659 262 OFFCURVE",
"659 300 CURVE SMOOTH",
"659 338 OFFCURVE",
"628 369 OFFCURVE",
"590 369 CURVE SMOOTH",
"552 369 OFFCURVE",
"521 338 OFFCURVE",
"521 300 CURVE SMOOTH",
"521 262 OFFCURVE",
"552 231 OFFCURVE",
"590 231 CURVE SMOOTH"
);
},
{
closed = 1;
nodes = (
"384 252 OFFCURVE",
"362 274 OFFCURVE",
"362 300 CURVE SMOOTH",
"362 326 OFFCURVE",
"384 348 OFFCURVE",
"410 348 CURVE SMOOTH",
"436 348 OFFCURVE",
"458 326 OFFCURVE",
"458 300 CURVE SMOOTH",
"458 274 OFFCURVE",
"436 252 OFFCURVE",
"410 252 CURVE SMOOTH"
);
},
{
closed = 1;
nodes = (
"564 252 OFFCURVE",
"542 274 OFFCURVE",
"542 300 CURVE SMOOTH",
"542 326 OFFCURVE",
"564 348 OFFCURVE",
"590 348 CURVE SMOOTH",
"616 348 OFFCURVE",
"638 326 OFFCURVE",
"638 300 CURVE SMOOTH",
"638 274 OFFCURVE",
"616 252 OFFCURVE",
"590 252 CURVE SMOOTH"
);
}
);
width = 1000;
}
);
unicode = 1D91E;
}
{
glyphname = u1D920;
layers = (
{
layerId = "B5BBCF37-8EA3-4A7F-B967-74D10E0B056C";
paths = (
{
closed = 1;
nodes = (
"380 289 OFFCURVE",
"411 320 OFFCURVE",
"411 358 CURVE SMOOTH",
"411 396 OFFCURVE",
"380 427 OFFCURVE",
"342 427 CURVE SMOOTH",
"304 427 OFFCURVE",
"273 396 OFFCURVE",
"273 358 CURVE SMOOTH",
"273 320 OFFCURVE",
"304 289 OFFCURVE",
"342 289 CURVE SMOOTH"
);
},
{
closed = 1;
nodes = (
"696 289 OFFCURVE",
"727 320 OFFCURVE",
"727 358 CURVE SMOOTH",
"727 396 OFFCURVE",
"696 427 OFFCURVE",
"658 427 CURVE SMOOTH",
"620 427 OFFCURVE",
"589 396 OFFCURVE",
"589 358 CURVE SMOOTH",
"589 320 OFFCURVE",
"620 289 OFFCURVE",
"658 289 CURVE SMOOTH"
);
},
{
closed = 1;
nodes = (
"222 171 OFFCURVE",
"253 202 OFFCURVE",
"253 240 CURVE SMOOTH",
"253 278 OFFCURVE",
"222 309 OFFCURVE",
"184 309 CURVE SMOOTH",
"146 309 OFFCURVE",
"115 278 OFFCURVE",
"115 240 CURVE SMOOTH",
"115 202 OFFCURVE",
"146 171 OFFCURVE",
"184 171 CURVE SMOOTH"
);
},
{
closed = 1;
nodes = (
"538 171 OFFCURVE",
"569 202 OFFCURVE",
"569 240 CURVE SMOOTH",
"569 278 OFFCURVE",
"538 309 OFFCURVE",
"500 309 CURVE SMOOTH",
"462 309 OFFCURVE",
"431 278 OFFCURVE",
"431 240 CURVE SMOOTH",
"431 202 OFFCURVE",
"462 171 OFFCURVE",
"500 171 CURVE SMOOTH"
);
},
{
closed = 1;
nodes = (
"854 171 OFFCURVE",
"885 202 OFFCURVE",
"885 240 CURVE SMOOTH",
"885 278 OFFCURVE",
"854 309 OFFCURVE",
"816 309 CURVE SMOOTH",
"778 309 OFFCURVE",
"747 278 OFFCURVE",
"747 240 CURVE SMOOTH",
"747 202 OFFCURVE",
"778 171 OFFCURVE",
"816 171 CURVE SMOOTH"
);
},
{
closed = 1;
nodes = (
"158 192 OFFCURVE",
"136 214 OFFCURVE",
"136 240 CURVE SMOOTH",
"136 266 OFFCURVE",
"158 288 OFFCURVE",
"184 288 CURVE SMOOTH",
"210 288 OFFCURVE",
"232 266 OFFCURVE",
"232 240 CURVE SMOOTH",
"232 214 OFFCURVE",
"210 192 OFFCURVE",
"184 192 CURVE SMOOTH"
);
},
{
closed = 1;
nodes = (
"474 192 OFFCURVE",
"452 214 OFFCURVE",
"452 240 CURVE SMOOTH",
"452 266 OFFCURVE",
"474 288 OFFCURVE",
"500 288 CURVE SMOOTH",
"526 288 OFFCURVE",
"548 266 OFFCURVE",
"548 240 CURVE SMOOTH",
"548 214 OFFCURVE",
"526 192 OFFCURVE",
"500 192 CURVE SMOOTH"
);
},
{
closed = 1;
nodes = (
"790 192 OFFCURVE",
"768 214 OFFCURVE",
"768 240 CURVE SMOOTH",
"768 266 OFFCURVE",
"790 288 OFFCURVE",
"816 288 CURVE SMOOTH",
"842 288 OFFCURVE",
"864 266 OFFCURVE",
"864 240 CURVE SMOOTH",
"864 214 OFFCURVE",
"842 192 OFFCURVE",
"816 192 CURVE SMOOTH"
);
}
);
width = 1000;
}
);
unicode = 1D920;
}
{
glyphname = u1D921;
layers = (
{
layerId = "B5BBCF37-8EA3-4A7F-B967-74D10E0B056C";
paths = (
{
closed = 1;
nodes = (
"615 213 LINE",
"644 243 LINE",
"500 387 LINE",
"355 242 LINE",
"384 213 LINE",
"500 328 LINE"
);
}
);
width = 1000;
}
);
unicode = 1D921;
}
{
glyphname = u1D922;
layers = (
{
layerId = "B5BBCF37-8EA3-4A7F-B967-74D10E0B056C";
paths = (
{
closed = 1;
nodes = (
"599 236 LINE",
"613 250 LINE",
"500 363 LINE",
"387 250 LINE",
"401 236 LINE",
"500 335 LINE"
);
}
);
width = 1000;
}
);
unicode = 1D922;
}
{
glyphname = u1D923;
layers = (
{
layerId = "B5BBCF37-8EA3-4A7F-B967-74D10E0B056C";
paths = (
{
closed = 1;
nodes = (
"305 434 LINE",
"325 434 LINE",
"325 574 LINE",
"465 574 LINE",
"465 594 LINE",
"305 594 LINE"
);
},
{
closed = 1;
nodes = (
"618 291 OFFCURVE",
"597 338 OFFCURVE",
"569 379 CURVE",
"569 476 LINE",
"472 476 LINE",
"447 493 OFFCURVE",
"420 508 OFFCURVE",
"390 518 CURVE",
"374 502 LINE",
"395 495 OFFCURVE",
"414 486 OFFCURVE",
"433 476 CURVE",
"401 476 LINE",
"400 434 LINE",
"527 434 LINE",
"528 307 LINE",
"569 307 LINE",
"569 339 LINE",
"581 317 OFFCURVE",
"591 293 OFFCURVE",
"599 268 CURVE",
"575 292 LINE",
"546 263 LINE",
"636 172 LINE",
"546 82 LINE",
"576 53 LINE",
"599 76 LINE",
"593 56 OFFCURVE",
"586 37 OFFCURVE",
"577 19 CURVE",
"593 5 LINE",
"609 36 OFFCURVE",
"620 69 OFFCURVE",
"627 104 CURVE",
"695 172 LINE",
"627 240 LINE"
);
}
);
width = 1000;
}
);
unicode = 1D923;
}
{
glyphname = u1D924;
layers = (
{
layerId = "B5BBCF37-8EA3-4A7F-B967-74D10E0B056C";
paths = (
{
closed = 1;
nodes = (
"305 434 LINE",
"325 434 LINE",
"325 574 LINE",
"465 574 LINE",
"465 594 LINE",
"305 594 LINE"
);
},
{
closed = 1;
nodes = (
"625 251 LINE",
"616 289 OFFCURVE",
"602 325 OFFCURVE",
"582 357 CURVE",
"619 357 LINE",
"619 398 LINE",
"492 399 LINE",
"492 526 LINE",
"450 525 LINE",
"450 490 LINE",
"431 501 OFFCURVE",
"411 511 OFFCURVE",
"390 518 CURVE",
"374 502 LINE",
"401 493 OFFCURVE",
"427 480 OFFCURVE",
"450 466 CURVE",
"450 357 LINE",
"558 357 LINE",
"582 319 OFFCURVE",
"599 277 OFFCURVE",
"607 233 CURVE",
"546 172 LINE",
"607 111 LINE",
"601 79 OFFCURVE",
"591 48 OFFCURVE",
"577 19 CURVE",
"593 5 LINE",
"607 33 OFFCURVE",
"618 62 OFFCURVE",
"625 93 CURVE",
"665 53 LINE",
"695 82 LINE",
"605 172 LINE",
"695 263 LINE",
"666 292 LINE"
);
}
);
width = 1000;
}
);
unicode = 1D924;
}
{
glyphname = u1D925;
layers = (
{
layerId = "B5BBCF37-8EA3-4A7F-B967-74D10E0B056C";
paths = (
{
closed = 1;
nodes = (
"615 273 LINE",
"644 303 LINE",
"500 447 LINE",
"355 302 LINE",
"384 273 LINE",
"500 388 LINE"
);
},
{
closed = 1;
nodes = (
"615 153 LINE",
"644 183 LINE",
"500 327 LINE",
"355 182 LINE",
"384 153 LINE",
"500 268 LINE"
);
}
);
width = 1000;
}
);
unicode = 1D925;
}
{
glyphname = u1D926;
layers = (
{
layerId = "B5BBCF37-8EA3-4A7F-B967-74D10E0B056C";
paths = (
{
closed = 1;
nodes = (
"599 264 LINE",
"613 278 LINE",
"500 391 LINE",
"387 278 LINE",
"401 264 LINE",
"500 363 LINE"
);
},
{
closed = 1;
nodes = (
"599 208 LINE",
"613 222 LINE",
"500 335 LINE",
"387 222 LINE",
"401 208 LINE",
"500 307 LINE"
);
}
);
width = 1000;
}
);
unicode = 1D926;
}
{
glyphname = u1D927;
layers = (
{
layerId = "B5BBCF37-8EA3-4A7F-B967-74D10E0B056C";
paths = (
{
closed = 1;
nodes = (
"653 414 LINE",
"347 414 LINE",
"347 384 LINE",
"653 384 LINE"
);
},
{
closed = 1;
nodes = (
"599 236 LINE",
"613 250 LINE",
"500 363 LINE",
"387 250 LINE",
"401 236 LINE",
"500 335 LINE"
);
},
{
closed = 1;
nodes = (
"653 215 LINE",
"347 215 LINE",
"347 185 LINE",
"653 185 LINE"
);
}
);
width = 1000;
}
);
unicode = 1D927;
}
{
glyphname = u1D928;
layers = (
{
layerId = "B5BBCF37-8EA3-4A7F-B967-74D10E0B056C";
paths = (
{
closed = 1;
nodes = (
"599 288 LINE",
"613 302 LINE",
"500 415 LINE",
"387 302 LINE",
"401 288 LINE",
"500 387 LINE"
);
},
{
closed = 1;
nodes = (
"480 328 LINE",
"460 328 LINE",
"460 185 LINE",
"480 185 LINE"
);
},
{
closed = 1;
nodes = (
"540 328 LINE",
"520 328 LINE",
"520 185 LINE",
"540 185 LINE"
);
}
);
width = 1000;
}
);
unicode = 1D928;
}
{
glyphname = u1D92A;
layers = (
{
layerId = "B5BBCF37-8EA3-4A7F-B967-74D10E0B056C";
paths = (
{
closed = 1;
nodes = (
"370 316 LINE",
"426 316 LINE",
"426 153 LINE",
"468 153 LINE",
"468 316 LINE",
"532 316 LINE",
"532 153 LINE",
"574 153 LINE",
"574 316 LINE",
"630 316 LINE",
"500 446 LINE"
);
}
);
width = 1000;
}
);
unicode = 1D92A;
}
{
glyphname = u1D92C;
layers = (
{
layerId = "B5BBCF37-8EA3-4A7F-B967-74D10E0B056C";
paths = (
{
closed = 1;
nodes = (
"335 532 LINE",
"416 532 LINE",
"416 -106 LINE",
"458 -106 LINE",
"458 532 LINE",
"544 532 LINE",
"544 -106 LINE",
"586 -106 LINE",
"586 532 LINE",
"665 532 LINE",
"500 697 LINE"
);
}
);
width = 1000;
}
);
unicode = 1D92C;
}
{
glyphname = u1D92D;
layers = (
{
layerId = "B5BBCF37-8EA3-4A7F-B967-74D10E0B056C";
paths = (
{
closed = 1;
nodes = (
"335 595 LINE",
"415 595 LINE",
"415 -153 LINE",
"457 -153 LINE",
"457 595 LINE",
"543 595 LINE",
"543 -153 LINE",
"585 -153 LINE",
"585 595 LINE",
"665 595 LINE",
"500 760 LINE"
);
}
);
width = 1000;
}
);
unicode = 1D92D;
}
{
glyphname = u1D92E;
layers = (
{
layerId = "B5BBCF37-8EA3-4A7F-B967-74D10E0B056C";
paths = (
{
closed = 1;
nodes = (
"468 356 LINE",
"532 356 LINE",
"532 193 LINE",
"574 193 LINE",
"574 356 LINE",
"630 356 LINE",
"500 486 LINE",
"370 356 LINE",
"426 356 LINE",
"426 193 LINE",
"468 193 LINE"
);
},
{
closed = 1;
nodes = (
"640 111 LINE",
"640 153 LINE",
"360 153 LINE",
"360 111 LINE"
);
}
);
width = 1000;
}
);
unicode = 1D92E;
}
{
glyphname = u1D92F;
layers = (
{
layerId = "B5BBCF37-8EA3-4A7F-B967-74D10E0B056C";
paths = (
{
closed = 1;
nodes = (
"387 446 LINE",
"257 316 LINE",
"313 316 LINE",
"313 153 LINE",
"355 153 LINE",
"355 316 LINE",
"419 316 LINE",
"419 153 LINE",
"461 153 LINE",
"461 316 LINE",
"539 316 LINE",
"539 153 LINE",
"581 153 LINE",
"581 316 LINE",
"645 316 LINE",
"645 153 LINE",
"687 153 LINE",
"687 316 LINE",
"743 316 LINE",
"613 446 LINE",
"500 333 LINE"
);
}
);
width = 1000;
}
);
unicode = 1D92F;
}
{
glyphname = u1D932;
layers = (
{
layerId = "B5BBCF37-8EA3-4A7F-B967-74D10E0B056C";
paths = (
{
closed = 1;
nodes = (
"581 376 LINE",
"645 376 LINE",
"645 213 LINE",
"687 213 LINE",
"687 376 LINE",
"743 376 LINE",
"613 506 LINE",
"483 376 LINE",
"539 376 LINE",
"539 213 LINE",
"581 213 LINE"
);
},
{
closed = 1;
nodes = (
"461 324 LINE",
"461 487 LINE",
"419 487 LINE",
"419 324 LINE",
"355 324 LINE",
"355 487 LINE",
"313 487 LINE",
"313 324 LINE",
"257 324 LINE",
"387 194 LINE",
"517 324 LINE"
);
},
{
closed = 1;
nodes = (
"753 131 LINE",
"753 173 LINE",
"247 173 LINE",
"247 131 LINE"
);
}
);
width = 1000;
}
);
unicode = 1D932;
}
{
glyphname = u1D934;
layers = (
{
layerId = "B5BBCF37-8EA3-4A7F-B967-74D10E0B056C";
paths = (
{
closed = 1;
nodes = (
"242 316 LINE",
"306 316 LINE",
"306 153 LINE",
"348 153 LINE",
"348 316 LINE",
"426 316 LINE",
"426 153 LINE",
"468 153 LINE",
"468 316 LINE",
"532 316 LINE",
"532 153 LINE",
"574 153 LINE",
"574 316 LINE",
"652 316 LINE",
"652 153 LINE",
"694 153 LINE",
"694 316 LINE",
"758 316 LINE",
"758 153 LINE",
"800 153 LINE",
"800 316 LINE",
"856 316 LINE",
"726 446 LINE",
"613 333 LINE",
"500 446 LINE",
"387 333 LINE",
"274 446 LINE",
"144 316 LINE",
"200 316 LINE",
"200 153 LINE",
"242 153 LINE"
);
}
);
width = 1000;
}
);
unicode = 1D934;
}
{
glyphname = u1D935;
layers = (
{
layerId = "B5BBCF37-8EA3-4A7F-B967-74D10E0B056C";
paths = (
{
closed = 1;
nodes = (
"242 356 LINE",
"306 356 LINE",
"306 193 LINE",
"348 193 LINE",
"348 356 LINE",
"426 356 LINE",
"426 193 LINE",
"468 193 LINE",
"468 356 LINE",
"532 356 LINE",
"532 193 LINE",
"574 193 LINE",
"574 356 LINE",
"652 356 LINE",
"652 193 LINE",
"694 193 LINE",
"694 356 LINE",
"758 356 LINE",
"758 193 LINE",
"800 193 LINE",
"800 356 LINE",
"856 356 LINE",
"726 486 LINE",
"613 373 LINE",
"500 486 LINE",
"387 373 LINE",
"274 486 LINE",
"144 356 LINE",
"200 356 LINE",
"200 193 LINE",
"242 193 LINE"
);
},
{
closed = 1;
nodes = (
"866 153 LINE",
"134 153 LINE",
"134 111 LINE",
"866 111 LINE"
);
}
);
width = 1000;
}
);
unicode = 1D935;
}
{
glyphname = u1D938;
layers = (
{
layerId = "B5BBCF37-8EA3-4A7F-B967-74D10E0B056C";
paths = (
{
closed = 1;
nodes = (
"532 283 LINE",
"532 429 LINE",
"588 429 LINE",
"458 559 LINE",
"328 429 LINE",
"384 429 LINE",
"384 224 LINE",
"567 41 LINE",
"596 71 LINE",
"426 241 LINE",
"426 429 LINE",
"490 429 LINE",
"490 266 LINE",
"643 114 LINE",
"673 144 LINE"
);
}
);
width = 1000;
}
);
unicode = 1D938;
}
{
glyphname = u1D939;
layers = (
{
layerId = "B5BBCF37-8EA3-4A7F-B967-74D10E0B056C";
paths = (
{
closed = 1;
nodes = (
"541 248 LINE",
"541 477 LINE",
"620 477 LINE",
"455 642 LINE",
"290 477 LINE",
"371 477 LINE",
"371 177 LINE",
"590 -42 LINE",
"620 -11 LINE",
"413 195 LINE",
"413 477 LINE",
"499 477 LINE",
"499 230 LINE",
"681 48 LINE",
"711 79 LINE"
);
}
);
width = 1000;
}
);
unicode = 1D939;
}
{
glyphname = u1D93B;
layers = (
{
layerId = "B5BBCF37-8EA3-4A7F-B967-74D10E0B056C";
paths = (
{
closed = 1;
nodes = (
"508 229 LINE",
"508 389 LINE",
"564 389 LINE",
"434 519 LINE",
"304 389 LINE",
"360 389 LINE",
"360 81 LINE",
"697 81 LINE",
"697 123 LINE",
"402 123 LINE",
"402 389 LINE",
"466 389 LINE",
"466 187 LINE",
"697 187 LINE",
"697 229 LINE"
);
}
);
width = 1000;
}
);
unicode = 1D93B;
}
{
glyphname = u1D93D;
layers = (
{
layerId = "B5BBCF37-8EA3-4A7F-B967-74D10E0B056C";
paths = (
{
closed = 1;
nodes = (
"470 126 LINE",
"470 480 LINE",
"550 480 LINE",
"385 645 LINE",
"220 480 LINE",
"300 480 LINE",
"300 -44 LINE",
"780 -44 LINE",
"780 -2 LINE",
"342 -2 LINE",
"342 480 LINE",
"428 480 LINE",
"428 84 LINE",
"780 84 LINE",
"780 126 LINE"
);
}
);
width = 1000;
}
);
unicode = 1D93D;
}
{
glyphname = u1D93F;
layers = (
{
layerId = "B5BBCF37-8EA3-4A7F-B967-74D10E0B056C";
paths = (
{
closed = 1;
nodes = (
"433 98 LINE",
"433 472 LINE",
"497 472 LINE",
"497 252 LINE",
"656 411 LINE",
"627 441 LINE",
"539 353 LINE",
"539 472 LINE",
"593 472 LINE",
"463 602 LINE",
"333 472 LINE",
"391 472 LINE",
"391 -3 LINE",
"728 335 LINE",
"699 364 LINE"
);
}
);
width = 1000;
}
);
unicode = 1D93F;
}
{
glyphname = u1D940;
layers = (
{
layerId = "B5BBCF37-8EA3-4A7F-B967-74D10E0B056C";
paths = (
{
closed = 1;
nodes = (
"429 30 LINE",
"429 507 LINE",
"515 507 LINE",
"515 237 LINE",
"723 445 LINE",
"693 475 LINE",
"557 339 LINE",
"557 507 LINE",
"637 507 LINE",
"472 672 LINE",
"307 507 LINE",
"387 507 LINE",
"387 -72 LINE",
"813 354 LINE",
"783 384 LINE"
);
}
);
width = 1000;
}
);
unicode = 1D940;
}
{
glyphname = u1D942;
layers = (
{
layerId = "B5BBCF37-8EA3-4A7F-B967-74D10E0B056C";
paths = (
{
closed = 1;
nodes = (
"336 113 LINE",
"336 399 LINE",
"400 399 LINE",
"400 177 LINE",
"621 177 LINE",
"621 409 LINE",
"579 409 LINE",
"579 219 LINE",
"442 219 LINE",
"442 399 LINE",
"498 399 LINE",
"368 529 LINE",
"238 399 LINE",
"294 399 LINE",
"294 71 LINE",
"727 71 LINE",
"727 409 LINE",
"685 409 LINE",
"685 113 LINE"
);
}
);
width = 1000;
}
);
unicode = 1D942;
}
{
glyphname = u1D943;
layers = (
{
layerId = "B5BBCF37-8EA3-4A7F-B967-74D10E0B056C";
paths = (
{
closed = 1;
nodes = (
"762 426 LINE",
"720 426 LINE",
"720 60 LINE",
"301 60 LINE",
"301 416 LINE",
"387 416 LINE",
"387 146 LINE",
"634 146 LINE",
"634 426 LINE",
"592 426 LINE",
"592 188 LINE",
"429 188 LINE",
"429 416 LINE",
"509 416 LINE",
"344 581 LINE",
"179 416 LINE",
"259 416 LINE",
"259 18 LINE",
"762 18 LINE"
);
}
);
width = 1000;
}
);
unicode = 1D943;
}
{
glyphname = u1D944;
layers = (
{
layerId = "B5BBCF37-8EA3-4A7F-B967-74D10E0B056C";
paths = (
{
closed = 1;
nodes = (
"261 0 LINE",
"261 476 LINE",
"347 476 LINE",
"347 86 LINE",
"674 86 LINE",
"674 486 LINE",
"632 486 LINE",
"632 128 LINE",
"389 128 LINE",
"389 476 LINE",
"469 476 LINE",
"304 641 LINE",
"139 476 LINE",
"219 476 LINE",
"219 -42 LINE",
"802 -42 LINE",
"802 486 LINE",
"760 486 LINE",
"760 0 LINE"
);
}
);
width = 1000;
}
);
unicode = 1D944;
}
{
glyphname = u1D945;
layers = (
{
layerId = "B5BBCF37-8EA3-4A7F-B967-74D10E0B056C";
paths = (
{
closed = 1;
nodes = (
"583 474 LINE",
"453 604 LINE",
"323 474 LINE",
"381 474 LINE",
"381 -3 LINE",
"529 145 LINE",
"529 -1 LINE",
"571 -1 LINE",
"571 246 LINE",
"423 98 LINE",
"423 474 LINE",
"487 474 LINE",
"487 256 LINE",
"635 404 LINE",
"635 -1 LINE",
"677 -1 LINE",
"677 505 LINE",
"529 357 LINE",
"529 474 LINE"
);
}
);
width = 1000;
}
);
unicode = 1D945;
}
{
glyphname = u1D946;
layers = (
{
layerId = "B5BBCF37-8EA3-4A7F-B967-74D10E0B056C";
paths = (
{
closed = 1;
nodes = (
"569 517 LINE",
"404 682 LINE",
"239 517 LINE",
"319 517 LINE",
"319 -82 LINE",
"531 130 LINE",
"531 -82 LINE",
"573 -82 LINE",
"573 232 LINE",
"361 20 LINE",
"361 517 LINE",
"447 517 LINE",
"447 227 LINE",
"659 439 LINE",
"659 -82 LINE",
"701 -82 LINE",
"701 541 LINE",
"489 329 LINE",
"489 517 LINE"
);
}
);
width = 1000;
}
);
unicode = 1D946;
}
{
glyphname = u1D947;
layers = (
{
layerId = "B5BBCF37-8EA3-4A7F-B967-74D10E0B056C";
paths = (
{
closed = 1;
nodes = (
"547 557 LINE",
"382 722 LINE",
"217 557 LINE",
"298 557 LINE",
"298 -102 LINE",
"573 173 LINE",
"573 -102 LINE",
"615 -102 LINE",
"615 274 LINE",
"340 -2 LINE",
"340 557 LINE",
"426 557 LINE",
"426 207 LINE",
"701 482 LINE",
"701 -102 LINE",
"743 -102 LINE",
"743 582 LINE",
"468 307 LINE",
"468 557 LINE"
);
}
);
width = 1000;
}
);
unicode = 1D947;
}
{
glyphname = u1D948;
layers = (
{
layerId = "B5BBCF37-8EA3-4A7F-B967-74D10E0B056C";
paths = (
{
closed = 1;
nodes = (
"593 497 LINE",
"409 497 LINE",
"409 313 LINE",
"452 356 LINE",
"502 305 LINE",
"443 246 LINE",
"502 187 LINE",
"444 129 LINE",
"474 99 LINE",
"562 187 LINE",
"502 246 LINE",
"562 305 LINE",
"482 386 LINE",
"521 425 LINE",
"641 305 LINE",
"581 246 LINE",
"641 187 LINE",
"514 59 LINE",
"543 30 LINE",
"700 187 LINE",
"641 246 LINE",
"700 305 LINE",
"551 455 LINE"
);
}
);
width = 1000;
}
);
unicode = 1D948;
}
{
glyphname = u1D94A;
layers = (
{
layerId = "B5BBCF37-8EA3-4A7F-B967-74D10E0B056C";
paths = (
{
closed = 1;
nodes = (
"556 681 LINE",
"323 681 LINE",
"323 448 LINE",
"381 506 LINE",
"506 380 LINE",
"351 225 LINE",
"506 69 LINE",
"381 -57 LINE",
"410 -87 LINE",
"566 69 LINE",
"410 225 LINE",
"566 380 LINE",
"411 536 LINE",
"471 596 LINE",
"687 380 LINE",
"532 225 LINE",
"687 69 LINE",
"471 -147 LINE",
"501 -177 LINE",
"747 69 LINE",
"591 225 LINE",
"747 380 LINE",
"501 626 LINE"
);
}
);
width = 1000;
}
);
unicode = 1D94A;
}
{
glyphname = u1D950;
layers = (
{
layerId = "B5BBCF37-8EA3-4A7F-B967-74D10E0B056C";
paths = (
{
closed = 1;
nodes = (
"638 166 OFFCURVE",
"597 186 OFFCURVE",
"554 196 CURVE",
"554 374 LINE",
"602 362 OFFCURVE",
"649 335 OFFCURVE",
"688 295 CURVE",
"703 310 LINE",
"660 353 OFFCURVE",
"608 383 OFFCURVE",
"554 395 CURVE",
"554 516 LINE",
"665 516 LINE",
"500 681 LINE",
"335 516 LINE",
"448 516 LINE",
"448 396 LINE",
"405 387 OFFCURVE",
"362 367 OFFCURVE",
"325 336 CURVE",
"246 415 LINE",
"246 241 LINE",
"420 241 LINE",
"340 321 LINE",
"374 348 OFFCURVE",
"411 366 OFFCURVE",
"448 374 CURVE",
"448 195 LINE",
"393 184 OFFCURVE",
"341 154 OFFCURVE",
"297 110 CURVE",
"312 95 LINE",
"352 136 OFFCURVE",
"399 163 OFFCURVE",
"448 174 CURVE",
"448 -82 LINE",
"469 -82 LINE",
"469 516 LINE",
"533 516 LINE",
"533 -82 LINE",
"554 -82 LINE",
"554 174 LINE",
"591 165 OFFCURVE",
"627 147 OFFCURVE",
"660 121 CURVE",
"580 41 LINE",
"754 41 LINE",
"754 215 LINE",
"675 136 LINE"
);
}
);
width = 1000;
}
);
unicode = 1D950;
}
{
glyphname = u1D951;
layers = (
{
layerId = "B5BBCF37-8EA3-4A7F-B967-74D10E0B056C";
paths = (
{
closed = 1;
nodes = (
"659 234 OFFCURVE",
"608 263 OFFCURVE",
"554 275 CURVE",
"554 374 LINE",
"602 362 OFFCURVE",
"648 335 OFFCURVE",
"688 295 CURVE",
"703 310 LINE",
"659 354 OFFCURVE",
"608 383 OFFCURVE",
"554 395 CURVE",
"554 516 LINE",
"665 516 LINE",
"500 681 LINE",
"335 516 LINE",
"448 516 LINE",
"448 396 LINE",
"393 384 OFFCURVE",
"341 354 OFFCURVE",
"297 310 CURVE",
"312 295 LINE",
"352 336 OFFCURVE",
"399 363 OFFCURVE",
"448 374 CURVE",
"448 276 LINE",
"393 264 OFFCURVE",
"341 234 OFFCURVE",
"297 190 CURVE",
"312 175 LINE",
"352 216 OFFCURVE",
"399 243 OFFCURVE",
"448 254 CURVE",
"448 156 LINE",
"393 144 OFFCURVE",
"341 114 OFFCURVE",
"297 70 CURVE",
"312 55 LINE",
"352 96 OFFCURVE",
"399 123 OFFCURVE",
"448 134 CURVE",
"448 -82 LINE",
"469 -82 LINE",
"469 138 LINE",
"479 139 OFFCURVE",
"490 140 OFFCURVE",
"500 140 CURVE SMOOTH",
"511 140 OFFCURVE",
"522 139 OFFCURVE",
"533 138 CURVE",
"533 -82 LINE",
"554 -82 LINE",
"554 134 LINE",
"602 122 OFFCURVE",
"648 95 OFFCURVE",
"688 55 CURVE",
"703 70 LINE",
"659 114 OFFCURVE",
"608 143 OFFCURVE",
"554 155 CURVE",
"554 254 LINE",
"602 242 OFFCURVE",
"648 215 OFFCURVE",
"688 175 CURVE",
"703 190 LINE"
);
},
{
closed = 1;
nodes = (
"533 399 LINE",
"522 400 OFFCURVE",
"511 401 OFFCURVE",
"500 401 CURVE SMOOTH",
"490 401 OFFCURVE",
"479 400 OFFCURVE",
"469 399 CURVE",
"469 516 LINE",
"533 516 LINE"
);
},
{
closed = 1;
nodes = (
"479 379 OFFCURVE",
"490 380 OFFCURVE",
"500 380 CURVE SMOOTH",
"511 380 OFFCURVE",
"522 379 OFFCURVE",
"533 378 CURVE",
"533 279 LINE",
"522 280 OFFCURVE",
"511 281 OFFCURVE",
"500 281 CURVE SMOOTH",
"490 281 OFFCURVE",
"479 280 OFFCURVE",
"469 279 CURVE",
"469 378 LINE"
);
},
{
closed = 1;
nodes = (
"522 160 OFFCURVE",
"511 161 OFFCURVE",
"500 161 CURVE SMOOTH",
"490 161 OFFCURVE",
"479 160 OFFCURVE",
"469 159 CURVE",
"469 258 LINE",
"479 259 OFFCURVE",
"490 260 OFFCURVE",
"500 260 CURVE SMOOTH",
"511 260 OFFCURVE",
"522 259 OFFCURVE",
"533 258 CURVE",
"533 159 LINE"
);
}
);
width = 1000;
}
);
unicode = 1D951;
}
{
glyphname = u1D952;
layers = (
{
layerId = "B5BBCF37-8EA3-4A7F-B967-74D10E0B056C";
paths = (
{
closed = 1;
nodes = (
"665 456 LINE",
"500 621 LINE",
"335 456 LINE",
"415 456 LINE",
"415 366 LINE",
"302 354 OFFCURVE",
"264 318 OFFCURVE",
"264 271 CURVE SMOOTH",
"264 215 OFFCURVE",
"316 175 OFFCURVE",
"480 172 CURVE",
"480 82 LINE",
"603 205 LINE",
"480 328 LINE",
"480 237 LINE",
"333 240 OFFCURVE",
"306 269 OFFCURVE",
"306 289 CURVE SMOOTH",
"306 312 OFFCURVE",
"325 335 OFFCURVE",
"415 344 CURVE",
"415 261 LINE",
"457 258 LINE",
"457 456 LINE",
"543 456 LINE",
"543 290 LINE",
"585 248 LINE",
"585 344 LINE",
"679 336 OFFCURVE",
"698 312 OFFCURVE",
"698 289 CURVE SMOOTH",
"698 275 OFFCURVE",
"684 256 OFFCURVE",
"625 245 CURVE",
"625 181 LINE",
"710 196 OFFCURVE",
"740 229 OFFCURVE",
"740 271 CURVE SMOOTH",
"740 319 OFFCURVE",
"701 355 OFFCURVE",
"585 365 CURVE",
"585 456 LINE"
);
},
{
closed = 1;
nodes = (
"585 162 LINE",
"543 120 LINE",
"543 -23 LINE",
"585 -23 LINE"
);
},
{
closed = 1;
nodes = (
"457 153 LINE",
"415 156 LINE",
"415 -23 LINE",
"457 -23 LINE"
);
}
);
width = 1000;
}
);
unicode = 1D952;
}
{
glyphname = u1D954;
layers = (
{
layerId = "B5BBCF37-8EA3-4A7F-B967-74D10E0B056C";
paths = (
{
closed = 1;
nodes = (
"740 299 OFFCURVE",
"712 331 OFFCURVE",
"634 347 CURVE",
"712 362 OFFCURVE",
"740 395 OFFCURVE",
"740 435 CURVE SMOOTH",
"740 483 OFFCURVE",
"701 519 OFFCURVE",
"585 530 CURVE",
"585 591 LINE",
"665 591 LINE",
"500 756 LINE",
"335 591 LINE",
"415 591 LINE",
"415 529 LINE",
"302 518 OFFCURVE",
"264 482 OFFCURVE",
"264 435 CURVE SMOOTH",
"264 395 OFFCURVE",
"292 362 OFFCURVE",
"370 347 CURVE",
"292 331 OFFCURVE",
"264 299 OFFCURVE",
"264 259 CURVE SMOOTH",
"264 219 OFFCURVE",
"292 186 OFFCURVE",
"370 171 CURVE",
"292 155 OFFCURVE",
"264 123 OFFCURVE",
"264 83 CURVE SMOOTH",
"264 27 OFFCURVE",
"316 -13 OFFCURVE",
"480 -16 CURVE",
"480 -106 LINE",
"603 17 LINE",
"480 140 LINE",
"480 49 LINE",
"333 52 OFFCURVE",
"306 81 OFFCURVE",
"306 101 CURVE SMOOTH",
"306 123 OFFCURVE",
"325 147 OFFCURVE",
"415 156 CURVE",
"415 73 LINE",
"457 70 LINE",
"457 159 LINE",
"471 160 OFFCURVE",
"486 160 OFFCURVE",
"502 160 CURVE SMOOTH",
"517 160 OFFCURVE",
"530 160 OFFCURVE",
"543 159 CURVE",
"543 102 LINE",
"585 60 LINE",
"585 157 LINE",
"679 148 OFFCURVE",
"698 123 OFFCURVE",
"698 101 CURVE SMOOTH",
"698 87 OFFCURVE",
"684 68 OFFCURVE",
"625 57 CURVE",
"625 -7 LINE",
"710 8 OFFCURVE",
"740 41 OFFCURVE",
"740 83 CURVE SMOOTH",
"740 123 OFFCURVE",
"712 155 OFFCURVE",
"634 171 CURVE",
"712 186 OFFCURVE",
"740 219 OFFCURVE",
"740 259 CURVE SMOOTH"
);
},
{
closed = 1;
nodes = (
"530 401 OFFCURVE",
"517 401 OFFCURVE",
"502 401 CURVE SMOOTH",
"486 401 OFFCURVE",
"471 401 OFFCURVE",
"457 402 CURVE",
"457 591 LINE",
"543 591 LINE",
"543 402 LINE"
);
},
{
closed = 1;
nodes = (
"698 436 OFFCURVE",
"679 413 OFFCURVE",
"585 404 CURVE",
"585 509 LINE",
"679 500 OFFCURVE",
"698 475 OFFCURVE",
"698 453 CURVE SMOOTH"
);
},
{
closed = 1;
nodes = (
"306 476 OFFCURVE",
"325 499 OFFCURVE",
"415 508 CURVE",
"415 405 LINE",
"325 413 OFFCURVE",
"306 436 OFFCURVE",
"306 453 CURVE SMOOTH"
);
},
{
closed = 1;
nodes = (
"486 225 OFFCURVE",
"471 225 OFFCURVE",
"457 226 CURVE",
"457 335 LINE",
"471 336 OFFCURVE",
"486 336 OFFCURVE",
"502 336 CURVE SMOOTH",
"517 336 OFFCURVE",
"530 336 OFFCURVE",
"543 335 CURVE",
"543 226 LINE",
"530 225 OFFCURVE",
"517 225 OFFCURVE",
"502 225 CURVE SMOOTH"
);
},
{
closed = 1;
nodes = (
"679 324 OFFCURVE",
"698 299 OFFCURVE",
"698 277 CURVE SMOOTH",
"698 260 OFFCURVE",
"679 237 OFFCURVE",
"585 228 CURVE",
"585 333 LINE"
);
},
{
closed = 1;
nodes = (
"306 299 OFFCURVE",
"325 323 OFFCURVE",
"415 332 CURVE",
"415 229 LINE",
"325 237 OFFCURVE",
"306 260 OFFCURVE",
"306 277 CURVE SMOOTH"
);
},
{
closed = 1;
nodes = (
"585 -26 LINE",
"543 -68 LINE",
"543 -156 LINE",
"585 -156 LINE"
);
},
{
closed = 1;
nodes = (
"457 -35 LINE",
"415 -32 LINE",
"415 -156 LINE",
"457 -156 LINE"
);
}
);
width = 1000;
}
);
unicode = 1D954;
}
{
glyphname = u1D955;
layers = (
{
layerId = "B5BBCF37-8EA3-4A7F-B967-74D10E0B056C";
paths = (
{
closed = 1;
nodes = (
"574 408 LINE",
"630 408 LINE",
"500 538 LINE",
"370 408 LINE",
"426 408 LINE",
"426 274 LINE",
"325 274 LINE",
"325 209 LINE",
"426 209 LINE",
"426 64 LINE",
"468 64 LINE",
"468 209 LINE",
"532 209 LINE",
"532 64 LINE",
"574 64 LINE",
"574 209 LINE",
"675 209 LINE",
"675 274 LINE",
"574 274 LINE"
);
},
{
closed = 1;
nodes = (
"532 408 LINE",
"532 274 LINE",
"468 274 LINE",
"468 408 LINE"
);
}
);
width = 1000;
}
);
unicode = 1D955;
}
{
glyphname = u1D956;
layers = (
{
layerId = "B5BBCF37-8EA3-4A7F-B967-74D10E0B056C";
paths = (
{
closed = 1;
nodes = (
"585 456 LINE",
"665 456 LINE",
"500 621 LINE",
"335 456 LINE",
"415 456 LINE",
"415 260 LINE",
"325 260 LINE",
"325 195 LINE",
"415 195 LINE",
"415 -22 LINE",
"457 -22 LINE",
"457 195 LINE",
"543 195 LINE",
"543 -22 LINE",
"585 -22 LINE",
"585 195 LINE",
"675 195 LINE",
"675 260 LINE",
"585 260 LINE"
);
},
{
closed = 1;
nodes = (
"543 456 LINE",
"543 260 LINE",
"457 260 LINE",
"457 456 LINE"
);
}
);
width = 1000;
}
);
unicode = 1D956;
}
{
glyphname = u1D957;
layers = (
{
layerId = "B5BBCF37-8EA3-4A7F-B967-74D10E0B056C";
paths = (
{
closed = 1;
nodes = (
"586 536 LINE",
"665 536 LINE",
"500 701 LINE",
"335 536 LINE",
"416 536 LINE",
"416 268 LINE",
"325 268 LINE",
"325 203 LINE",
"416 203 LINE",
"416 -102 LINE",
"458 -102 LINE",
"458 203 LINE",
"544 203 LINE",
"544 -102 LINE",
"586 -102 LINE",
"586 203 LINE",
"675 203 LINE",
"675 268 LINE",
"586 268 LINE"
);
},
{
closed = 1;
nodes = (
"544 536 LINE",
"544 268 LINE",
"458 268 LINE",
"458 536 LINE"
);
}
);
width = 1000;
}
);
unicode = 1D957;
}
{
glyphname = u1D958;
layers = (
{
layerId = "B5BBCF37-8EA3-4A7F-B967-74D10E0B056C";
paths = (
{
closed = 1;
nodes = (
"585 591 LINE",
"665 591 LINE",
"500 756 LINE",
"335 591 LINE",
"415 591 LINE",
"415 258 LINE",
"325 258 LINE",
"325 183 LINE",
"415 183 LINE",
"415 -157 LINE",
"457 -157 LINE",
"457 183 LINE",
"543 183 LINE",
"543 -157 LINE",
"585 -157 LINE",
"585 183 LINE",
"675 183 LINE",
"675 258 LINE",
"585 258 LINE"
);
},
{
closed = 1;
nodes = (
"543 591 LINE",
"543 258 LINE",
"457 258 LINE",
"457 591 LINE"
);
}
);
width = 1000;
}
);
unicode = 1D958;
}
{
glyphname = u1D95A;
layers = (
{
layerId = "B5BBCF37-8EA3-4A7F-B967-74D10E0B056C";
paths = (
{
closed = 1;
nodes = (
"665 456 LINE",
"500 621 LINE",
"335 456 LINE",
"415 456 LINE",
"415 267 LINE",
"409 255 OFFCURVE",
"406 241 OFFCURVE",
"406 227 CURVE SMOOTH",
"406 213 OFFCURVE",
"409 199 OFFCURVE",
"415 187 CURVE",
"415 -22 LINE",
"457 -22 LINE",
"457 143 LINE",
"470 137 OFFCURVE",
"484 133 OFFCURVE",
"500 133 CURVE SMOOTH",
"515 133 OFFCURVE",
"530 137 OFFCURVE",
"543 144 CURVE",
"543 -22 LINE",
"585 -22 LINE",
"585 189 LINE",
"590 201 OFFCURVE",
"593 213 OFFCURVE",
"593 227 CURVE SMOOTH",
"593 240 OFFCURVE",
"590 253 OFFCURVE",
"585 265 CURVE",
"585 456 LINE"
);
},
{
closed = 1;
nodes = (
"484 320 OFFCURVE",
"470 316 OFFCURVE",
"457 310 CURVE",
"457 456 LINE",
"543 456 LINE",
"543 309 LINE",
"530 316 OFFCURVE",
"515 320 OFFCURVE",
"500 320 CURVE SMOOTH"
);
}
);
width = 1000;
}
);
unicode = 1D95A;
}
{
glyphname = u1D95B;
layers = (
{
layerId = "B5BBCF37-8EA3-4A7F-B967-74D10E0B056C";
paths = (
{
closed = 1;
nodes = (
"665 536 LINE",
"500 701 LINE",
"335 536 LINE",
"416 536 LINE",
"416 301 LINE",
"400 282 OFFCURVE",
"390 258 OFFCURVE",
"390 231 CURVE SMOOTH",
"390 204 OFFCURVE",
"400 179 OFFCURVE",
"416 160 CURVE",
"416 -102 LINE",
"458 -102 LINE",
"458 129 LINE",
"471 124 OFFCURVE",
"485 121 OFFCURVE",
"500 121 CURVE SMOOTH",
"516 121 OFFCURVE",
"531 124 OFFCURVE",
"544 130 CURVE",
"544 -102 LINE",
"586 -102 LINE",
"586 163 LINE",
"600 182 OFFCURVE",
"609 205 OFFCURVE",
"609 231 CURVE SMOOTH",
"609 256 OFFCURVE",
"600 279 OFFCURVE",
"586 298 CURVE",
"586 536 LINE"
);
},
{
closed = 1;
nodes = (
"485 340 OFFCURVE",
"471 337 OFFCURVE",
"458 332 CURVE",
"458 536 LINE",
"544 536 LINE",
"544 331 LINE",
"531 337 OFFCURVE",
"516 340 OFFCURVE",
"500 340 CURVE SMOOTH"
);
}
);
width = 1000;
}
);
unicode = 1D95B;
}
{
glyphname = u1D95D;
layers = (
{
layerId = "B5BBCF37-8EA3-4A7F-B967-74D10E0B056C";
paths = (
{
closed = 1;
nodes = (
"500 544 LINE",
"370 414 LINE",
"426 414 LINE",
"426 155 LINE",
"380 56 LINE",
"620 56 LINE",
"574 155 LINE",
"574 414 LINE",
"630 414 LINE"
);
},
{
closed = 1;
nodes = (
"468 185 LINE",
"468 414 LINE",
"532 414 LINE",
"532 185 LINE"
);
}
);
width = 1000;
}
);
unicode = 1D95D;
}
{
glyphname = u1D95E;
layers = (
{
layerId = "B5BBCF37-8EA3-4A7F-B967-74D10E0B056C";
paths = (
{
closed = 1;
nodes = (
"500 621 LINE",
"335 456 LINE",
"415 456 LINE",
"415 52 LINE",
"380 -23 LINE",
"620 -23 LINE",
"585 52 LINE",
"585 456 LINE",
"665 456 LINE"
);
},
{
closed = 1;
nodes = (
"457 106 LINE",
"457 456 LINE",
"543 456 LINE",
"543 106 LINE"
);
}
);
width = 1000;
}
);
unicode = 1D95E;
}
{
glyphname = u1D960;
layers = (
{
layerId = "B5BBCF37-8EA3-4A7F-B967-74D10E0B056C";
paths = (
{
closed = 1;
nodes = (
"500 756 LINE",
"335 591 LINE",
"415 591 LINE",
"415 -62 LINE",
"369 -160 LINE",
"631 -160 LINE",
"585 -62 LINE",
"585 591 LINE",
"665 591 LINE"
);
},
{
closed = 1;
nodes = (
"457 -21 LINE",
"457 591 LINE",
"543 591 LINE",
"543 -21 LINE"
);
}
);
width = 1000;
}
);
unicode = 1D960;
}
{
glyphname = u1D961;
layers = (
{
layerId = "B5BBCF37-8EA3-4A7F-B967-74D10E0B056C";
paths = (
{
closed = 1;
nodes = (
"370 408 LINE",
"426 408 LINE",
"426 64 LINE",
"468 64 LINE",
"468 269 LINE",
"532 269 LINE",
"532 64 LINE",
"574 64 LINE",
"574 408 LINE",
"630 408 LINE",
"500 538 LINE"
);
}
);
width = 1000;
}
);
unicode = 1D961;
}
{
glyphname = u1D962;
layers = (
{
layerId = "B5BBCF37-8EA3-4A7F-B967-74D10E0B056C";
paths = (
{
closed = 1;
nodes = (
"335 456 LINE",
"415 456 LINE",
"415 -22 LINE",
"457 -22 LINE",
"457 292 LINE",
"543 292 LINE",
"543 -22 LINE",
"585 -22 LINE",
"585 456 LINE",
"665 456 LINE",
"500 621 LINE"
);
}
);
width = 1000;
}
);
unicode = 1D962;
}
{
glyphname = u1D963;
layers = (
{
layerId = "B5BBCF37-8EA3-4A7F-B967-74D10E0B056C";
paths = (
{
closed = 1;
nodes = (
"458 368 LINE",
"544 368 LINE",
"544 -106 LINE",
"586 -106 LINE",
"586 532 LINE",
"665 532 LINE",
"500 697 LINE",
"335 532 LINE",
"416 532 LINE",
"416 -106 LINE",
"458 -106 LINE"
);
}
);
width = 1000;
}
);
unicode = 1D963;
}
{
glyphname = u1D965;
layers = (
{
layerId = "B5BBCF37-8EA3-4A7F-B967-74D10E0B056C";
paths = (
{
closed = 1;
nodes = (
"370 316 LINE",
"479 316 LINE",
"479 153 LINE",
"521 153 LINE",
"521 316 LINE",
"630 316 LINE",
"500 446 LINE"
);
}
);
width = 1000;
}
);
unicode = 1D965;
}
{
glyphname = u1D966;
layers = (
{
layerId = "B5BBCF37-8EA3-4A7F-B967-74D10E0B056C";
paths = (
{
closed = 1;
nodes = (
"335 456 LINE",
"479 456 LINE",
"479 -22 LINE",
"521 -22 LINE",
"521 456 LINE",
"665 456 LINE",
"500 621 LINE"
);
}
);
width = 1000;
}
);
unicode = 1D966;
}
{
glyphname = u1D967;
layers = (
{
layerId = "B5BBCF37-8EA3-4A7F-B967-74D10E0B056C";
paths = (
{
closed = 1;
nodes = (
"335 540 LINE",
"479 540 LINE",
"479 -98 LINE",
"521 -98 LINE",
"521 540 LINE",
"665 540 LINE",
"500 705 LINE"
);
}
);
width = 1000;
}
);
unicode = 1D967;
}
{
glyphname = u1D968;
layers = (
{
layerId = "B5BBCF37-8EA3-4A7F-B967-74D10E0B056C";
paths = (
{
closed = 1;
nodes = (
"335 588 LINE",
"479 588 LINE",
"479 -160 LINE",
"521 -160 LINE",
"521 588 LINE",
"665 588 LINE",
"500 753 LINE"
);
}
);
width = 1000;
}
);
unicode = 1D968;
}
{
glyphname = u1D969;
layers = (
{
layerId = "B5BBCF37-8EA3-4A7F-B967-74D10E0B056C";
paths = (
{
closed = 1;
nodes = (
"521 356 LINE",
"630 356 LINE",
"500 486 LINE",
"370 356 LINE",
"479 356 LINE",
"479 193 LINE",
"521 193 LINE"
);
},
{
closed = 1;
nodes = (
"640 111 LINE",
"640 153 LINE",
"360 153 LINE",
"360 111 LINE"
);
}
);
width = 1000;
}
);
unicode = 1D969;
}
{
glyphname = u1D96A;
layers = (
{
layerId = "B5BBCF37-8EA3-4A7F-B967-74D10E0B056C";
paths = (
{
closed = 1;
nodes = (
"408 316 LINE",
"592 316 LINE",
"592 153 LINE",
"634 153 LINE",
"634 316 LINE",
"743 316 LINE",
"613 446 LINE",
"500 333 LINE",
"387 446 LINE",
"257 316 LINE",
"366 316 LINE",
"366 153 LINE",
"408 153 LINE"
);
}
);
width = 1000;
}
);
unicode = 1D96A;
}
{
glyphname = u1D96B;
layers = (
{
layerId = "B5BBCF37-8EA3-4A7F-B967-74D10E0B056C";
paths = (
{
closed = 1;
nodes = (
"408 356 LINE",
"592 356 LINE",
"592 193 LINE",
"634 193 LINE",
"634 356 LINE",
"743 356 LINE",
"613 486 LINE",
"500 373 LINE",
"387 486 LINE",
"257 356 LINE",
"366 356 LINE",
"366 193 LINE",
"408 193 LINE"
);
},
{
closed = 1;
nodes = (
"753 158 LINE",
"247 158 LINE",
"247 116 LINE",
"753 116 LINE"
);
}
);
width = 1000;
}
);
unicode = 1D96B;
}
{
glyphname = u1D96D;
layers = (
{
layerId = "B5BBCF37-8EA3-4A7F-B967-74D10E0B056C";
paths = (
{
closed = 1;
nodes = (
"634 376 LINE",
"743 376 LINE",
"613 506 LINE",
"483 376 LINE",
"592 376 LINE",
"592 213 LINE",
"634 213 LINE"
);
},
{
closed = 1;
nodes = (
"408 324 LINE",
"408 487 LINE",
"366 487 LINE",
"366 324 LINE",
"257 324 LINE",
"387 194 LINE",
"517 324 LINE"
);
},
{
closed = 1;
nodes = (
"753 121 LINE",
"753 163 LINE",
"247 163 LINE",
"247 121 LINE"
);
}
);
width = 1000;
}
);
unicode = 1D96D;
}
{
glyphname = u1D96E;
layers = (
{
layerId = "B5BBCF37-8EA3-4A7F-B967-74D10E0B056C";
paths = (
{
closed = 1;
nodes = (
"364 476 LINE",
"508 476 LINE",
"508 -2 LINE",
"550 -2 LINE",
"550 476 LINE",
"694 476 LINE",
"529 641 LINE"
);
},
{
closed = 1;
nodes = (
"300 82 LINE",
"300 226 LINE",
"469 226 LINE",
"469 268 LINE",
"300 268 LINE",
"300 412 LINE",
"135 247 LINE"
);
},
{
closed = 1;
nodes = (
"778 226 LINE",
"778 268 LINE",
"589 268 LINE",
"589 226 LINE"
);
}
);
width = 1000;
}
);
unicode = 1D96E;
}
{
glyphname = u1D96F;
layers = (
{
layerId = "B5BBCF37-8EA3-4A7F-B967-74D10E0B056C";
paths = (
{
closed = 1;
nodes = (
"613 333 LINE",
"500 446 LINE",
"387 333 LINE",
"274 446 LINE",
"144 316 LINE",
"253 316 LINE",
"253 153 LINE",
"295 153 LINE",
"295 316 LINE",
"479 316 LINE",
"479 153 LINE",
"521 153 LINE",
"521 316 LINE",
"705 316 LINE",
"705 153 LINE",
"747 153 LINE",
"747 316 LINE",
"856 316 LINE",
"726 446 LINE"
);
}
);
width = 1000;
}
);
unicode = 1D96F;
}
{
glyphname = u1D970;
layers = (
{
layerId = "B5BBCF37-8EA3-4A7F-B967-74D10E0B056C";
paths = (
{
closed = 1;
nodes = (
"295 356 LINE",
"479 356 LINE",
"479 193 LINE",
"521 193 LINE",
"521 356 LINE",
"705 356 LINE",
"705 193 LINE",
"747 193 LINE",
"747 356 LINE",
"856 356 LINE",
"726 486 LINE",
"613 373 LINE",
"500 486 LINE",
"387 373 LINE",
"274 486 LINE",
"144 356 LINE",
"253 356 LINE",
"253 193 LINE",
"295 193 LINE"
);
},
{
closed = 1;
nodes = (
"866 111 LINE",
"866 153 LINE",
"134 153 LINE",
"134 111 LINE"
);
}
);
width = 1000;
}
);
unicode = 1D970;
}
{
glyphname = u1D973;
layers = (
{
layerId = "B5BBCF37-8EA3-4A7F-B967-74D10E0B056C";
paths = (
{
closed = 1;
nodes = (
"628 469 LINE",
"463 634 LINE",
"298 469 LINE",
"443 469 LINE",
"443 171 LINE",
"661 -47 LINE",
"691 -17 LINE",
"485 189 LINE",
"485 469 LINE"
);
}
);
width = 1000;
}
);
unicode = 1D973;
}
{
glyphname = u1D974;
layers = (
{
layerId = "B5BBCF37-8EA3-4A7F-B967-74D10E0B056C";
paths = (
{
closed = 1;
nodes = (
"561 381 LINE",
"431 511 LINE",
"301 381 LINE",
"410 381 LINE",
"410 107 LINE",
"694 107 LINE",
"694 149 LINE",
"452 149 LINE",
"452 381 LINE"
);
}
);
width = 1000;
}
);
unicode = 1D974;
}
{
glyphname = u1D975;
layers = (
{
layerId = "B5BBCF37-8EA3-4A7F-B967-74D10E0B056C";
paths = (
{
closed = 1;
nodes = (
"737 115 LINE",
"439 115 LINE",
"439 403 LINE",
"583 403 LINE",
"418 568 LINE",
"253 403 LINE",
"397 403 LINE",
"397 73 LINE",
"737 73 LINE"
);
}
);
width = 1000;
}
);
unicode = 1D975;
}
{
glyphname = u1D976;
layers = (
{
layerId = "B5BBCF37-8EA3-4A7F-B967-74D10E0B056C";
paths = (
{
closed = 1;
nodes = (
"713 57 LINE",
"331 57 LINE",
"331 429 LINE",
"475 429 LINE",
"310 594 LINE",
"145 429 LINE",
"289 429 LINE",
"289 15 LINE",
"713 15 LINE"
);
}
);
width = 1000;
}
);
unicode = 1D976;
}
{
glyphname = u1D977;
layers = (
{
layerId = "B5BBCF37-8EA3-4A7F-B967-74D10E0B056C";
paths = (
{
closed = 1;
nodes = (
"501 172 LINE",
"501 400 LINE",
"610 400 LINE",
"480 530 LINE",
"350 400 LINE",
"459 400 LINE",
"459 70 LINE",
"712 323 LINE",
"682 353 LINE"
);
}
);
width = 1000;
}
);
unicode = 1D977;
}
{
glyphname = u1D978;
layers = (
{
layerId = "B5BBCF37-8EA3-4A7F-B967-74D10E0B056C";
paths = (
{
closed = 1;
nodes = (
"392 189 LINE",
"392 401 LINE",
"501 401 LINE",
"371 531 LINE",
"241 401 LINE",
"350 401 LINE",
"350 147 LINE",
"670 147 LINE",
"670 401 LINE",
"628 401 LINE",
"628 189 LINE"
);
}
);
width = 1000;
}
);
unicode = 1D978;
}
{
glyphname = u1D979;
layers = (
{
layerId = "B5BBCF37-8EA3-4A7F-B967-74D10E0B056C";
paths = (
{
closed = 1;
nodes = (
"727 418 LINE",
"685 418 LINE",
"685 100 LINE",
"375 100 LINE",
"375 418 LINE",
"523 418 LINE",
"358 583 LINE",
"193 418 LINE",
"333 418 LINE",
"333 58 LINE",
"727 58 LINE"
);
}
);
width = 1000;
}
);
unicode = 1D979;
}
{
glyphname = u1D97B;
layers = (
{
layerId = "B5BBCF37-8EA3-4A7F-B967-74D10E0B056C";
paths = (
{
closed = 1;
nodes = (
"428 482 LINE",
"537 482 LINE",
"537 223 LINE",
"393 367 LINE",
"393 7 LINE",
"435 7 LINE",
"435 266 LINE",
"579 122 LINE",
"579 482 LINE",
"688 482 LINE",
"558 612 LINE"
);
}
);
width = 1000;
}
);
unicode = 1D97B;
}
{
glyphname = u1D97D;
layers = (
{
layerId = "B5BBCF37-8EA3-4A7F-B967-74D10E0B056C";
paths = (
{
closed = 1;
nodes = (
"461 556 LINE",
"605 556 LINE",
"605 139 LINE",
"330 414 LINE",
"330 -103 LINE",
"372 -103 LINE",
"372 314 LINE",
"647 39 LINE",
"647 556 LINE",
"791 556 LINE",
"626 721 LINE"
);
}
);
width = 1000;
}
);
unicode = 1D97D;
}
{
glyphname = u1D97E;
layers = (
{
layerId = "B5BBCF37-8EA3-4A7F-B967-74D10E0B056C";
paths = (
{
closed = 1;
nodes = (
"457 471 LINE",
"566 471 LINE",
"566 212 LINE",
"422 356 LINE",
"422 105 LINE",
"296 231 LINE",
"264 199 LINE",
"464 0 LINE",
"464 255 LINE",
"608 111 LINE",
"608 471 LINE",
"717 471 LINE",
"587 601 LINE"
);
}
);
width = 1000;
}
);
unicode = 1D97E;
}
{
glyphname = u1D97F;
layers = (
{
layerId = "B5BBCF37-8EA3-4A7F-B967-74D10E0B056C";
paths = (
{
closed = 1;
nodes = (
"444 492 LINE",
"587 492 LINE",
"587 149 LINE",
"375 361 LINE",
"375 47 LINE",
"218 204 LINE",
"188 174 LINE",
"417 -55 LINE",
"417 259 LINE",
"629 47 LINE",
"629 492 LINE",
"774 492 LINE",
"609 657 LINE"
);
}
);
width = 1000;
}
);
unicode = 1D97F;
}
{
glyphname = u1D981;
layers = (
{
layerId = "B5BBCF37-8EA3-4A7F-B967-74D10E0B056C";
paths = (
{
closed = 1;
nodes = (
"665 416 LINE",
"500 581 LINE",
"335 416 LINE",
"480 416 LINE",
"480 300 LINE",
"426 296 OFFCURVE",
"372 274 OFFCURVE",
"325 236 CURVE",
"246 315 LINE",
"246 141 LINE",
"420 141 LINE",
"340 221 LINE",
"384 256 OFFCURVE",
"431 275 OFFCURVE",
"480 279 CURVE",
"480 18 LINE",
"522 18 LINE",
"522 279 LINE",
"582 273 OFFCURVE",
"640 244 OFFCURVE",
"688 195 CURVE",
"703 210 LINE",
"651 262 OFFCURVE",
"588 294 OFFCURVE",
"522 300 CURVE",
"522 416 LINE"
);
}
);
width = 1000;
}
);
unicode = 1D981;
}
{
glyphname = u1D982;
layers = (
{
layerId = "B5BBCF37-8EA3-4A7F-B967-74D10E0B056C";
paths = (
{
closed = 1;
nodes = (
"582 374 OFFCURVE",
"640 344 OFFCURVE",
"688 295 CURVE",
"703 310 LINE",
"651 362 OFFCURVE",
"587 395 OFFCURVE",
"521 400 CURVE",
"521 516 LINE",
"664 516 LINE",
"499 681 LINE",
"334 516 LINE",
"479 516 LINE",
"479 400 LINE",
"425 396 OFFCURVE",
"372 374 OFFCURVE",
"325 336 CURVE",
"246 415 LINE",
"246 241 LINE",
"420 241 LINE",
"340 321 LINE",
"383 355 OFFCURVE",
"430 375 OFFCURVE",
"479 379 CURVE",
"479 200 LINE",
"425 196 OFFCURVE",
"372 174 OFFCURVE",
"325 136 CURVE",
"246 215 LINE",
"246 41 LINE",
"420 41 LINE",
"340 121 LINE",
"383 155 OFFCURVE",
"430 175 OFFCURVE",
"479 179 CURVE",
"479 -82 LINE",
"521 -82 LINE",
"521 179 LINE",
"582 174 OFFCURVE",
"640 144 OFFCURVE",
"688 95 CURVE",
"703 110 LINE",
"651 162 OFFCURVE",
"587 195 OFFCURVE",
"521 200 CURVE",
"521 379 LINE"
);
}
);
width = 1000;
}
);
unicode = 1D982;
}
{
glyphname = u1D983;
layers = (
{
layerId = "B5BBCF37-8EA3-4A7F-B967-74D10E0B056C";
paths = (
{
closed = 1;
nodes = (
"628 174 OFFCURVE",
"575 196 OFFCURVE",
"521 200 CURVE",
"521 379 LINE",
"582 374 OFFCURVE",
"640 344 OFFCURVE",
"688 295 CURVE",
"703 310 LINE",
"651 362 OFFCURVE",
"587 395 OFFCURVE",
"521 400 CURVE",
"521 516 LINE",
"664 516 LINE",
"499 681 LINE",
"334 516 LINE",
"479 516 LINE",
"479 400 LINE",
"425 396 OFFCURVE",
"372 374 OFFCURVE",
"325 336 CURVE",
"246 415 LINE",
"246 241 LINE",
"420 241 LINE",
"340 321 LINE",
"383 355 OFFCURVE",
"430 375 OFFCURVE",
"479 379 CURVE",
"479 200 LINE",
"413 195 OFFCURVE",
"349 162 OFFCURVE",
"297 110 CURVE",
"312 95 LINE",
"360 144 OFFCURVE",
"418 174 OFFCURVE",
"479 179 CURVE",
"479 -82 LINE",
"521 -82 LINE",
"521 179 LINE",
"570 175 OFFCURVE",
"617 155 OFFCURVE",
"660 121 CURVE",
"580 41 LINE",
"754 41 LINE",
"754 215 LINE",
"675 136 LINE"
);
}
);
width = 1000;
}
);
unicode = 1D983;
}
{
glyphname = u1D984;
layers = (
{
layerId = "B5BBCF37-8EA3-4A7F-B967-74D10E0B056C";
paths = (
{
closed = 1;
nodes = (
"500 581 LINE",
"335 416 LINE",
"480 416 LINE",
"480 331 LINE",
"419 326 OFFCURVE",
"359 300 OFFCURVE",
"306 256 CURVE",
"247 315 LINE",
"247 141 LINE",
"421 141 LINE",
"365 197 LINE",
"402 226 OFFCURVE",
"440 243 OFFCURVE",
"480 248 CURVE",
"480 18 LINE",
"522 18 LINE",
"522 248 LINE",
"574 242 OFFCURVE",
"623 216 OFFCURVE",
"665 171 CURVE",
"680 186 LINE",
"630 239 OFFCURVE",
"568 270 OFFCURVE",
"501 270 CURVE SMOOTH",
"446 270 OFFCURVE",
"395 249 OFFCURVE",
"350 212 CURVE",
"321 241 LINE",
"375 286 OFFCURVE",
"435 312 OFFCURVE",
"502 312 CURVE SMOOTH",
"580 312 OFFCURVE",
"652 275 OFFCURVE",
"709 214 CURVE",
"723 229 LINE",
"666 290 OFFCURVE",
"595 325 OFFCURVE",
"522 331 CURVE",
"522 416 LINE",
"665 416 LINE"
);
}
);
width = 1000;
}
);
unicode = 1D984;
}
{
glyphname = u1D986;
layers = (
{
layerId = "B5BBCF37-8EA3-4A7F-B967-74D10E0B056C";
paths = (
{
closed = 1;
nodes = (
"641 200 OFFCURVE",
"581 226 OFFCURVE",
"521 231 CURVE",
"521 348 LINE",
"573 343 OFFCURVE",
"622 316 OFFCURVE",
"665 271 CURVE",
"680 286 LINE",
"630 339 OFFCURVE",
"568 370 OFFCURVE",
"501 370 CURVE SMOOTH",
"446 370 OFFCURVE",
"395 349 OFFCURVE",
"350 312 CURVE",
"321 341 LINE",
"375 386 OFFCURVE",
"435 412 OFFCURVE",
"502 412 CURVE SMOOTH",
"580 412 OFFCURVE",
"652 375 OFFCURVE",
"709 314 CURVE",
"723 329 LINE",
"665 390 OFFCURVE",
"594 426 OFFCURVE",
"521 431 CURVE",
"521 516 LINE",
"664 516 LINE",
"499 681 LINE",
"334 516 LINE",
"479 516 LINE",
"479 431 LINE",
"419 426 OFFCURVE",
"359 400 OFFCURVE",
"306 356 CURVE",
"247 415 LINE",
"247 241 LINE",
"421 241 LINE",
"365 297 LINE",
"402 326 OFFCURVE",
"439 343 OFFCURVE",
"479 348 CURVE",
"479 231 LINE",
"406 226 OFFCURVE",
"335 190 OFFCURVE",
"277 129 CURVE",
"291 114 LINE",
"348 175 OFFCURVE",
"420 212 OFFCURVE",
"498 212 CURVE SMOOTH",
"565 212 OFFCURVE",
"625 186 OFFCURVE",
"679 141 CURVE",
"650 112 LINE",
"605 149 OFFCURVE",
"554 170 OFFCURVE",
"499 170 CURVE SMOOTH",
"432 170 OFFCURVE",
"370 139 OFFCURVE",
"320 86 CURVE",
"335 71 LINE",
"378 116 OFFCURVE",
"427 143 OFFCURVE",
"479 148 CURVE",
"479 -82 LINE",
"521 -82 LINE",
"521 148 LINE",
"561 143 OFFCURVE",
"598 126 OFFCURVE",
"635 97 CURVE",
"579 41 LINE",
"753 41 LINE",
"753 215 LINE",
"694 156 LINE"
);
}
);
width = 1000;
}
);
unicode = 1D986;
}
{
glyphname = u1D987;
layers = (
{
layerId = "B5BBCF37-8EA3-4A7F-B967-74D10E0B056C";
paths = (
{
closed = 1;
nodes = (
"634 250 OFFCURVE",
"579 275 OFFCURVE",
"521 280 CURVE",
"521 379 LINE",
"573 374 OFFCURVE",
"624 352 OFFCURVE",
"668 314 CURVE",
"682 329 LINE",
"634 370 OFFCURVE",
"579 395 OFFCURVE",
"521 400 CURVE",
"521 516 LINE",
"664 516 LINE",
"499 681 LINE",
"334 516 LINE",
"479 516 LINE",
"479 400 LINE",
"421 395 OFFCURVE",
"366 370 OFFCURVE",
"318 330 CURVE",
"333 315 LINE",
"377 352 OFFCURVE",
"427 374 OFFCURVE",
"479 379 CURVE",
"479 280 LINE",
"421 275 OFFCURVE",
"366 250 OFFCURVE",
"318 210 CURVE",
"333 195 LINE",
"377 232 OFFCURVE",
"427 254 OFFCURVE",
"479 259 CURVE",
"479 160 LINE",
"421 155 OFFCURVE",
"366 130 OFFCURVE",
"318 90 CURVE",
"333 75 LINE",
"377 112 OFFCURVE",
"427 134 OFFCURVE",
"479 139 CURVE",
"479 -82 LINE",
"521 -82 LINE",
"521 139 LINE",
"573 134 OFFCURVE",
"624 112 OFFCURVE",
"668 74 CURVE",
"682 89 LINE",
"634 130 OFFCURVE",
"579 155 OFFCURVE",
"521 160 CURVE",
"521 259 LINE",
"573 254 OFFCURVE",
"624 232 OFFCURVE",
"668 194 CURVE",
"682 209 LINE"
);
}
);
width = 1000;
}
);
unicode = 1D987;
}
{
glyphname = u1D988;
layers = (
{
layerId = "B5BBCF37-8EA3-4A7F-B967-74D10E0B056C";
paths = (
{
closed = 1;
nodes = (
"592 508 LINE",
"408 508 LINE",
"408 324 LINE",
"457 373 LINE",
"484 345 LINE SMOOTH",
"502 327 OFFCURVE",
"511 316 OFFCURVE",
"511 304 CURVE SMOOTH",
"511 292 OFFCURVE",
"501 278 OFFCURVE",
"480 257 CURVE SMOOTH",
"394 171 LINE",
"419 146 LINE",
"505 232 LINE SMOOTH",
"534 261 OFFCURVE",
"548 283 OFFCURVE",
"548 305 CURVE SMOOTH",
"548 325 OFFCURVE",
"534 345 OFFCURVE",
"509 370 CURVE SMOOTH",
"481 397 LINE",
"518 434 LINE",
"579 373 LINE SMOOTH",
"599 353 OFFCURVE",
"610 328 OFFCURVE",
"610 301 CURVE SMOOTH",
"610 278 OFFCURVE",
"602 256 OFFCURVE",
"582 236 CURVE SMOOTH",
"455 109 LINE",
"480 85 LINE",
"607 211 LINE SMOOTH",
"633 237 OFFCURVE",
"646 270 OFFCURVE",
"646 302 CURVE SMOOTH",
"646 338 OFFCURVE",
"631 371 OFFCURVE",
"604 398 CURVE SMOOTH",
"543 459 LINE"
);
}
);
width = 1000;
}
);
unicode = 1D988;
}
{
glyphname = u1D98B;
layers = (
{
layerId = "B5BBCF37-8EA3-4A7F-B967-74D10E0B056C";
paths = (
{
closed = 1;
nodes = (
"552 758 LINE",
"319 758 LINE",
"319 525 LINE",
"387 593 LINE",
"479 500 LINE SMOOTH",
"574 405 OFFCURVE",
"622 352 OFFCURVE",
"622 299 CURVE SMOOTH",
"622 245 OFFCURVE",
"574 192 OFFCURVE",
"479 97 CURVE SMOOTH",
"366 -16 LINE",
"391 -41 LINE",
"504 72 LINE SMOOTH",
"606 174 OFFCURVE",
"656 236 OFFCURVE",
"656 299 CURVE SMOOTH",
"656 361 OFFCURVE",
"606 423 OFFCURVE",
"504 525 CURVE SMOOTH",
"412 618 LINE",
"461 667 LINE",
"553 574 LINE SMOOTH",
"672 455 OFFCURVE",
"731 377 OFFCURVE",
"731 299 CURVE SMOOTH",
"731 221 OFFCURVE",
"671 143 OFFCURVE",
"553 23 CURVE SMOOTH",
"440 -91 LINE",
"465 -115 LINE",
"578 -2 LINE SMOOTH",
"704 124 OFFCURVE",
"766 211 OFFCURVE",
"766 299 CURVE SMOOTH",
"766 386 OFFCURVE",
"704 473 OFFCURVE",
"578 599 CURVE SMOOTH",
"486 692 LINE"
);
}
);
width = 1000;
}
);
unicode = 1D98B;
}
{
glyphname = u1D992;
layers = (
{
layerId = "B5BBCF37-8EA3-4A7F-B967-74D10E0B056C";
paths = (
{
closed = 1;
nodes = (
"630 415 OFFCURVE",
"617 449 OFFCURVE",
"591 475 CURVE SMOOTH",
"503 563 LINE",
"553 613 LINE",
"369 613 LINE",
"369 429 LINE",
"419 479 LINE",
"464 433 LINE SMOOTH",
"485 412 OFFCURVE",
"495 398 OFFCURVE",
"495 386 CURVE SMOOTH",
"495 380 LINE SMOOTH",
"495 368 OFFCURVE",
"485 354 OFFCURVE",
"464 333 CURVE SMOOTH",
"410 279 LINE",
"464 225 LINE SMOOTH",
"485 204 OFFCURVE",
"495 190 OFFCURVE",
"495 178 CURVE SMOOTH",
"495 172 LINE SMOOTH",
"495 160 OFFCURVE",
"485 146 OFFCURVE",
"464 125 CURVE SMOOTH",
"410 71 LINE",
"435 46 LINE",
"489 100 LINE SMOOTH",
"518 129 OFFCURVE",
"532 150 OFFCURVE",
"532 173 CURVE SMOOTH",
"532 177 LINE SMOOTH",
"532 198 OFFCURVE",
"518 221 OFFCURVE",
"489 250 CURVE SMOOTH",
"460 279 LINE",
"489 308 LINE SMOOTH",
"518 337 OFFCURVE",
"532 358 OFFCURVE",
"532 381 CURVE SMOOTH",
"532 385 LINE SMOOTH",
"532 408 OFFCURVE",
"518 429 OFFCURVE",
"489 458 CURVE SMOOTH",
"444 504 LINE",
"478 538 LINE",
"566 450 LINE SMOOTH",
"587 429 OFFCURVE",
"594 408 OFFCURVE",
"594 385 CURVE SMOOTH",
"594 381 LINE SMOOTH",
"594 358 OFFCURVE",
"586 336 OFFCURVE",
"566 316 CURVE SMOOTH",
"529 279 LINE",
"566 242 LINE SMOOTH",
"586 222 OFFCURVE",
"594 200 OFFCURVE",
"594 177 CURVE SMOOTH",
"594 173 LINE SMOOTH",
"594 150 OFFCURVE",
"586 128 OFFCURVE",
"566 108 CURVE SMOOTH",
"470 12 LINE",
"495 -13 LINE",
"591 83 LINE SMOOTH",
"617 109 OFFCURVE",
"630 141 OFFCURVE",
"630 174 CURVE SMOOTH",
"630 176 LINE SMOOTH",
"630 207 OFFCURVE",
"617 241 OFFCURVE",
"591 267 CURVE SMOOTH",
"579 279 LINE",
"591 291 LINE SMOOTH",
"617 317 OFFCURVE",
"630 350 OFFCURVE",
"630 382 CURVE SMOOTH",
"630 384 LINE SMOOTH"
);
}
);
width = 1000;
}
);
unicode = 1D992;
}
{
glyphname = u1D995;
layers = (
{
layerId = "B5BBCF37-8EA3-4A7F-B967-74D10E0B056C";
paths = (
{
closed = 1;
nodes = (
"608 126 OFFCURVE",
"621 167 OFFCURVE",
"621 220 CURVE SMOOTH",
"621 238 OFFCURVE",
"617 262 OFFCURVE",
"610 287 CURVE",
"617 312 OFFCURVE",
"621 336 OFFCURVE",
"621 354 CURVE SMOOTH",
"621 407 OFFCURVE",
"608 448 OFFCURVE",
"568 491 CURVE SMOOTH",
"528 535 LINE",
"587 594 LINE",
"403 594 LINE",
"403 410 LINE",
"472 479 LINE",
"502 448 LINE SMOOTH",
"523 426 OFFCURVE",
"531 408 OFFCURVE",
"535 387 CURVE",
"521 393 OFFCURVE",
"506 397 OFFCURVE",
"489 397 CURVE SMOOTH",
"428 397 OFFCURVE",
"379 348 OFFCURVE",
"379 287 CURVE SMOOTH",
"379 226 OFFCURVE",
"428 177 OFFCURVE",
"489 177 CURVE SMOOTH",
"505 177 OFFCURVE",
"521 181 OFFCURVE",
"535 187 CURVE",
"531 166 OFFCURVE",
"521 147 OFFCURVE",
"502 126 CURVE SMOOTH",
"442 62 LINE",
"456 48 LINE",
"517 112 LINE SMOOTH",
"545 141 OFFCURVE",
"556 170 OFFCURVE",
"558 202 CURVE",
"574 213 OFFCURVE",
"590 239 OFFCURVE",
"597 254 CURVE",
"599 240 OFFCURVE",
"600 228 OFFCURVE",
"600 220 CURVE SMOOTH",
"600 179 OFFCURVE",
"594 143 OFFCURVE",
"553 98 CURVE SMOOTH",
"483 21 LINE",
"484 21 LINE",
"498 7 LINE",
"568 83 LINE SMOOTH"
);
},
{
closed = 1;
nodes = (
"440 198 OFFCURVE",
"400 238 OFFCURVE",
"400 287 CURVE SMOOTH",
"400 336 OFFCURVE",
"440 376 OFFCURVE",
"489 376 CURVE SMOOTH",
"507 376 OFFCURVE",
"523 371 OFFCURVE",
"537 362 CURVE",
"537 346 OFFCURVE",
"534 329 OFFCURVE",
"529 312 CURVE",
"520 325 OFFCURVE",
"506 334 OFFCURVE",
"489 334 CURVE SMOOTH",
"463 334 OFFCURVE",
"442 313 OFFCURVE",
"442 287 CURVE SMOOTH",
"442 261 OFFCURVE",
"463 240 OFFCURVE",
"489 240 CURVE SMOOTH",
"508 240 OFFCURVE",
"520 249 OFFCURVE",
"532 268 CURVE SMOOTH",
"546 291 OFFCURVE",
"558 325 OFFCURVE",
"558 366 CURVE SMOOTH",
"558 401 OFFCURVE",
"543 434 OFFCURVE",
"517 462 CURVE SMOOTH",
"487 494 LINE",
"513 520 LINE",
"553 476 LINE SMOOTH",
"594 431 OFFCURVE",
"600 395 OFFCURVE",
"600 354 CURVE SMOOTH",
"600 283 OFFCURVE",
"561 198 OFFCURVE",
"489 198 CURVE SMOOTH"
);
},
{
closed = 1;
nodes = (
"475 261 OFFCURVE",
"463 273 OFFCURVE",
"463 287 CURVE SMOOTH",
"463 301 OFFCURVE",
"475 313 OFFCURVE",
"489 313 CURVE SMOOTH",
"503 313 OFFCURVE",
"515 301 OFFCURVE",
"515 287 CURVE SMOOTH",
"515 273 OFFCURVE",
"503 261 OFFCURVE",
"489 261 CURVE SMOOTH"
);
}
);
width = 1000;
}
);
unicode = 1D995;
}
